<svg xmlns="http://www.w3.org/2000/svg" width="635.71875" height="525.3270263671875" viewBox="-233.69064331054688 -161.35678100585938 635.71875 525.3270263671875"><title>Neo4j Graph Visualization</title><desc>Created using Neo4j (http://www.neo4j.com/)</desc><g class="layer relationships"><g class="relationship" transform="translate(147.70428052936825 11.235599299578917) rotate(476.9410939623126)"><path class="outline" fill="#A5ABB6" stroke="none" d="M 24.018736134675446,6.953439040707552 L 24.277555179777966,5.987513214418485 A 140.98383217402142 140.98383217402142 0 0 0 42.76689547531666,9.637636742658799 L 42.639221541042986,10.629452938587804 A 141.98383217402142 141.98383217402142 0 0 1 24.018736134675446,6.953439040707552 Z M 75.00784030933026,11.075429854360863 L 74.90754026746406,10.080472618294067 A 140.98383217402142 140.98383217402142 0 0 0 93.49042622919613,6.941132612990456 L 92.7941002095391,4.023063032882986 L 100.41530958605641,5.802716830475286 L 94.41886092207218,10.83189205313375 L 93.72253490241515,7.913822473026279 A 141.98383217402142 141.98383217402142 0 0 1 75.00784030933026,11.075429854360863"/><text text-anchor="middle" pointer-events="none" font-size="8px" fill="#000000" x="58.81766764200201" y="14.277993418162225" transform="rotate(180 58.81766764200201 11.277993418162225)" font-family="sans-serif">KNOWS</text></g><g class="relationship" transform="translate(234.38683606224006 97.2585930018249) rotate(224.78118870139252)"><path class="outline" fill="#A5ABB6" stroke="none" d="M 24.018736134675446,-6.953439040707552 L 24.277555179777966,-5.987513214418485 A 135.80883268881897 135.80883268881897 0 0 1 41.4665907098896,-9.422174360744947 L 41.334339541042205,-10.413390597667302 A 136.80883268881897 136.80883268881897 0 0 0 24.018736134675446,-6.953439040707552 Z M 73.70170694074305,-10.86838270933066 L 73.59736982239028,-9.873840721411682 A 135.80883268881897 135.80883268881897 0 0 1 90.87615733431427,-6.923698053115041 L 90.18145974052254,-4.005240369135368 L 97.80167486256546,-5.789146614930978 L 91.80242079270323,-10.814974965087938 L 91.1077231989115,-7.896517281108265 A 136.80883268881897 136.80883268881897 0 0 0 73.70170694074305,-10.86838270933066"/><text text-anchor="middle" pointer-events="none" font-size="8px" fill="#000000" x="57.51154663428669" y="-8.101621466573846" transform="rotate(180 57.51154663428669 -11.101621466573846)" font-family="sans-serif">KNOWS</text></g><g class="relationship" transform="translate(234.38683606224006 97.2585930018249) rotate(530.0297165339362)"><path class="outline" fill="#A5ABB6" stroke="none" d="M 24.018736134675446,6.953439040707552 L 24.277555179777966,5.987513214418485 A 181.77174820274524 181.77174820274524 0 0 0 53.07040406211245,11.2624419724647 L 52.96998613911511,12.257387318069618 A 182.77174820274524 182.77174820274524 0 0 1 24.018736134675446,6.953439040707552 Z M 85.34187225722494,12.642849765431379 L 85.26517371426715,11.645795437168289 A 181.77174820274524 181.77174820274524 0 0 0 114.17546174031784,7.0579564672180135 L 113.46822450426025,4.142512162839417 L 121.0960379898775,5.893643633813368 L 115.11844472172798,10.94521553972281 L 114.41120748567039,8.029771235344212 A 182.77174820274524 182.77174820274524 0 0 1 85.34187225722494,12.642849765431379"/><text text-anchor="middle" pointer-events="none" font-size="8px" fill="#000000" x="69.1533310619386" y="15.668315076272592" transform="rotate(180 69.1533310619386 12.668315076272592)" font-family="sans-serif">KNOWS</text></g><g class="relationship" transform="translate(91.19117592932837 122.43128067457465) rotate(468.5543603874062)"><path class="outline" fill="#A5ABB6" stroke="none" d="M 25 0.5 L 38.140106867562025 0.5 L 38.140106867562025 -0.5 L 25 -0.5 Z M 79.34005803943703 0.5 L 92.48016490699905 0.5 L 92.48016490699905 3.5 L 99.48016490699905 0 L 92.48016490699905 -3.5 L 92.48016490699905 -0.5 L 79.34005803943703 -0.5 Z"/><text text-anchor="middle" pointer-events="none" font-size="8px" fill="#000000" x="58.740082453499525" y="3" transform="rotate(180 58.740082453499525 0)" font-family="sans-serif">PARTY_TO</text></g><g class="relationship" transform="translate(91.19117592932837 122.43128067457465) rotate(443.9733349187504)"><path class="outline" fill="#A5ABB6" stroke="none" d="M 25 0.5 L 49.45040765809385 0.5 L 49.45040765809385 -0.5 L 25 -0.5 Z M 90.65035882996885 0.5 L 115.1007664880627 0.5 L 115.1007664880627 3.5 L 122.1007664880627 0 L 115.1007664880627 -3.5 L 115.1007664880627 -0.5 L 90.65035882996885 -0.5 Z"/><text text-anchor="middle" pointer-events="none" font-size="8px" fill="#000000" x="70.05038324403135" y="3" font-family="sans-serif">PARTY_TO</text></g><g class="relationship" transform="translate(91.19117592932837 122.43128067457465) rotate(420.15649554891866)"><path class="outline" fill="#A5ABB6" stroke="none" d="M 25 0.5 L 47.371553626004456 0.5 L 47.371553626004456 -0.5 L 25 -0.5 Z M 88.57150479787946 0.5 L 110.94305842388391 0.5 L 110.94305842388391 3.5 L 117.94305842388391 0 L 110.94305842388391 -3.5 L 110.94305842388391 -0.5 L 88.57150479787946 -0.5 Z"/><text text-anchor="middle" pointer-events="none" font-size="8px" fill="#000000" x="67.97152921194196" y="3" font-family="sans-serif">PARTY_TO</text></g><g class="relationship" transform="translate(91.19117592932837 122.43128067457465) rotate(393.7687783158434)"><path class="outline" fill="#A5ABB6" stroke="none" d="M 25 0.5 L 36.11031594505612 0.5 L 36.11031594505612 -0.5 L 25 -0.5 Z M 77.31026711693113 0.5 L 88.42058306198724 0.5 L 88.42058306198724 3.5 L 95.42058306198724 0 L 88.42058306198724 -3.5 L 88.42058306198724 -0.5 L 77.31026711693113 -0.5 Z"/><text text-anchor="middle" pointer-events="none" font-size="8px" fill="#000000" x="56.71029153099362" y="3" font-family="sans-serif">PARTY_TO</text></g><g class="relationship" transform="translate(91.19117592932837 122.43128067457465) rotate(259.6592445965632)"><path class="outline" fill="#A5ABB6" stroke="none" d="M 25 0.5 L 35.842774781126906 0.5 L 35.842774781126906 -0.5 L 25 -0.5 Z M 77.0427259530019 0.5 L 87.88550073412881 0.5 L 87.88550073412881 3.5 L 94.88550073412881 0 L 87.88550073412881 -3.5 L 87.88550073412881 -0.5 L 77.0427259530019 -0.5 Z"/><text text-anchor="middle" pointer-events="none" font-size="8px" fill="#000000" x="56.442750367064406" y="3" transform="rotate(180 56.442750367064406 0)" font-family="sans-serif">PARTY_TO</text></g><g class="relationship" transform="translate(234.38683606224006 97.2585930018249) rotate(397.02203951630275)"><path class="outline" fill="#A5ABB6" stroke="none" d="M 25 0.5 L 47.465393354262105 0.5 L 47.465393354262105 -0.5 L 25 -0.5 Z M 88.6653445261371 0.5 L 111.13073788039921 0.5 L 111.13073788039921 3.5 L 118.13073788039921 0 L 111.13073788039921 -3.5 L 111.13073788039921 -0.5 L 88.6653445261371 -0.5 Z"/><text text-anchor="middle" pointer-events="none" font-size="8px" fill="#000000" x="68.0653689401996" y="3" font-family="sans-serif">PARTY_TO</text></g><g class="relationship" transform="translate(234.38683606224006 97.2585930018249) rotate(423.09750720382226)"><path class="outline" fill="#A5ABB6" stroke="none" d="M 25 0.5 L 48.32586339893925 0.5 L 48.32586339893925 -0.5 L 25 -0.5 Z M 89.52581457081425 0.5 L 112.8516779697535 0.5 L 112.8516779697535 3.5 L 119.8516779697535 0 L 112.8516779697535 -3.5 L 112.8516779697535 -0.5 L 89.52581457081425 -0.5 Z"/><text text-anchor="middle" pointer-events="none" font-size="8px" fill="#000000" x="68.92583898487675" y="3" font-family="sans-serif">PARTY_TO</text></g><g class="relationship" transform="translate(234.38683606224006 97.2585930018249) rotate(372.18855534675964)"><path class="outline" fill="#A5ABB6" stroke="none" d="M 25 0.5 L 46.81933810043547 0.5 L 46.81933810043547 -0.5 L 25 -0.5 Z M 88.01928927231047 0.5 L 109.83862737274595 0.5 L 109.83862737274595 3.5 L 116.83862737274595 0 L 109.83862737274595 -3.5 L 109.83862737274595 -0.5 L 88.01928927231047 -0.5 Z"/><text text-anchor="middle" pointer-events="none" font-size="8px" fill="#000000" x="67.41931368637297" y="3" font-family="sans-serif">PARTY_TO</text></g><g class="relationship" transform="translate(234.38683606224006 97.2585930018249) rotate(346.87056883686466)"><path class="outline" fill="#A5ABB6" stroke="none" d="M 25 0.5 L 46.79352285941253 0.5 L 46.79352285941253 -0.5 L 25 -0.5 Z M 87.99347403128753 0.5 L 109.78699689070007 0.5 L 109.78699689070007 3.5 L 116.78699689070007 0 L 109.78699689070007 -3.5 L 109.78699689070007 -0.5 L 87.99347403128753 -0.5 Z"/><text text-anchor="middle" pointer-events="none" font-size="8px" fill="#000000" x="67.39349844535003" y="3" font-family="sans-serif">PARTY_TO</text></g><g class="relationship" transform="translate(234.38683606224006 97.2585930018249) rotate(320.4676997011166)"><path class="outline" fill="#A5ABB6" stroke="none" d="M 25 0.5 L 44.99806321821643 0.5 L 44.99806321821643 -0.5 L 25 -0.5 Z M 86.19801439009143 0.5 L 106.19607760830786 0.5 L 106.19607760830786 3.5 L 113.19607760830786 0 L 106.19607760830786 -3.5 L 106.19607760830786 -0.5 L 86.19801439009143 -0.5 Z"/><text text-anchor="middle" pointer-events="none" font-size="8px" fill="#000000" x="65.59803880415393" y="3" font-family="sans-serif">PARTY_TO</text></g><g class="relationship" transform="translate(147.70428052936825 11.235599299578917) rotate(327.28017597417323)"><path class="outline" fill="#A5ABB6" stroke="none" d="M 25 0.5 L 43.97697654938381 0.5 L 43.97697654938381 -0.5 L 25 -0.5 Z M 85.1769277212588 0.5 L 104.15390427064261 0.5 L 104.15390427064261 3.5 L 111.15390427064261 0 L 104.15390427064261 -3.5 L 104.15390427064261 -0.5 L 85.1769277212588 -0.5 Z"/><text text-anchor="middle" pointer-events="none" font-size="8px" fill="#000000" x="64.5769521353213" y="3" font-family="sans-serif">PARTY_TO</text></g><g class="relationship" transform="translate(147.70428052936825 11.235599299578917) rotate(301.7128437163354)"><path class="outline" fill="#A5ABB6" stroke="none" d="M 25 0.5 L 48.41914273587027 0.5 L 48.41914273587027 -0.5 L 25 -0.5 Z M 89.61909390774527 0.5 L 113.03823664361553 0.5 L 113.03823664361553 3.5 L 120.03823664361553 0 L 113.03823664361553 -3.5 L 113.03823664361553 -0.5 L 89.61909390774527 -0.5 Z"/><text text-anchor="middle" pointer-events="none" font-size="8px" fill="#000000" x="69.01911832180777" y="3" font-family="sans-serif">PARTY_TO</text></g><g class="relationship" transform="translate(147.70428052936825 11.235599299578917) rotate(276.9814130663041)"><path class="outline" fill="#A5ABB6" stroke="none" d="M 25 0.5 L 48.232517823466566 0.5 L 48.232517823466566 -0.5 L 25 -0.5 Z M 89.43246899534157 0.5 L 112.66498681880813 0.5 L 112.66498681880813 3.5 L 119.66498681880813 0 L 112.66498681880813 -3.5 L 112.66498681880813 -0.5 L 89.43246899534157 -0.5 Z"/><text text-anchor="middle" pointer-events="none" font-size="8px" fill="#000000" x="68.83249340940407" y="3" font-family="sans-serif">PARTY_TO</text></g><g class="relationship" transform="translate(147.70428052936825 11.235599299578917) rotate(252.3787784811601)"><path class="outline" fill="#A5ABB6" stroke="none" d="M 25 0.5 L 47.69630963834048 0.5 L 47.69630963834048 -0.5 L 25 -0.5 Z M 88.89626081021548 0.5 L 111.59257044855596 0.5 L 111.59257044855596 3.5 L 118.59257044855596 0 L 111.59257044855596 -3.5 L 111.59257044855596 -0.5 L 88.89626081021548 -0.5 Z"/><text text-anchor="middle" pointer-events="none" font-size="8px" fill="#000000" x="68.29628522427798" y="3" transform="rotate(180 68.29628522427798 0)" font-family="sans-serif">PARTY_TO</text></g><g class="relationship" transform="translate(147.70428052936825 11.235599299578917) rotate(524.3245871837248)"><path class="outline" fill="#A5ABB6" stroke="none" d="M 24.018736134675446,-6.953439040707552 L 24.277555179777966,-5.987513214418485 A 179.03439521757875 179.03439521757875 0 0 1 52.37641358404495,-11.156532284480306 L 52.274541243904444,-12.151329764530544 A 180.03439521757875 180.03439521757875 0 0 0 24.018736134675446,-6.953439040707552 Z M 84.64643063617419,-12.540347313704842 L 84.56849350516809,-11.543389037942745 A 179.03439521757875 179.03439521757875 0 0 1 112.783453195673,-7.05110104262337 L 112.07685622997946,-4.135501493976015 L 119.70428497013243,-5.888308047446299 L 113.72558248326442,-10.93856710748651 L 113.01898551757087,-8.022967558839154 A 180.03439521757875 180.03439521757875 0 0 0 84.64643063617419,-12.540347313704842"/><text text-anchor="middle" pointer-events="none" font-size="8px" fill="#000000" x="68.45773207127614" y="-9.575000270230987" transform="rotate(180 68.45773207127614 -12.575000270230987)" font-family="sans-serif">KNOWS</text></g><g class="relationship" transform="translate(9.059047612728076 50.142827144040645) rotate(401.3525656722728)"><path class="outline" fill="#A5ABB6" stroke="none" d="M 24.018736134675446,6.953439040707552 L 24.277555179777966,5.987513214418485 A 110.52440202911303 110.52440202911303 0 0 0 35.14574718914645,8.320935023340525 L 34.985261107713846,9.307973126792675 A 111.52440202911303 111.52440202911303 0 0 1 24.018736134675446,6.953439040707552 Z M 67.3402905061424,9.812545629066264 L 67.21066044429378,8.82098320185095 A 110.52440202911303 110.52440202911303 0 0 0 78.14632857812865,6.827589774180027 L 77.46060797505329,3.907009822437911 L 85.0753018993728,5.7143383589612355 L 79.06062271556245,10.721696376502848 L 78.37490211248709,7.801116424760733 A 111.52440202911303 111.52440202911303 0 0 1 67.3402905061424,9.812545629066264"/><text text-anchor="middle" pointer-events="none" font-size="8px" fill="#000000" x="51.15217467256593" y="13.240042783485137" font-family="sans-serif">KNOWS</text></g><g class="relationship" transform="translate(9.059047612728076 50.142827144040645) rotate(253.60250631069425)"><path class="outline" fill="#A5ABB6" stroke="none" d="M 25 0.5 L 49.17689474932294 0.5 L 49.17689474932294 -0.5 L 25 -0.5 Z M 90.37684592119794 0.5 L 114.55374067052088 0.5 L 114.55374067052088 3.5 L 121.55374067052088 0 L 114.55374067052088 -3.5 L 114.55374067052088 -0.5 L 90.37684592119794 -0.5 Z"/><text text-anchor="middle" pointer-events="none" font-size="8px" fill="#000000" x="69.77687033526044" y="3" transform="rotate(180 69.77687033526044 0)" font-family="sans-serif">PARTY_TO</text></g><g class="relationship" transform="translate(9.059047612728076 50.142827144040645) rotate(227.3629125437343)"><path class="outline" fill="#A5ABB6" stroke="none" d="M 25 0.5 L 48.74007174873218 0.5 L 48.74007174873218 -0.5 L 25 -0.5 Z M 89.94002292060718 0.5 L 113.68009466933935 0.5 L 113.68009466933935 3.5 L 120.68009466933935 0 L 113.68009466933935 -3.5 L 113.68009466933935 -0.5 L 89.94002292060718 -0.5 Z"/><text text-anchor="middle" pointer-events="none" font-size="8px" fill="#000000" x="69.34004733466968" y="3" transform="rotate(180 69.34004733466968 0)" font-family="sans-serif">PARTY_TO</text></g><g class="relationship" transform="translate(9.059047612728076 50.142827144040645) rotate(199.68141088289656)"><path class="outline" fill="#A5ABB6" stroke="none" d="M 25 0.5 L 44.57234854592359 0.5 L 44.57234854592359 -0.5 L 25 -0.5 Z M 85.77229971779859 0.5 L 105.34464826372218 0.5 L 105.34464826372218 3.5 L 112.34464826372218 0 L 105.34464826372218 -3.5 L 105.34464826372218 -0.5 L 85.77229971779859 -0.5 Z"/><text text-anchor="middle" pointer-events="none" font-size="8px" fill="#000000" x="65.17232413186109" y="3" transform="rotate(180 65.17232413186109 0)" font-family="sans-serif">PARTY_TO</text></g><g class="relationship" transform="translate(91.19117592932837 122.43128067457465) rotate(181.77981558525124)"><path class="outline" fill="#A5ABB6" stroke="none" d="M 24.018736134675446,-6.953439040707552 L 24.277555179777966,-5.987513214418485 A 210.7913879113124 210.7913879113124 0 0 1 60.44425584017763,-12.366316159080185 L 60.357012593397656,-13.36250319768854 A 211.7913879113124 211.7913879113124 0 0 0 24.018736134675446,-6.953439040707552 Z M 92.72798122431563,-13.713851358143216 L 92.6623808217378,-12.71600538446711 A 210.7913879113124 210.7913879113124 0 0 1 128.95901349256985,-7.123705283035949 L 128.24563568703766,-4.20975742719259 L 135.87712145712638,-5.944815046101438 L 129.91018389994608,-11.008969090827092 L 129.1968060944139,-8.095021234983735 A 211.7913879113124 211.7913879113124 0 0 0 92.72798122431563,-13.713851358143216"/><text text-anchor="middle" pointer-events="none" font-size="8px" fill="#000000" x="76.54120059769026" y="-10.657611084110556" transform="rotate(180 76.54120059769026 -13.657611084110556)" font-family="sans-serif">KNOWS</text></g><g class="relationship" transform="translate(-18.695817365226425 189.17839906516969) rotate(235.01295038800822)"><path class="outline" fill="#A5ABB6" stroke="none" d="M 24.018736134675446,6.953439040707552 L 24.277555179777966,5.987513214418485 A 66.51166201721584 66.51166201721584 0 0 0 24.366130910656327,6.011181590031953 L 24.108643597887532,6.977463269338301 A 67.51166201721584 67.51166201721584 0 0 1 24.018736134675446,6.953439040707552 Z M 56.35696548672581,7.597010099125782 L 56.13678241003486,6.621551533763366 A 66.51166201721584 66.51166201721584 0 0 0 56.22620186642718,6.601302757916097 L 55.561619383221846,3.675840380271048 L 63.163044494799855,5.538187360044484 L 57.1123118440343,10.501919261442831 L 56.447729360828966,7.576456883797781 A 67.51166201721584 67.51166201721584 0 0 1 56.35696548672581,7.597010099125782"/><text text-anchor="middle" pointer-events="none" font-size="8px" fill="#000000" x="40.204865980325394" y="11.741479844821754" transform="rotate(180 40.204865980325394 8.741479844821754)" font-family="sans-serif">KNOWS</text></g><g class="relationship" transform="translate(91.19117592932837 122.43128067457465) rotate(508.7248347050182)"><path class="outline" fill="#A5ABB6" stroke="none" d="M 24.018736134675446,-6.953439040707552 L 24.277555179777966,-5.987513214418485 A 148.58229845707456 148.58229845707456 0 0 1 44.67942979856231,-9.949390421764974 L 44.55792101740539,-10.94198077840852 A 149.58229845707456 149.58229845707456 0 0 0 24.018736134675446,-6.953439040707552 Z M 76.92790191032543,-11.3753288106588 L 76.83300820785419,-10.379841399773426 A 148.58229845707456 148.58229845707456 0 0 1 97.3336302593922,-6.9655399387593615 L 96.63502456746693,-4.04801528809921 L 104.25762205958675,-5.821714099377125 L 98.26510451529253,-10.85557280630623 L 97.56649882336727,-7.938048155646078 A 149.58229845707456 149.58229845707456 0 0 0 76.92790191032543,-11.3753288106588"/><text text-anchor="middle" pointer-events="none" font-size="8px" fill="#000000" x="60.7378467652845" y="-8.536974722378233" transform="rotate(180 60.7378467652845 -11.536974722378233)" font-family="sans-serif">KNOWS</text></g><g class="relationship" transform="translate(-68.89157734571333 117.45692722642336) rotate(196.4875218992787)"><path class="outline" fill="#A5ABB6" stroke="none" d="M 25 0.5 L 46.71120586876525 0.5 L 46.71120586876525 -0.5 L 25 -0.5 Z M 87.91115704064025 0.5 L 109.6223629094055 0.5 L 109.6223629094055 3.5 L 116.6223629094055 0 L 109.6223629094055 -3.5 L 109.6223629094055 -0.5 L 87.91115704064025 -0.5 Z"/><text text-anchor="middle" pointer-events="none" font-size="8px" fill="#000000" x="67.31118145470275" y="3" transform="rotate(180 67.31118145470275 0)" font-family="sans-serif">PARTY_TO</text></g><g class="relationship" transform="translate(-68.89157734571333 117.45692722642336) rotate(522.0686906606079)"><path class="outline" fill="#A5ABB6" stroke="none" d="M 25 0.5 L 45.69119862387379 0.5 L 45.69119862387379 -0.5 L 25 -0.5 Z M 86.89114979574879 0.5 L 107.58234841962258 0.5 L 107.58234841962258 3.5 L 114.58234841962258 0 L 107.58234841962258 -3.5 L 107.58234841962258 -0.5 L 86.89114979574879 -0.5 Z"/><text text-anchor="middle" pointer-events="none" font-size="8px" fill="#000000" x="66.29117420981129" y="3" transform="rotate(180 66.29117420981129 0)" font-family="sans-serif">PARTY_TO</text></g><g class="relationship" transform="translate(-18.695817365226425 189.17839906516969) rotate(509.7946185241676)"><path class="outline" fill="#A5ABB6" stroke="none" d="M 25 0.5 L 44.67392658154981 0.5 L 44.67392658154981 -0.5 L 25 -0.5 Z M 85.87387775342481 0.5 L 105.54780433497461 0.5 L 105.54780433497461 3.5 L 112.54780433497461 0 L 105.54780433497461 -3.5 L 105.54780433497461 -0.5 L 85.87387775342481 -0.5 Z"/><text text-anchor="middle" pointer-events="none" font-size="8px" fill="#000000" x="65.27390216748731" y="3" transform="rotate(180 65.27390216748731 0)" font-family="sans-serif">PARTY_TO</text></g><g class="relationship" transform="translate(-18.695817365226425 189.17839906516969) rotate(478.89933531439)"><path class="outline" fill="#A5ABB6" stroke="none" d="M 25 0.5 L 47.35837514891911 0.5 L 47.35837514891911 -0.5 L 25 -0.5 Z M 88.55832632079411 0.5 L 110.91670146971322 0.5 L 110.91670146971322 3.5 L 117.91670146971322 0 L 110.91670146971322 -3.5 L 110.91670146971322 -0.5 L 88.55832632079411 -0.5 Z"/><text text-anchor="middle" pointer-events="none" font-size="8px" fill="#000000" x="67.95835073485661" y="3" transform="rotate(180 67.95835073485661 0)" font-family="sans-serif">PARTY_TO</text></g><g class="relationship" transform="translate(-18.695817365226425 189.17839906516969) rotate(449.7884345045502)"><path class="outline" fill="#A5ABB6" stroke="none" d="M 25 0.5 L 48.796451141251055 0.5 L 48.796451141251055 -0.5 L 25 -0.5 Z M 89.99640231312605 0.5 L 113.79285345437711 0.5 L 113.79285345437711 3.5 L 120.79285345437711 0 L 113.79285345437711 -3.5 L 113.79285345437711 -0.5 L 89.99640231312605 -0.5 Z"/><text text-anchor="middle" pointer-events="none" font-size="8px" fill="#000000" x="69.39642672718855" y="3" font-family="sans-serif">PARTY_TO</text></g><g class="relationship" transform="translate(9.059047612728076 50.142827144040645) rotate(461.2892274330856)"><path class="outline" fill="#A5ABB6" stroke="none" d="M 24.018736134675446,6.953439040707552 L 24.277555179777966,5.987513214418485 A 174.65760173550805 174.65760173550805 0 0 0 51.267425812630776,10.986427326490144 L 51.163136947518495,11.980974375459454 A 175.65760173550805 175.65760173550805 0 0 1 24.018736134675446,6.953439040707552 Z M 83.53498817124141,12.375811173125555 L 83.45498753846753,11.379016360360254 A 174.65760173550805 174.65760173550805 0 0 0 110.5587536282136,7.039877870944739 L 109.85320486871169,4.124024488491273 L 117.480002980522,5.87957299584921 L 111.49948530754946,10.927682380882695 L 110.79393654804755,8.011828998429229 A 175.65760173550805 175.65760173550805 0 0 1 83.53498817124141,12.375811173125555"/><text text-anchor="middle" pointer-events="none" font-size="8px" fill="#000000" x="67.34604496012473" y="15.425799486940349" transform="rotate(180 67.34604496012473 12.425799486940349)" font-family="sans-serif">KNOWS</text></g><g class="relationship" transform="translate(91.19117592932837 122.43128067457465) rotate(181.77981558525124)"><path class="outline" fill="#A5ABB6" stroke="none" d="M 24.018736134675446,6.953439040707552 L 24.277555179777966,5.987513214418485 A 210.7913879113124 210.7913879113124 0 0 0 52.84529085816785,11.561784618426799 L 52.7219979176252,12.554154937819902 A 211.7913879113124 211.7913879113124 0 0 1 24.018736134675446,6.953439040707552 Z M 100.37874246593468,13.071411919568504 L 100.27701802017894,12.07659930548698 A 210.7913879113124 210.7913879113124 0 0 0 128.95901349256985,7.123705283035949 L 128.24563568703766,4.20975742719259 L 135.87712145712638,5.944815046101438 L 129.91018389994608,11.008969090827092 L 129.1968060944139,8.095021234983735 A 211.7913879113124 211.7913879113124 0 0 1 100.37874246593468,13.071411919568504"/><text text-anchor="middle" pointer-events="none" font-size="8px" fill="#000000" x="76.54120059769036" y="16.657611084110556" transform="rotate(180 76.54120059769036 13.657611084110556)" font-family="sans-serif">FAMILY_REL</text></g><g class="relationship" transform="translate(91.19117592932837 122.43128067457465) rotate(508.7248347050182)"><path class="outline" fill="#A5ABB6" stroke="none" d="M 24.018736134675446,6.953439040707552 L 24.277555179777966,5.987513214418485 A 148.58229845707456 148.58229845707456 0 0 0 37.12886665827581,8.82753297280604 L 36.956540496995586,9.812572918259235 A 149.58229845707456 149.58229845707456 0 0 1 24.018736134675446,6.953439040707552 Z M 84.55679238760182,10.449813810048681 L 84.41089739315976,9.460513728881836 A 148.58229845707456 148.58229845707456 0 0 0 97.3336302593922,6.9655399387593615 L 96.63502456746693,4.04801528809921 L 104.25762205958675,5.821714099377125 L 98.26510451529253,10.85557280630623 L 97.56649882336727,7.938048155646078 A 149.58229845707456 149.58229845707456 0 0 1 84.55679238760182,10.449813810048681"/><text text-anchor="middle" pointer-events="none" font-size="8px" fill="#000000" x="60.7378467652845" y="14.536974722378233" transform="rotate(180 60.7378467652845 11.536974722378233)" font-family="sans-serif">FAMILY_REL</text></g><g class="relationship" transform="translate(147.70428052936825 11.235599299578917) rotate(476.9410939623126)"><path class="outline" fill="#A5ABB6" stroke="none" d="M 24.018736134675446,-6.953439040707552 L 24.277555179777966,-5.987513214418485 A 140.98383217402142 140.98383217402142 0 0 1 36.09331207688802,-8.61557530361921 L 35.91830233612137,-9.600142005593625 A 141.98383217402142 141.98383217402142 0 0 0 24.018736134675446,-6.953439040707552 Z M 81.75456670770029,-10.231677010572696 L 81.60674909784719,-9.242662372552957 A 140.98383217402142 140.98383217402142 0 0 1 93.49042622919613,-6.941132612990456 L 92.7941002095391,-4.023063032882986 L 100.41530958605641,-5.802716830475286 L 94.41886092207218,-10.83189205313375 L 93.72253490241515,-7.913822473026279 A 141.98383217402142 141.98383217402142 0 0 0 81.75456670770029,-10.231677010572696"/><text text-anchor="middle" pointer-events="none" font-size="8px" fill="#000000" x="58.817667642001936" y="-8.277993418162225" transform="rotate(180 58.817667642001936 -11.277993418162225)" font-family="sans-serif">KNOWS_LW</text></g><g class="relationship" transform="translate(147.70428052936825 11.235599299578917) rotate(524.3245871837248)"><path class="outline" fill="#A5ABB6" stroke="none" d="M 24.018736134675446,6.953439040707552 L 24.277555179777966,5.987513214418485 A 179.03439521757875 179.03439521757875 0 0 0 44.796409240762145,10.216519228036788 L 44.65219864302556,11.206066247384769 A 180.03439521757875 180.03439521757875 0 0 1 24.018736134675446,6.953439040707552 Z M 92.28928749344767,11.77852784608325 L 92.16889815852778,10.785801092118419 A 179.03439521757875 179.03439521757875 0 0 0 112.783453195673,7.05110104262337 L 112.07685622997946,4.135501493976015 L 119.70428497013243,5.888308047446299 L 113.72558248326442,10.93856710748651 L 113.01898551757087,8.022967558839154 A 180.03439521757875 180.03439521757875 0 0 1 92.28928749344767,11.77852784608325"/><text text-anchor="middle" pointer-events="none" font-size="8px" fill="#000000" x="68.45773207127613" y="15.575000270230987" transform="rotate(180 68.45773207127613 12.575000270230987)" font-family="sans-serif">FAMILY_REL</text></g><g class="relationship" transform="translate(234.38683606224006 97.2585930018249) rotate(224.78118870139252)"><path class="outline" fill="#A5ABB6" stroke="none" d="M 24.018736134675446,6.953439040707552 L 24.277555179777966,5.987513214418485 A 135.80883268881897 135.80883268881897 0 0 0 34.79970365595234,8.363404149716303 L 34.6183622554761,9.34682435312547 A 136.80883268881897 136.80883268881897 0 0 1 24.018736134675446,6.953439040707552 Z M 80.44501034432935,9.991015248446587 L 80.2913832549195,9.002886351288197 A 135.80883268881897 135.80883268881897 0 0 0 90.87615733431427,6.923698053115041 L 90.18145974052254,4.005240369135368 L 97.80167486256546,5.789146614930978 L 91.80242079270323,10.814974965087938 L 91.1077231989115,7.896517281108265 A 136.80883268881897 136.80883268881897 0 0 1 80.44501034432935,9.991015248446587"/><text text-anchor="middle" pointer-events="none" font-size="8px" fill="#000000" x="57.511546634286724" y="14.101621466573846" transform="rotate(180 57.511546634286724 11.101621466573846)" font-family="sans-serif">KNOWS_LW</text></g><g class="relationship" transform="translate(234.38683606224006 97.2585930018249) rotate(530.0297165339362)"><path class="outline" fill="#A5ABB6" stroke="none" d="M 24.018736134675446,-6.953439040707552 L 24.277555179777966,-5.987513214418485 A 181.77174820274524 181.77174820274524 0 0 1 46.36132213761247,-10.459079889101332 L 46.22399483793346,-11.449605614543572 A 182.77174820274524 182.77174820274524 0 0 0 24.018736134675446,-6.953439040707552 Z M 92.10518518365473,-11.995927687159508 L 91.99148249211854,-11.002412866969365 A 181.77174820274524 181.77174820274524 0 0 1 114.17546174031784,-7.0579564672180135 L 113.46822450426025,-4.142512162839417 L 121.0960379898775,-5.893643633813368 L 115.11844472172798,-10.94521553972281 L 114.41120748567039,-8.029771235344212 A 182.77174820274524 182.77174820274524 0 0 0 92.10518518365473,-11.995927687159508"/><text text-anchor="middle" pointer-events="none" font-size="8px" fill="#000000" x="69.15333106193853" y="-9.668315076272592" transform="rotate(180 69.15333106193853 -12.668315076272592)" font-family="sans-serif">KNOWS_LW</text></g><g class="relationship" transform="translate(9.059047612728076 50.142827144040645) rotate(461.2892274330856)"><path class="outline" fill="#A5ABB6" stroke="none" d="M 24.018736134675446,-6.953439040707552 L 24.277555179777966,-5.987513214418485 A 174.65760173550805 174.65760173550805 0 0 1 45.30533841101746,-10.257390573267458 L 45.16691368612942,-11.24776353106651 A 175.65760173550805 175.65760173550805 0 0 0 24.018736134675446,-6.953439040707552 Z M 89.54731080806451,-11.789067571965262 L 89.43308266348687,-10.795613027969239 A 174.65760173550805 174.65760173550805 0 0 1 110.5587536282136,-7.039877870944739 L 109.85320486871169,-4.124024488491273 L 117.480002980522,-5.87957299584921 L 111.49948530754946,-10.927682380882695 L 110.79393654804755,-8.011828998429229 A 175.65760173550805 175.65760173550805 0 0 0 89.54731080806451,-11.789067571965262"/><text text-anchor="middle" pointer-events="none" font-size="8px" fill="#000000" x="67.3460449601247" y="-9.425799486940349" transform="rotate(180 67.3460449601247 -12.425799486940349)" font-family="sans-serif">KNOWS_SN</text></g><g class="relationship" transform="translate(9.059047612728076 50.142827144040645) rotate(401.3525656722728)"><path class="outline" fill="#A5ABB6" stroke="none" d="M 24.018736134675446,-6.953439040707552 L 24.277555179777966,-5.987513214418485 A 110.52440202911303 110.52440202911303 0 0 1 29.25562696312054,-7.198453708283324 L 29.04184839498012,-8.175335852558575 A 111.52440202911303 111.52440202911303 0 0 0 24.018736134675446,-6.953439040707552 Z M 73.31613112037908,-8.865787570157963 L 73.13291780226092,-7.882714388719194 A 110.52440202911303 110.52440202911303 0 0 1 78.14632857812865,-6.827589774180027 L 77.46060797505329,-3.907009822437911 L 85.0753018993728,-5.7143383589612355 L 79.06062271556245,-10.721696376502848 L 78.37490211248709,-7.801116424760733 A 111.52440202911303 111.52440202911303 0 0 0 73.31613112037908,-8.865787570157963"/><text text-anchor="middle" pointer-events="none" font-size="8px" fill="#000000" x="51.152174672565906" y="-7.240042783485137" font-family="sans-serif">KNOWS_SN</text></g><g class="relationship" transform="translate(-18.695817365226425 189.17839906516969) rotate(235.01295038800822)"><path class="outline" fill="#A5ABB6" stroke="none" d="M 24.018736134675446,-6.953439040707552 L 24.277555179777966,-5.987513214418485 A 66.51166201721584 66.51166201721584 0 0 1 25.327074034562788,-6.259582330456695 L 25.08403446065305,-7.229598704294673 A 67.51166201721584 67.51166201721584 0 0 0 24.018736134675446,-6.953439040707552 Z M 55.37261002171719,-7.811495369563673 L 55.167007469865894,-6.832859793533331 A 66.51166201721584 66.51166201721584 0 0 1 56.22620186642718,-6.601302757916097 L 55.561619383221846,-3.675840380271048 L 63.163044494799855,-5.538187360044484 L 57.1123118440343,-10.501919261442831 L 56.447729360828966,-7.576456883797781 A 67.51166201721584 67.51166201721584 0 0 0 55.37261002171719,-7.811495369563673"/><text text-anchor="middle" pointer-events="none" font-size="8px" fill="#000000" x="40.20486598032539" y="-5.741479844821754" transform="rotate(180 40.20486598032539 -8.741479844821754)" font-family="sans-serif">FAMI…</text></g></g><g class="layer nodes"><g class="node" transform="translate(51.58105812250683,240.44123797735227)"><circle class="outline" cx="0" cy="0" r="25" fill="#8DCC93" stroke="#5db665" stroke-width="2px"/><text text-anchor="middle" pointer-events="none" font-family="sans-serif" dy="1.5625" font-size="25" fill="#2A2C34"/><text text-anchor="middle" pointer-events="none" x="0" y="5" font-size="10px" fill="#2A2C34" font-family="sans-serif"> </text></g><g class="node" transform="translate(91.19117592932837,122.43128067457465)"><circle class="outline" cx="0" cy="0" r="25" fill="#DA7194" stroke="#cc3c6c" stroke-width="2px"/><text text-anchor="middle" pointer-events="none" font-family="sans-serif" dy="1.5625" font-size="25" fill="#FFFFFF"/><text text-anchor="middle" pointer-events="none" x="0" y="5" font-size="10px" fill="#FFFFFF" font-family="sans-serif"> Phillip</text></g><g class="node" transform="translate(147.70428052936825,11.235599299578917)"><circle class="outline" cx="0" cy="0" r="25" fill="#DA7194" stroke="#cc3c6c" stroke-width="2px"/><text text-anchor="middle" pointer-events="none" font-family="sans-serif" dy="1.5625" font-size="25" fill="#FFFFFF"/><text text-anchor="middle" pointer-events="none" x="0" y="5" font-size="10px" fill="#FFFFFF" font-family="sans-serif"> Brian</text></g><g class="node" transform="translate(234.38683606224006,97.2585930018249)"><circle class="outline" cx="0" cy="0" r="25" fill="#DA7194" stroke="#cc3c6c" stroke-width="2px"/><text text-anchor="middle" pointer-events="none" font-family="sans-serif" dy="1.5625" font-size="25" fill="#FFFFFF"/><text text-anchor="middle" pointer-events="none" x="0" y="5" font-size="10px" fill="#FFFFFF" font-family="sans-serif"> Jessica</text></g><g class="node" transform="translate(106.63547603373681,268.7190419386685)"><circle class="outline" cx="0" cy="0" r="25" fill="#8DCC93" stroke="#5db665" stroke-width="2px"/><text text-anchor="middle" pointer-events="none" font-family="sans-serif" dy="1.5625" font-size="25" fill="#2A2C34"/><text text-anchor="middle" pointer-events="none" x="0" y="5" font-size="10px" fill="#2A2C34" font-family="sans-serif"> </text></g><g class="node" transform="translate(162.3243172489508,246.41835321674137)"><circle class="outline" cx="0" cy="0" r="25" fill="#8DCC93" stroke="#5db665" stroke-width="2px"/><text text-anchor="middle" pointer-events="none" font-family="sans-serif" dy="1.5625" font-size="25" fill="#2A2C34"/><text text-anchor="middle" pointer-events="none" x="0" y="5" font-size="10px" fill="#2A2C34" font-family="sans-serif"> </text></g><g class="node" transform="translate(191.2952993424206,189.36618413073396)"><circle class="outline" cx="0" cy="0" r="25" fill="#8DCC93" stroke="#5db665" stroke-width="2px"/><text text-anchor="middle" pointer-events="none" font-family="sans-serif" dy="1.5625" font-size="25" fill="#2A2C34"/><text text-anchor="middle" pointer-events="none" x="0" y="5" font-size="10px" fill="#2A2C34" font-family="sans-serif"> </text></g><g class="node" transform="translate(69.67148602266491,4.493007698437484)"><circle class="outline" cx="0" cy="0" r="25" fill="#8DCC93" stroke="#5db665" stroke-width="2px"/><text text-anchor="middle" pointer-events="none" font-family="sans-serif" dy="1.5625" font-size="25" fill="#2A2C34"/><text text-anchor="middle" pointer-events="none" x="0" y="5" font-size="10px" fill="#2A2C34" font-family="sans-serif"> </text></g><g class="node" transform="translate(348.66298334277485,183.4407854136281)"><circle class="outline" cx="0" cy="0" r="25" fill="#8DCC93" stroke="#5db665" stroke-width="2px"/><text text-anchor="middle" pointer-events="none" font-family="sans-serif" dy="1.5625" font-size="25" fill="#2A2C34"/><text text-anchor="middle" pointer-events="none" x="0" y="5" font-size="10px" fill="#2A2C34" font-family="sans-serif"> </text></g><g class="node" transform="translate(299.92838304376585,226.43411014776714)"><circle class="outline" cx="0" cy="0" r="25" fill="#8DCC93" stroke="#5db665" stroke-width="2px"/><text text-anchor="middle" pointer-events="none" font-family="sans-serif" dy="1.5625" font-size="25" fill="#2A2C34"/><text text-anchor="middle" pointer-events="none" x="0" y="5" font-size="10px" fill="#2A2C34" font-family="sans-serif"> </text></g><g class="node" transform="translate(373.0281493311642,127.20491948860322)"><circle class="outline" cx="0" cy="0" r="25" fill="#8DCC93" stroke="#5db665" stroke-width="2px"/><text text-anchor="middle" pointer-events="none" font-family="sans-serif" dy="1.5625" font-size="25" fill="#2A2C34"/><text text-anchor="middle" pointer-events="none" x="0" y="5" font-size="10px" fill="#2A2C34" font-family="sans-serif"> </text></g><g class="node" transform="translate(372.46743785963645,65.05145257377318)"><circle class="outline" cx="0" cy="0" r="25" fill="#8DCC93" stroke="#5db665" stroke-width="2px"/><text text-anchor="middle" pointer-events="none" font-family="sans-serif" dy="1.5625" font-size="25" fill="#2A2C34"/><text text-anchor="middle" pointer-events="none" x="0" y="5" font-size="10px" fill="#2A2C34" font-family="sans-serif"> </text></g><g class="node" transform="translate(340.9727546255936,9.2949764872249)"><circle class="outline" cx="0" cy="0" r="25" fill="#8DCC93" stroke="#5db665" stroke-width="2px"/><text text-anchor="middle" pointer-events="none" font-family="sans-serif" dy="1.5625" font-size="25" fill="#2A2C34"/><text text-anchor="middle" pointer-events="none" x="0" y="5" font-size="10px" fill="#2A2C34" font-family="sans-serif"> </text></g><g class="node" transform="translate(262.25380220573,-62.35986748918495)"><circle class="outline" cx="0" cy="0" r="25" fill="#8DCC93" stroke="#5db665" stroke-width="2px"/><text text-anchor="middle" pointer-events="none" font-family="sans-serif" dy="1.5625" font-size="25" fill="#2A2C34"/><text text-anchor="middle" pointer-events="none" x="0" y="5" font-size="10px" fill="#2A2C34" font-family="sans-serif"> </text></g><g class="node" transform="translate(223.94542230212465,-112.14745622214124)"><circle class="outline" cx="0" cy="0" r="25" fill="#8DCC93" stroke="#5db665" stroke-width="2px"/><text text-anchor="middle" pointer-events="none" font-family="sans-serif" dy="1.5625" font-size="25" fill="#2A2C34"/><text text-anchor="middle" pointer-events="none" x="0" y="5" font-size="10px" fill="#2A2C34" font-family="sans-serif"> </text></g><g class="node" transform="translate(165.28792658398896,-132.35678839110528)"><circle class="outline" cx="0" cy="0" r="25" fill="#8DCC93" stroke="#5db665" stroke-width="2px"/><text text-anchor="middle" pointer-events="none" font-family="sans-serif" dy="1.5625" font-size="25" fill="#2A2C34"/><text text-anchor="middle" pointer-events="none" x="0" y="5" font-size="10px" fill="#2A2C34" font-family="sans-serif"> </text></g><g class="node" transform="translate(104.23551861643962,-125.61940801027669)"><circle class="outline" cx="0" cy="0" r="25" fill="#8DCC93" stroke="#5db665" stroke-width="2px"/><text text-anchor="middle" pointer-events="none" font-family="sans-serif" dy="1.5625" font-size="25" fill="#2A2C34"/><text text-anchor="middle" pointer-events="none" x="0" y="5" font-size="10px" fill="#2A2C34" font-family="sans-serif"> </text></g><g class="node" transform="translate(-32.31299906747232,-90.45003418971842)"><circle class="outline" cx="0" cy="0" r="25" fill="#8DCC93" stroke="#5db665" stroke-width="2px"/><text text-anchor="middle" pointer-events="none" font-family="sans-serif" dy="1.5625" font-size="25" fill="#2A2C34"/><text text-anchor="middle" pointer-events="none" x="0" y="5" font-size="10px" fill="#2A2C34" font-family="sans-serif"> </text></g><g class="node" transform="translate(9.059047612728076,50.142827144040645)"><circle class="outline" cx="0" cy="0" r="25" fill="#DA7194" stroke="#cc3c6c" stroke-width="2px"/><text text-anchor="middle" pointer-events="none" font-family="sans-serif" dy="1.5625" font-size="25" fill="#FFFFFF"/><text text-anchor="middle" pointer-events="none" x="0" y="5" font-size="10px" fill="#FFFFFF" font-family="sans-serif"> Alan</text></g><g class="node" transform="translate(-89.61769989364636,-57.02801536655504)"><circle class="outline" cx="0" cy="0" r="25" fill="#8DCC93" stroke="#5db665" stroke-width="2px"/><text text-anchor="middle" pointer-events="none" font-family="sans-serif" dy="1.5625" font-size="25" fill="#2A2C34"/><text text-anchor="middle" pointer-events="none" x="0" y="5" font-size="10px" fill="#2A2C34" font-family="sans-serif"> </text></g><g class="node" transform="translate(-120.2619074671233,3.8865520678887213)"><circle class="outline" cx="0" cy="0" r="25" fill="#8DCC93" stroke="#5db665" stroke-width="2px"/><text text-anchor="middle" pointer-events="none" font-family="sans-serif" dy="1.5625" font-size="25" fill="#2A2C34"/><text text-anchor="middle" pointer-events="none" x="0" y="5" font-size="10px" fill="#2A2C34" font-family="sans-serif"> </text></g><g class="node" transform="translate(-204.69065048858502,77.26357691097517)"><circle class="outline" cx="0" cy="0" r="25" fill="#8DCC93" stroke="#5db665" stroke-width="2px"/><text text-anchor="middle" pointer-events="none" font-family="sans-serif" dy="1.5625" font-size="25" fill="#2A2C34"/><text text-anchor="middle" pointer-events="none" x="0" y="5" font-size="10px" fill="#2A2C34" font-family="sans-serif"> </text></g><g class="node" transform="translate(-68.89157734571333,117.45692722642336)"><circle class="outline" cx="0" cy="0" r="25" fill="#DA7194" stroke="#cc3c6c" stroke-width="2px"/><text text-anchor="middle" pointer-events="none" font-family="sans-serif" dy="1.5625" font-size="25" fill="#FFFFFF"/><text text-anchor="middle" pointer-events="none" x="0" y="5" font-size="10px" fill="#FFFFFF" font-family="sans-serif"> Raymond</text></g><g class="node" transform="translate(-18.695817365226425,189.17839906516969)"><circle class="outline" cx="0" cy="0" r="25" fill="#DA7194" stroke="#cc3c6c" stroke-width="2px"/><text text-anchor="middle" pointer-events="none" font-family="sans-serif" dy="1.5625" font-size="25" fill="#FFFFFF"/><text text-anchor="middle" pointer-events="none" x="0" y="5" font-size="10px" fill="#FFFFFF" font-family="sans-serif"> Kathleen</text></g><g class="node" transform="translate(-201.69389554978846,160.43106212127017)"><circle class="outline" cx="0" cy="0" r="25" fill="#8DCC93" stroke="#5db665" stroke-width="2px"/><text text-anchor="middle" pointer-events="none" font-family="sans-serif" dy="1.5625" font-size="25" fill="#2A2C34"/><text text-anchor="middle" pointer-events="none" x="0" y="5" font-size="10px" fill="#2A2C34" font-family="sans-serif"> </text></g><g class="node" transform="translate(-137.56841962420057,258.37885361246435)"><circle class="outline" cx="0" cy="0" r="25" fill="#8DCC93" stroke="#5db665" stroke-width="2px"/><text text-anchor="middle" pointer-events="none" font-family="sans-serif" dy="1.5625" font-size="25" fill="#2A2C34"/><text text-anchor="middle" pointer-events="none" x="0" y="5" font-size="10px" fill="#2A2C34" font-family="sans-serif"> </text></g><g class="node" transform="translate(-87.76348996001589,314.2977027769555)"><circle class="outline" cx="0" cy="0" r="25" fill="#8DCC93" stroke="#5db665" stroke-width="2px"/><text text-anchor="middle" pointer-events="none" font-family="sans-serif" dy="1.5625" font-size="25" fill="#2A2C34"/><text text-anchor="middle" pointer-events="none" x="0" y="5" font-size="10px" fill="#2A2C34" font-family="sans-serif"> </text></g><g class="node" transform="translate(-18.157476366232057,334.9702586024507)"><circle class="outline" cx="0" cy="0" r="25" fill="#8DCC93" stroke="#5db665" stroke-width="2px"/><text text-anchor="middle" pointer-events="none" font-family="sans-serif" dy="1.5625" font-size="25" fill="#2A2C34"/><text text-anchor="middle" pointer-events="none" x="0" y="5" font-size="10px" fill="#2A2C34" font-family="sans-serif"> </text></g></g></svg>