<svg xmlns="http://www.w3.org/2000/svg" width="503.599365234375" height="488.083984375" viewBox="-215.94102478027344 -295.8326416015625 503.599365234375 488.083984375"><title>Neo4j Graph Visualization</title><desc>Created using Neo4j (http://www.neo4j.com/)</desc><g class="layer relationships"><g class="relationship" transform="translate(29.206361827453293 -266.8326409848647) rotate(462.77964327787174)"><path class="outline" fill="#A5ABB6" stroke="none" d="M 24.018736134675446,-6.953439040707552 L 24.277555179777966,-5.987513214418485 A 756.4141775368911 756.4141775368911 0 0 1 200.84017916494733,-31.517687035905624 L 200.8147806839068,-32.51736444245273 A 757.4141775368911 757.4141775368911 0 0 0 24.018736134675446,-6.953439040707552 Z M 233.1613847203882,-32.648242803548555 L 233.14407657539002,-31.648392600709712 A 756.4141775368911 756.4141775368911 0 0 1 409.90751270085525,-7.547819723655179 L 409.1545301364332,-4.643853942576412 L 416.8089299507761,-6.274854703516896 L 410.91148945341797,-11.419774098426869 L 410.15850688899593,-8.515808317348101 A 757.4141775368911 757.4141775368911 0 0 0 233.1613847203882,-32.648242803548555"/><text text-anchor="middle" pointer-events="none" font-size="8px" fill="#000000" x="216.98940699040176" y="-29.255505608027192" transform="rotate(180 216.98940699040176 -32.25550560802719)" font-family="sans-serif">KNOWS</text></g><g class="relationship" transform="translate(-68.34564170073111 163.2513408022774) rotate(301.386754862953)"><path class="outline" fill="#A5ABB6" stroke="none" d="M 24.018736134675446,6.953439040707552 L 24.277555179777966,5.987513214418485 A 315.2668467564955 315.2668467564955 0 0 0 87.15549221121474,16.1737510677807 L 87.09611670950515,17.17198678633457 A 316.2668467564955 316.2668467564955 0 0 1 24.018736134675446,6.953439040707552 Z M 119.46004602121769,17.438050836231696 L 119.4170904387696,16.438973853243624 A 315.2668467564955 315.2668467564955 0 0 0 182.45399976388578,7.287882679418628 L 181.72528964600974,4.3777312118649 L 189.36580487449046,6.072584315633537 L 183.42561325438714,11.168084636156932 L 182.6969031365111,8.257933168603204 A 316.2668467564955 316.2668467564955 0 0 1 119.46004602121769,17.438050836231696"/><text text-anchor="middle" pointer-events="none" font-size="8px" fill="#000000" x="103.27878605596332" y="20.21930051587549" font-family="sans-serif">KNOWS</text></g><g class="relationship" transform="translate(29.206361827453293 -266.8326409848647) rotate(446.8340324101972)"><path class="outline" fill="#A5ABB6" stroke="none" d="M 24.018736134675446,6.953439040707552 L 24.277555179777966,5.987513214418485 A 382.3918801334522 382.3918801334522 0 0 0 104.39440388032293,18.552142371563548 L 104.34509987166048,19.550926189378913 A 383.3918801334522 383.3918801334522 0 0 1 24.018736134675446,6.953439040707552 Z M 136.70485632189946,19.780958398374082 L 136.66975646567315,18.78157458817259 A 382.3918801334522 382.3918801334522 0 0 0 216.95713318328038,7.357193144629378 L 216.22195065247166,4.448670040647962 L 223.8662175143718,6.126521090072612 L 217.937376557692,11.235223949937932 L 217.2021940268833,8.326700845956518 A 383.3918801334522 383.3918801334522 0 0 1 136.70485632189946,19.780958398374082"/><text text-anchor="middle" pointer-events="none" font-size="8px" fill="#000000" x="120.52610420758258" y="22.507526776903774" font-family="sans-serif">KNOWS</text></g><g class="relationship" transform="translate(-161.02741843978697 14.537331470264348) rotate(304.0625616843188)"><path class="outline" fill="#A5ABB6" stroke="none" d="M 21.40063509461097,12.933012701892217 L 21.90063509461097,12.06698729810778 A 294.66783122930605 294.66783122930605 0 0 0 150.12818234555823,50.924906662483465 L 150.0633419851972,51.92280231217251 A 295.66783122930605 295.66783122930605 0 0 1 21.40063509461097,12.933012701892217 Z M 182.42823487549254,52.25047123396854 L 182.38361154223583,51.251467351028566 A 294.66783122930605 294.66783122930605 0 0 0 311.37160565443156,14.997651741710339 L 309.9245146602888,12.369738566837363 L 317.74458489482566,12.059091617856105 L 313.3010603132886,18.501535974874308 L 311.85396931914585,15.873622800001332 A 295.66783122930605 295.66783122930605 0 0 1 182.42823487549254,52.25047123396854"/><text text-anchor="middle" pointer-events="none" font-size="8px" fill="#000000" x="166.24636320086677" y="55.02986487576669" font-family="sans-serif">KNOWS</text></g><g class="relationship" transform="translate(-161.02741843978697 14.537331470264348) rotate(350.6319102930472)"><path class="outline" fill="#A5ABB6" stroke="none" d="M 24.018736134675446,6.953439040707552 L 24.277555179777966,5.987513214418485 A 301.76938943048174 301.76938943048174 0 0 0 83.69467239923473,15.690934020455586 L 83.63274912719784,16.689014933197768 A 302.76938943048174 302.76938943048174 0 0 1 24.018736134675446,6.953439040707552 Z M 115.99760028781466,16.963717635349326 L 115.95262751193371,15.964729422491132 A 301.76938943048174 301.76938943048174 0 0 0 175.52589174968216,7.271261640928629 L 174.79873378815685,4.360721948880032 L 182.43834402471646,6.059649679377656 L 176.49543569838258,11.15198123032676 L 175.76827773685727,8.241441538278162 A 302.76938943048174 302.76938943048174 0 0 1 115.99760028781466,16.963717635349326"/><text text-anchor="middle" pointer-events="none" font-size="8px" fill="#000000" x="99.81574506094638" y="19.759168531742432" font-family="sans-serif">KNOWS</text></g><g class="relationship" transform="translate(29.206361827453293 -266.8326409848647) rotate(387.84268612042547)"><path class="outline" fill="#A5ABB6" stroke="none" d="M 24.018736134675446,6.953439040707552 L 24.277555179777966,5.987513214418485 A 404.52941361816505 404.52941361816505 0 0 0 110.0877215389597,19.330243784799904 L 110.04102592288471,20.329152949558818 A 405.52941361816505 405.52941361816505 0 0 1 24.018736134675446,6.953439040707552 Z M 142.39956622737503,20.549337572446916 L 142.36646851843378,19.5498854517013 A 404.52941361816505 404.52941361816505 0 0 0 228.35026253176284,7.3761318507113245 L 227.61331149093758,4.468056342161634 L 235.258597225183,6.141258673543958 L 229.33286391952987,11.25356586211091 L 228.5959128787046,8.345490353561221 A 405.52941361816505 405.52941361816505 0 0 1 142.39956622737503,20.549337572446916"/><text text-anchor="middle" pointer-events="none" font-size="8px" fill="#000000" x="126.22150117739434" y="23.262142293119723" font-family="sans-serif">KNOWS</text></g><g class="relationship" transform="translate(258.65831534519907 -145.6377994420243) rotate(509.60970460885085)"><path class="outline" fill="#A5ABB6" stroke="none" d="M 24.018736134675446,6.953439040707552 L 24.277555179777966,5.987513214418485 A 386.30316002926867 386.30316002926867 0 0 0 105.40005901887432,18.68980489883984 L 105.35123697155186,19.688612391650736 A 387.30316002926867 387.30316002926867 0 0 1 24.018736134675446,6.953439040707552 Z M 137.71077285951043,19.91684158382435 L 137.6760439854164,18.917444813115083 A 386.30316002926867 386.30316002926867 0 0 0 218.9696451254643,7.36066079492603 L 218.2341387816411,4.452219559797523 L 225.878592398068,6.129219531859992 L 219.9503202505619,11.23858244176404 L 219.2148139067387,8.330141206635533 A 387.30316002926867 387.30316002926867 0 0 1 137.71077285951043,19.91684158382435"/><text text-anchor="middle" pointer-events="none" font-size="8px" fill="#000000" x="121.53214659228978" y="22.640854048997653" transform="rotate(180 121.53214659228978 19.640854048997653)" font-family="sans-serif">KNOWS</text></g><g class="relationship" transform="translate(252.19556863548246 92.33948016278572) rotate(238.1662447764499)"><path class="outline" fill="#A5ABB6" stroke="none" d="M 24.018736134675446,-6.953439040707552 L 24.277555179777966,-5.987513214418485 A 721.0914259670735 721.0914259670735 0 0 1 191.7176881288515,-30.302661286752254 L 191.69107283339767,-31.302307037029777 A 722.0914259670735 722.0914259670735 0 0 0 24.018736134675446,-6.953439040707552 Z M 224.0384525624526,-31.43874812165052 L 224.02027106547015,-30.43891341872836 A 721.0914259670735 721.0914259670735 0 0 1 391.6595647991058,-7.537128678870912 L 390.90758047863005,-4.632904241648712 L 398.56141920603693,-6.266536003964514 L 392.6622105597402,-11.409427928500515 L 391.91022623926443,-8.505203491278314 A 722.0914259670735 722.0914259670735 0 0 0 224.0384525624526,-31.43874812165052"/><text text-anchor="middle" pointer-events="none" font-size="8px" fill="#000000" x="207.86610755862773" y="-28.05168871969431" transform="rotate(180 207.86610755862773 -31.05168871969431)" font-family="sans-serif">KNOWS</text></g><g class="relationship" transform="translate(252.19556863548246 92.33948016278572) rotate(208.03565367368344)"><path class="outline" fill="#A5ABB6" stroke="none" d="M 24.018736134675446,-6.953439040707552 L 24.277555179777966,-5.987513214418485 A 361.01015205214867 361.01015205214867 0 0 1 98.89884840819548,-17.798005178139988 L 98.84673073368943,-18.79664612863428 A 362.01015205214867 362.01015205214867 0 0 0 24.018736134675446,-6.953439040707552 Z M 131.2077370531402,-19.037057179064334 L 131.1704621895199,-18.037752128270483 A 361.01015205214867 361.01015205214867 0 0 1 205.9589905236151,-7.337230966811175 L 205.22567209462557,-4.428237312348461 L 212.86886212219304,-6.110986908246059 L 206.9367484289345,-11.21588917276146 L 206.20342999994494,-8.306895518298745 A 362.01015205214867 362.01015205214867 0 0 0 131.2077370531402,-19.037057179064334"/><text text-anchor="middle" pointer-events="none" font-size="8px" fill="#000000" x="115.02826052193441" y="-15.778660285560534" transform="rotate(180 115.02826052193441 -18.778660285560534)" font-family="sans-serif">KNOWS</text></g><g class="relationship" transform="translate(133.06808685130432 161.51803606289252) rotate(256.37058754711995)"><path class="outline" fill="#A5ABB6" stroke="none" d="M 24.018736134675446,-6.953439040707552 L 24.277555179777966,-5.987513214418485 A 755.937640216323 755.937640216323 0 0 1 200.71709718027554,-31.501302027515294 L 200.6916830254891,-32.500979035721684 A 756.937640216323 756.937640216323 0 0 0 24.018736134675446,-6.953439040707552 Z M 233.03829712393537,-32.631929429537195 L 233.0209777530258,-31.632079421090225 A 755.937640216323 755.937640216323 0 0 1 409.66131054088856,-7.547681285828741 L 408.9083409026431,-4.643712153093251 L 416.56273345697895,-6.274746985378599 L 410.66527005854914,-11.419640129476061 L 409.91230042030367,-8.515670996740571 A 756.937640216323 756.937640216323 0 0 0 233.03829712393537,-32.631929429537195"/><text text-anchor="middle" pointer-events="none" font-size="8px" fill="#000000" x="216.8663146507035" y="-29.23926507966462" transform="rotate(180 216.8663146507035 -32.23926507966462)" font-family="sans-serif">KNOWS</text></g><g class="relationship" transform="translate(133.06808685130432 161.51803606289252) rotate(243.47388628389263)"><path class="outline" fill="#A5ABB6" stroke="none" d="M 24.018736134675446,-6.953439040707552 L 24.277555179777966,-5.987513214418485 A 292.37659995655656 292.37659995655656 0 0 1 81.28767272287224,-15.353778466954168 L 81.22384232443832,-16.35173922782394 A 293.37659995655656 293.37659995655656 0 0 0 24.018736134675446,-6.953439040707552 Z M 113.58934766921494,-16.632788593543467 L 113.54285738989348,-15.633869851138172 A 292.37659995655656 292.37659995655656 0 0 1 170.70703156917784,-7.259049407766211 L 169.98101405626298,-4.348225027811128 L 177.61995804122554,-6.050145940957348 L 171.67505491973102,-11.140148581039657 L 170.94903740681616,-8.229324201084573 A 293.37659995655656 293.37659995655656 0 0 0 113.58934766921494,-16.632788593543467"/><text text-anchor="middle" pointer-events="none" font-size="8px" fill="#000000" x="97.40705784358939" y="-13.438962707404016" transform="rotate(180 97.40705784358939 -16.438962707404016)" font-family="sans-serif">KNOWS</text></g><g class="relationship" transform="translate(-68.34564170073111 163.2513408022774) rotate(316.6317552912402)"><path class="outline" fill="#A5ABB6" stroke="none" d="M 24.018736134675446,6.953439040707552 L 24.277555179777966,5.987513214418485 A 773.4836772762216 773.4836772762216 0 0 0 205.24914411868252,32.10448046759234 L 205.22429457320305,33.1041716699591 A 774.4836772762216 774.4836772762216 0 0 1 24.018736134675446,6.953439040707552 Z M 237.57054505877306,33.23252097463546 L 237.55362968210554,32.232664049854634 A 773.4836772762216 773.4836772762216 0 0 0 418.7267799536048,7.552680211207759 L 417.973343557754,4.6488321440032525 L 425.62799817639046,6.278636632089958 L 419.7313618147392,11.4244776341471 L 418.9779254188884,8.520629566942594 A 774.4836772762216 774.4836772762216 0 0 1 237.57054505877306,33.23252097463546"/><text text-anchor="middle" pointer-events="none" font-size="8px" fill="#000000" x="221.39873365014606" y="35.83723733126806" font-family="sans-serif">KNOWS</text></g><g class="relationship" transform="translate(-161.02741843978697 14.537331470264348) rotate(339.1103982793891)"><path class="outline" fill="#A5ABB6" stroke="none" d="M 24.018736134675446,6.953439040707552 L 24.277555179777966,5.987513214418485 A 772.2954131490856 772.2954131490856 0 0 0 204.94221006718675,32.06363895705999 L 204.91732307944392,33.06332922801448 A 773.2954131490856 773.2954131490856 0 0 1 24.018736134675446,6.953439040707552 Z M 237.26359775161123,33.1918514255658 L 237.24665560895687,32.19199495396492 A 772.2954131490856 772.2954131490856 0 0 0 418.11282064340725,7.552347938158656 L 417.3594152723803,4.648491821387754 L 425.01405247771055,6.278378091890982 L 419.11736113810986,11.424156093853192 L 418.3639557670829,8.52029997708229 A 773.2954131490856 773.2954131490856 0 0 1 237.26359775161123,33.1918514255658"/><text text-anchor="middle" pointer-events="none" font-size="8px" fill="#000000" x="221.09177498607409" y="35.79674117556635" font-family="sans-serif">KNOWS</text></g><g class="relationship" transform="translate(252.19556863548246 92.33948016278572) rotate(271.5555985931916)"><path class="outline" fill="#A5ABB6" stroke="none" d="M 24.018736134675446,-6.953439040707552 L 24.277555179777966,-5.987513214418485 A 362.867219922171 362.867219922171 0 0 1 99.37600999742983,-17.863616698980593 L 99.32414945035246,-18.86227103540375 A 363.867219922171 363.867219922171 0 0 0 24.018736134675446,-6.953439040707552 Z M 131.68504423602346,-19.101743933750924 L 131.647968783885,-18.102431464675988 A 362.867219922171 362.867219922171 0 0 1 206.9139574908206,-7.339035441934144 L 206.18047055608884,-4.4300842707080195 L 213.82375804613682,-6.112391122764449 L 207.8919400704629,-11.217637003568978 L 207.15845313573115,-8.308685832342853 A 363.867219922171 363.867219922171 0 0 0 131.68504423602346,-19.101743933750924"/><text text-anchor="middle" pointer-events="none" font-size="8px" fill="#000000" x="115.50563316650249" y="-15.841965124975161" font-family="sans-serif">KNOWS</text></g><g class="relationship" transform="translate(-68.34564170073111 163.2513408022774) rotate(238.06794973212578)"><path class="outline" fill="#A5ABB6" stroke="none" d="M 24.018736134675446,6.953439040707552 L 24.277555179777966,5.987513214418485 A 240.31945730233454 240.31945730233454 0 0 0 67.97241197818056,13.462729623240278 L 67.89541282102591,14.459760781127272 A 241.31945730233454 241.31945730233454 0 0 1 24.018736134675446,6.953439040707552 Z M 100.26458320793706,14.781996229055892 L 100.20744825610291,13.783629764635691 A 240.31945730233454 240.31945730233454 0 0 0 144.04246237130616,7.179774185388545 L 143.32384821439382,4.2671132553307425 L 150.95844023425974,5.98845130760274 L 145.0006145805226,11.063322092132282 L 144.28200042361027,8.150661162074478 A 241.31945730233454 241.31945730233454 0 0 1 100.26458320793706,14.781996229055892"/><text text-anchor="middle" pointer-events="none" font-size="8px" fill="#000000" x="84.07956606997722" y="17.664268161153473" transform="rotate(180 84.07956606997722 14.664268161153473)" font-family="sans-serif">KNOWS</text></g><g class="relationship" transform="translate(-186.94101880340776 -151.72238326064195) rotate(331.96226657552364)"><path class="outline" fill="#A5ABB6" stroke="none" d="M 24.018736134675446,-6.953439040707552 L 24.277555179777966,-5.987513214418485 A 376.13813825776975 376.13813825776975 0 0 1 102.78669507145668,-18.331855298995208 L 102.73660024734201,-19.330599765111003 A 377.13813825776975 377.13813825776975 0 0 0 24.018736134675446,-6.953439040707552 Z M 135.09671451225998,-19.563574340238688 L 135.06100492949497,-18.56421213077772 A 376.13813825776975 376.13813825776975 0 0 1 213.7397420822374,-7.351534124079224 L 213.0050879982996,-4.442877496535589 L 220.64904989382885,-6.122117366148302 L 214.71928086082113,-11.22974296080407 L 213.98462677688332,-8.321086333260435 A 377.13813825776975 377.13813825776975 0 0 0 135.09671451225998,-19.563574340238688"/><text text-anchor="middle" pointer-events="none" font-size="8px" fill="#000000" x="118.91775700819474" y="-16.294348924702604" font-family="sans-serif">KNOWS</text></g><g class="relationship" transform="translate(-186.94101880340776 -151.72238326064195) rotate(441.141033428779)"><path class="outline" fill="#A5ABB6" stroke="none" d="M 24.018736134675446,-6.953439040707552 L 24.277555179777966,-5.987513214418485 A 226.6848849779569 226.6848849779569 0 0 1 64.49360638594533,-12.959185908218615 L 64.41219683689314,-13.955866642116462 A 227.6848849779569 227.6848849779569 0 0 0 24.018736134675446,-6.953439040707552 Z M 96.7822560501914,-14.290931486500398 L 96.72149516392273,-13.292779136054918 A 226.6848849779569 226.6848849779569 0 0 1 137.07324254187859,-7.155069602997298 L 136.3569355605173,-4.241840413858025 L 143.99016181343046,-5.969224844677484 L 138.028318517027,-11.03937518851633 L 137.3120115356657,-8.126145999377057 A 227.6848849779569 227.6848849779569 0 0 0 96.7822560501914,-14.290931486500398"/><text text-anchor="middle" pointer-events="none" font-size="8px" fill="#000000" x="80.59643930192395" y="-11.199443511290639" font-family="sans-serif">KNOWS</text></g><g class="relationship" transform="translate(29.206361827453293 -266.8326409848647) rotate(446.8340324101972)"><path class="outline" fill="#A5ABB6" stroke="none" d="M 24.018736134675446,-6.953439040707552 L 24.277555179777966,-5.987513214418485 A 382.3918801334522 382.3918801334522 0 0 1 97.6388016281781,-18.158708619422725 L 97.57183092050053,-19.156463561436624 A 383.3918801334522 383.3918801334522 0 0 0 24.018736134675446,-6.953439040707552 Z M 143.48304863550982,-19.482827539017308 L 143.43026923867546,-18.484221342726812 A 382.3918801334522 382.3918801334522 0 0 1 216.95713318328038,-7.357193144629378 L 216.22195065247166,-4.448670040647962 L 223.8662175143718,-6.126521090072612 L 217.937376557692,-11.235223949937932 L 217.2021940268833,-8.326700845956518 A 383.3918801334522 383.3918801334522 0 0 0 143.48304863550982,-19.482827539017308"/><text text-anchor="middle" pointer-events="none" font-size="8px" fill="#000000" x="120.52610420758246" y="-16.507526776903774" font-family="sans-serif">KNOWS_LW</text></g><g class="relationship" transform="translate(29.206361827453293 -266.8326409848647) rotate(387.84268612042547)"><path class="outline" fill="#A5ABB6" stroke="none" d="M 24.018736134675446,-6.953439040707552 L 24.277555179777966,-5.987513214418485 A 404.52941361816505 404.52941361816505 0 0 1 103.33044169551623,-18.9576935263745 L 103.26704202871967,-19.955681743865114 A 405.52941361816505 405.52941361816505 0 0 0 24.018736134675446,-6.953439040707552 Z M 149.17800521372192,-20.268084220002606 L 149.12819246819214,-19.269325645379695 A 404.52941361816505 404.52941361816505 0 0 1 228.35026253176284,-7.3761318507113245 L 227.61331149093758,-4.468056342161634 L 235.258597225183,-6.141258673543958 L 229.33286391952987,-11.25356586211091 L 228.5959128787046,-8.345490353561221 A 405.52941361816505 405.52941361816505 0 0 0 149.17800521372192,-20.268084220002606"/><text text-anchor="middle" pointer-events="none" font-size="8px" fill="#000000" x="126.2215011773943" y="-17.262142293119723" font-family="sans-serif">KNOWS_LW</text></g><g class="relationship" transform="translate(29.206361827453293 -266.8326409848647) rotate(462.77964327787174)"><path class="outline" fill="#A5ABB6" stroke="none" d="M 24.018736134675446,6.953439040707552 L 24.277555179777966,5.987513214418485 A 756.4141775368911 756.4141775368911 0 0 0 194.0717141817414,31.31540357364247 L 194.0373676069393,32.3148135559818 A 757.4141775368911 757.4141775368911 0 0 1 24.018736134675446,6.953439040707552 Z M 239.9402149583941,32.50054215439093 L 239.91395684858267,31.50088695800116 A 756.4141775368911 756.4141775368911 0 0 0 409.90751270085525,7.547819723655179 L 409.1545301364332,4.643853942576412 L 416.8089299507761,6.274854703516896 L 410.91148945341797,11.419774098426869 L 410.15850688899593,8.515808317348101 A 757.4141775368911 757.4141775368911 0 0 1 239.9402149583941,32.50054215439093"/><text text-anchor="middle" pointer-events="none" font-size="8px" fill="#000000" x="216.9894069904019" y="35.25550560802719" transform="rotate(180 216.9894069904019 32.25550560802719)" font-family="sans-serif">KNOWS_LW</text></g><g class="relationship" transform="translate(258.65831534519907 -145.6377994420243) rotate(509.60970460885085)"><path class="outline" fill="#A5ABB6" stroke="none" d="M 24.018736134675446,-6.953439040707552 L 24.277555179777966,-5.987513214418485 A 386.30316002926867 386.30316002926867 0 0 1 97.76330016077173,-18.240681165404055 L 97.69470929028581,-19.238326038335288 A 387.30316002926867 387.30316002926867 0 0 0 24.018736134675446,-6.953439040707552 Z M 145.3728902017028,-19.574596396210552 L 145.3183780721827,-18.57608328776621 A 386.30316002926867 386.30316002926867 0 0 1 218.9696451254643,-7.36066079492603 L 218.2341387816411,-4.452219559797523 L 225.878592398068,-6.129219531859992 L 219.9503202505619,-11.23858244176404 L 219.2148139067387,-8.330141206635533 A 387.30316002926867 387.30316002926867 0 0 0 145.3728902017028,-19.574596396210552"/><text text-anchor="middle" pointer-events="none" font-size="8px" fill="#000000" x="121.53214659228959" y="-16.640854048997653" transform="rotate(180 121.53214659228959 -19.640854048997653)" font-family="sans-serif">FAMILY_REL</text></g><g class="relationship" transform="translate(-68.34564170073111 163.2513408022774) rotate(301.386754862953)"><path class="outline" fill="#A5ABB6" stroke="none" d="M 24.018736134675446,-6.953439040707552 L 24.277555179777966,-5.987513214418485 A 315.2668467564955 315.2668467564955 0 0 1 80.40699974439538,-15.699635025181635 L 80.3262185905018,-16.696366887407237 A 316.2668467564955 316.2668467564955 0 0 0 24.018736134675446,-6.953439040707552 Z M 126.2368487351871,-17.073798443136297 L 126.17246566900664,-16.075873185018622 A 315.2668467564955 315.2668467564955 0 0 1 182.45399976388578,-7.287882679418628 L 181.72528964600974,-4.3777312118649 L 189.36580487449046,-6.072584315633537 L 183.42561325438714,-11.168084636156932 L 182.6969031365111,-8.257933168603204 A 316.2668467564955 316.2668467564955 0 0 0 126.2368487351871,-17.073798443136297"/><text text-anchor="middle" pointer-events="none" font-size="8px" fill="#000000" x="103.27878605596325" y="-14.219300515875489" font-family="sans-serif">KNOWS_LW</text></g><g class="relationship" transform="translate(-68.34564170073111 163.2513408022774) rotate(316.6317552912402)"><path class="outline" fill="#A5ABB6" stroke="none" d="M 24.018736134675446,-6.953439040707552 L 24.277555179777966,-5.987513214418485 A 773.4836772762216 773.4836772762216 0 0 1 198.4804498528037,-31.906578909635982 L 198.44684938669755,-32.90601425455702 A 774.4836772762216 774.4836772762216 0 0 0 24.018736134675446,-6.953439040707552 Z M 244.34934937354342,-33.08815449856604 L 244.32368132136617,-32.08848397729548 A 773.4836772762216 773.4836772762216 0 0 1 418.7267799536048,-7.552680211207759 L 417.973343557754,-4.6488321440032525 L 425.62799817639046,-6.278636632089958 L 419.7313618147392,-11.4244776341471 L 418.9779254188884,-8.520629566942594 A 774.4836772762216 774.4836772762216 0 0 0 244.34934937354342,-33.08815449856604"/><text text-anchor="middle" pointer-events="none" font-size="8px" fill="#000000" x="221.3987336501459" y="-29.837237331268057" font-family="sans-serif">KNOWS_LW</text></g><g class="relationship" transform="translate(-68.34564170073111 163.2513408022774) rotate(238.06794973212578)"><path class="outline" fill="#A5ABB6" stroke="none" d="M 24.018736134675446,-6.953439040707552 L 24.277555179777966,-5.987513214418485 A 240.31945730233454 240.31945730233454 0 0 1 61.23878398049715,-12.847294374901992 L 61.13376533597651,-13.841764628003148 A 241.31945730233454 241.31945730233454 0 0 0 24.018736134675446,-6.953439040707552 Z M 107.03719373467091,-14.298733763594413 L 106.95199386589039,-13.302369883097043 A 240.31945730233454 240.31945730233454 0 0 1 144.04246237130616,-7.179774185388545 L 143.32384821439382,-4.2671132553307425 L 150.95844023425974,-5.98845130760274 L 145.0006145805226,-11.063322092132282 L 144.28200042361027,-8.150661162074478 A 241.31945730233454 241.31945730233454 0 0 0 107.03719373467091,-14.298733763594413"/><text text-anchor="middle" pointer-events="none" font-size="8px" fill="#000000" x="84.07956606997718" y="-11.664268161153473" transform="rotate(180 84.07956606997718 -14.664268161153473)" font-family="sans-serif">KNOWS_LW</text></g><g class="relationship" transform="translate(-161.02741843978697 14.537331470264348) rotate(304.0625616843188)"><path class="outline" fill="#A5ABB6" stroke="none" d="M 25 0.5 L 143.38195875222203 0.5 L 143.38195875222203 -0.5 L 25 -0.5 Z M 189.26190259987828 0.5 L 307.6438613521003 0.5 L 307.6438613521003 3.5 L 314.6438613521003 0 L 307.6438613521003 -3.5 L 307.6438613521003 -0.5 L 189.26190259987828 -0.5 Z"/><text text-anchor="middle" pointer-events="none" font-size="8px" fill="#000000" x="166.32193067605016" y="3" font-family="sans-serif">KNOWS_LW</text></g><g class="relationship" transform="translate(-161.02741843978697 14.537331470264348) rotate(350.6319102930472)"><path class="outline" fill="#A5ABB6" stroke="none" d="M 24.018736134675446,-6.953439040707552 L 24.277555179777966,-5.987513214418485 A 301.76938943048174 301.76938943048174 0 0 1 76.94813789661197,-15.196397496987743 L 76.86385803461295,-16.192839620174766 A 302.76938943048174 302.76938943048174 0 0 0 24.018736134675446,-6.953439040707552 Z M 122.77393833177713,-16.58250997741004 L 122.70658436981688,-15.584780833900481 A 301.76938943048174 301.76938943048174 0 0 1 175.52589174968216,-7.271261640928629 L 174.79873378815685,-4.360721948880032 L 182.43834402471646,-6.059649679377656 L 176.49543569838258,-11.15198123032676 L 175.76827773685727,-8.241441538278162 A 302.76938943048174 302.76938943048174 0 0 0 122.77393833177713,-16.58250997741004"/><text text-anchor="middle" pointer-events="none" font-size="8px" fill="#000000" x="99.81574506094623" y="-13.759168531742432" font-family="sans-serif">KNOWS_LW</text></g><g class="relationship" transform="translate(-161.02741843978697 14.537331470264348) rotate(339.1103982793891)"><path class="outline" fill="#A5ABB6" stroke="none" d="M 24.018736134675446,-6.953439040707552 L 24.277555179777966,-5.987513214418485 A 772.2954131490856 772.2954131490856 0 0 1 198.17353134640558,-31.8654385266766 L 198.13987999388013,-32.864872159527295 A 773.2954131490856 773.2954131490856 0 0 0 24.018736134675446,-6.953439040707552 Z M 244.04240388873376,-33.04725771409005 L 244.0166956186437,-32.0475882262848 A 772.2954131490856 772.2954131490856 0 0 1 418.11282064340725,-7.552347938158656 L 417.3594152723803,-4.648491821387754 L 425.01405247771055,-6.278378091890982 L 419.11736113810986,-11.424156093853192 L 418.3639557670829,-8.52029997708229 A 773.2954131490856 773.2954131490856 0 0 0 244.04240388873376,-33.04725771409005"/><text text-anchor="middle" pointer-events="none" font-size="8px" fill="#000000" x="221.09177498607409" y="-29.796741175566353" font-family="sans-serif">KNOWS_LW</text></g><g class="relationship" transform="translate(-161.02741843978697 14.537331470264348) rotate(304.0625616843188)"><path class="outline" fill="#A5ABB6" stroke="none" d="M 21.40063509461097,-12.933012701892217 L 21.90063509461097,-12.06698729810778 A 294.66783122930605 294.66783122930605 0 0 1 142.50455909448047,-50.330117350704484 L 142.41384681176106,-51.32599449260698 A 295.66783122930605 295.66783122930605 0 0 0 21.40063509461097,-12.933012701892217 Z M 190.08824524431628,-51.80866003964337 L 190.0177144244826,-50.811150438960965 A 294.66783122930605 294.66783122930605 0 0 1 311.37160565443156,-14.997651741710339 L 309.9245146602888,-12.369738566837363 L 317.74458489482566,-12.059091617856105 L 313.3010603132886,-18.501535974874308 L 311.85396931914585,-15.873622800001332 A 295.66783122930605 295.66783122930605 0 0 0 190.08824524431628,-51.80866003964337"/><text text-anchor="middle" pointer-events="none" font-size="8px" fill="#000000" x="166.24636320086682" y="-49.02986487576669" font-family="sans-serif">FAMILY_REL</text></g><g class="relationship" transform="translate(-186.94101880340776 -151.72238326064195) rotate(331.96226657552364)"><path class="outline" fill="#A5ABB6" stroke="none" d="M 24.018736134675446,6.953439040707552 L 24.277555179777966,5.987513214418485 A 376.13813825776975 376.13813825776975 0 0 0 95.1509112131065,17.870976014412406 L 95.0805159113702,18.868495187909048 A 377.13813825776975 377.13813825776975 0 0 1 24.018736134675446,6.953439040707552 Z M 142.75865867077104,19.211750930497374 L 142.70263307278168,18.213321597810307 A 376.13813825776975 376.13813825776975 0 0 0 213.7397420822374,7.351534124079224 L 213.0050879982996,4.442877496535589 L 220.64904989382885,6.122117366148302 L 214.71928086082113,11.22974296080407 L 213.98462677688332,8.321086333260435 A 377.13813825776975 377.13813825776975 0 0 1 142.75865867077104,19.211750930497374"/><text text-anchor="middle" pointer-events="none" font-size="8px" fill="#000000" x="118.91775700819471" y="22.294348924702604" font-family="sans-serif">FAMILY_REL</text></g><g class="relationship" transform="translate(-186.94101880340776 -151.72238326064195) rotate(441.141033428779)"><path class="outline" fill="#A5ABB6" stroke="none" d="M 24.018736134675446,6.953439040707552 L 24.277555179777966,5.987513214418485 A 226.6848849779569 226.6848849779569 0 0 0 56.887785650532024,12.20866913794589 L 56.77282370677053,13.202039034553678 A 227.6848849779569 227.6848849779569 0 0 1 24.018736134675446,6.953439040707552 Z M 104.43559649605217,13.695399872799726 L 104.34122187013361,12.69986311808762 A 226.6848849779569 226.6848849779569 0 0 0 137.07324254187859,7.155069602997298 L 136.3569355605173,4.241840413858025 L 143.99016181343046,5.969224844677484 L 138.028318517027,11.03937518851633 L 137.3120115356657,8.126145999377057 A 227.6848849779569 227.6848849779569 0 0 1 104.43559649605217,13.695399872799726"/><text text-anchor="middle" pointer-events="none" font-size="8px" fill="#000000" x="80.59643930192402" y="17.19944351129064" font-family="sans-serif">FAMILY_REL</text></g><g class="relationship" transform="translate(252.19556863548246 92.33948016278572) rotate(208.03565367368344)"><path class="outline" fill="#A5ABB6" stroke="none" d="M 24.018736134675446,6.953439040707552 L 24.277555179777966,5.987513214418485 A 361.01015205214867 361.01015205214867 0 0 0 91.26465304584733,17.318439135329413 L 91.1913886104567,18.315751685389273 A 362.01015205214867 362.01015205214867 0 0 1 24.018736134675446,6.953439040707552 Z M 138.86937898677198,18.669953147346746 L 138.810939959964,17.67166216764906 A 361.01015205214867 361.01015205214867 0 0 0 205.9589905236151,7.337230966811175 L 205.22567209462557,4.428237312348461 L 212.86886212219304,6.110986908246059 L 206.9367484289345,11.21588917276146 L 206.20342999994494,8.306895518298745 A 362.01015205214867 362.01015205214867 0 0 1 138.86937898677198,18.669953147346746"/><text text-anchor="middle" pointer-events="none" font-size="8px" fill="#000000" x="115.02826052193451" y="21.778660285560534" transform="rotate(180 115.02826052193451 18.778660285560534)" font-family="sans-serif">FAMILY_REL</text></g><g class="relationship" transform="translate(252.19556863548246 92.33948016278572) rotate(271.5555985931916)"><path class="outline" fill="#A5ABB6" stroke="none" d="M 24.018736134675446,6.953439040707552 L 24.277555179777966,5.987513214418485 A 362.867219922171 362.867219922171 0 0 0 91.74161006832684,17.38642618425797 L 91.66871042069158,18.383765465232386 A 363.867219922171 363.867219922171 0 0 1 24.018736134675446,6.953439040707552 Z M 139.3467264339501,18.7365861383862 L 139.28859472343373,17.738277216141967 A 362.867219922171 362.867219922171 0 0 0 206.9139574908206,7.339035441934144 L 206.18047055608884,4.4300842707080195 L 213.82375804613682,6.112391122764449 L 207.8919400704629,11.217637003568978 L 207.15845313573115,8.308685832342853 A 363.867219922171 363.867219922171 0 0 1 139.3467264339501,18.7365861383862"/><text text-anchor="middle" pointer-events="none" font-size="8px" fill="#000000" x="115.50563316650253" y="21.84196512497516" font-family="sans-serif">FAMILY_REL</text></g><g class="relationship" transform="translate(252.19556863548246 92.33948016278572) rotate(238.1662447764499)"><path class="outline" fill="#A5ABB6" stroke="none" d="M 24.018736134675446,6.953439040707552 L 24.277555179777966,5.987513214418485 A 721.0914259670735 721.0914259670735 0 0 0 177.90855408508705,29.802551824585066 L 177.86278846618393,30.801504029711282 A 722.0914259670735 722.0914259670735 0 0 1 24.018736134675446,6.953439040707552 Z M 237.8704695810468,31.054616126130554 L 237.8331325913924,30.055313394620498 A 721.0914259670735 721.0914259670735 0 0 0 391.6595647991058,7.537128678870912 L 390.90758047863005,4.632904241648712 L 398.56141920603693,6.266536003964514 L 392.6622105597402,11.409427928500515 L 391.91022623926443,8.505203491278314 A 722.0914259670735 722.0914259670735 0 0 1 237.8704695810468,31.054616126130554"/><text text-anchor="middle" pointer-events="none" font-size="8px" fill="#000000" x="207.86610755862762" y="34.05168871969431" transform="rotate(180 207.86610755862762 31.05168871969431)" font-family="sans-serif">KNOWS_PHONE</text></g><g class="relationship" transform="translate(133.06808685130432 161.51803606289252) rotate(256.37058754711995)"><path class="outline" fill="#A5ABB6" stroke="none" d="M 24.018736134675446,6.953439040707552 L 24.277555179777966,5.987513214418485 A 755.937640216323 755.937640216323 0 0 0 194.69970938704537,31.324347638991753 L 194.66633506798996,32.32379056123773 A 756.937640216323 756.937640216323 0 0 1 24.018736134675446,6.953439040707552 Z M 239.06488220239652,32.503531390197054 L 239.03960103284166,31.503851010042467 A 755.937640216323 755.937640216323 0 0 0 409.66131054088856,7.547681285828741 L 408.9083409026431,4.643712153093251 L 416.56273345697895,6.274746985378599 L 410.66527005854914,11.419640129476061 L 409.91230042030367,8.515670996740571 A 756.937640216323 756.937640216323 0 0 1 239.06488220239652,32.503531390197054"/><text text-anchor="middle" pointer-events="none" font-size="8px" fill="#000000" x="216.8663146507038" y="35.23926507966462" transform="rotate(180 216.8663146507038 32.23926507966462)" font-family="sans-serif">KNOWS_SN</text></g><g class="relationship" transform="translate(133.06808685130432 161.51803606289252) rotate(243.47388628389263)"><path class="outline" fill="#A5ABB6" stroke="none" d="M 24.018736134675446,6.953439040707552 L 24.277555179777966,5.987513214418485 A 292.37659995655656 292.37659995655656 0 0 0 75.29060411852787,14.908230836692155 L 75.20626226806516,15.904667714903951 A 293.37659995655656 293.37659995655656 0 0 1 24.018736134675446,6.953439040707552 Z M 119.6137840843887,16.290285232897247 L 119.54675898253515,15.292533943385934 A 292.37659995655656 292.37659995655656 0 0 0 170.70703156917784,7.259049407766211 L 169.98101405626298,4.348225027811128 L 177.61995804122554,6.050145940957348 L 171.67505491973102,11.140148581039657 L 170.94903740681616,8.229324201084573 A 293.37659995655656 293.37659995655656 0 0 1 119.6137840843887,16.290285232897247"/><text text-anchor="middle" pointer-events="none" font-size="8px" fill="#000000" x="97.40705784358943" y="19.438962707404016" transform="rotate(180 97.40705784358943 16.438962707404016)" font-family="sans-serif">KNOWS_SN</text></g></g><g class="layer nodes"><g class="node" transform="translate(29.206361827453293,-266.8326409848647)"><circle class="outline" cx="0" cy="0" r="25" fill="#DA7194" stroke="#cc3c6c" stroke-width="2px"/><text text-anchor="middle" pointer-events="none" font-family="sans-serif" dy="1.5625" font-size="25" fill="#FFFFFF"/><text text-anchor="middle" pointer-events="none" x="0" y="5" font-size="10px" fill="#FFFFFF" font-family="sans-serif"> Deborah</text></g><g class="node" transform="translate(42.90875466064688,-19.107400826483342)"><circle class="outline" cx="0" cy="0" r="25" fill="#DA7194" stroke="#cc3c6c" stroke-width="2px"/><text text-anchor="middle" pointer-events="none" font-family="sans-serif" dy="1.5625" font-size="25" fill="#FFFFFF"/><text text-anchor="middle" pointer-events="none" x="0" y="5" font-size="10px" fill="#FFFFFF" font-family="sans-serif"> Phillip</text></g><g class="node" transform="translate(258.65831534519907,-145.6377994420243)"><circle class="outline" cx="0" cy="0" r="25" fill="#DA7194" stroke="#cc3c6c" stroke-width="2px"/><text text-anchor="middle" pointer-events="none" font-family="sans-serif" dy="1.5625" font-size="25" fill="#FFFFFF"/><text text-anchor="middle" pointer-events="none" x="0" y="5" font-size="10px" fill="#FFFFFF" font-family="sans-serif"> Peter</text></g><g class="node" transform="translate(-68.34564170073111,163.2513408022774)"><circle class="outline" cx="0" cy="0" r="25" fill="#DA7194" stroke="#cc3c6c" stroke-width="2px"/><text text-anchor="middle" pointer-events="none" font-family="sans-serif" dy="1.5625" font-size="25" fill="#FFFFFF"/><text text-anchor="middle" pointer-events="none" x="0" y="5" font-size="10px" fill="#FFFFFF" font-family="sans-serif"> Harry</text></g><g class="node" transform="translate(-161.02741843978697,14.537331470264348)"><circle class="outline" cx="0" cy="0" r="25" fill="#DA7194" stroke="#cc3c6c" stroke-width="2px"/><text text-anchor="middle" pointer-events="none" font-family="sans-serif" dy="1.5625" font-size="25" fill="#FFFFFF"/><text text-anchor="middle" pointer-events="none" x="0" y="5" font-size="10px" fill="#FFFFFF" font-family="sans-serif"> Jonathan</text></g><g class="node" transform="translate(-186.94101880340776,-151.72238326064195)"><circle class="outline" cx="0" cy="0" r="25" fill="#DA7194" stroke="#cc3c6c" stroke-width="2px"/><text text-anchor="middle" pointer-events="none" font-family="sans-serif" dy="1.5625" font-size="25" fill="#FFFFFF"/><text text-anchor="middle" pointer-events="none" x="0" y="5" font-size="10px" fill="#FFFFFF" font-family="sans-serif"> Patricia</text></g><g class="node" transform="translate(252.19556863548246,92.33948016278572)"><circle class="outline" cx="0" cy="0" r="25" fill="#DA7194" stroke="#cc3c6c" stroke-width="2px"/><text text-anchor="middle" pointer-events="none" font-family="sans-serif" dy="1.5625" font-size="25" fill="#FFFFFF"/><text text-anchor="middle" pointer-events="none" x="0" y="5" font-size="10px" fill="#FFFFFF" font-family="sans-serif"> Roy</text></g><g class="node" transform="translate(133.06808685130432,161.51803606289252)"><circle class="outline" cx="0" cy="0" r="25" fill="#DA7194" stroke="#cc3c6c" stroke-width="2px"/><text text-anchor="middle" pointer-events="none" font-family="sans-serif" dy="1.5625" font-size="25" fill="#FFFFFF"/><text text-anchor="middle" pointer-events="none" x="0" y="5" font-size="10px" fill="#FFFFFF" font-family="sans-serif"> Brandon</text></g></g></svg>