<svg xmlns="http://www.w3.org/2000/svg" width="577.4747924804688" height="536.4381103515625" viewBox="-219.64271545410156 -231.9133758544922 577.4747924804688 536.4381103515625"><title>Neo4j Graph Visualization</title><desc>Created using Neo4j (http://www.neo4j.com/)</desc><g class="layer relationships"><g class="relationship" transform="translate(71.02535072445815 4.1791954462530825) rotate(235.5255474379224)"><path class="outline" fill="#A5ABB6" stroke="none" d="M 25 0.5 L 55.9594898513038 0.5 L 55.9594898513038 -0.5 L 25 -0.5 Z M 130.08740428001474 0.5 L 161.04689413131854 0.5 L 161.04689413131854 3.5 L 168.04689413131854 0 L 161.04689413131854 -3.5 L 161.04689413131854 -0.5 L 130.08740428001474 -0.5 Z"/><text text-anchor="middle" pointer-events="none" font-size="8px" fill="#000000" x="93.02344706565927" y="3" transform="rotate(180 93.02344706565927 0)" font-family="sans-serif">CURRENT_ADDRESS</text></g><g class="relationship" transform="translate(26.220133117524085 -179.1417827884118) rotate(519.4422490593099)"><path class="outline" fill="#A5ABB6" stroke="none" d="M 25 0.5 L 30.925669564693052 0.5 L 30.925669564693052 -0.5 L 25 -0.5 Z M 30.925669564693052 0.5 L 36.851339129386105 0.5 L 36.851339129386105 3.5 L 43.851339129386105 0 L 36.851339129386105 -3.5 L 36.851339129386105 -0.5 L 30.925669564693052 -0.5 Z"/><text text-anchor="middle" pointer-events="none" font-size="8px" fill="#000000" x="30.925669564693052" y="3" transform="rotate(180 30.925669564693052 0)" font-family="sans-serif"/></g><g class="relationship" transform="translate(71.02535072445815 4.1791954462530825) rotate(256.2656714276227)"><path class="outline" fill="#A5ABB6" stroke="none" d="M 24.018736134675446,-6.953439040707552 L 24.277555179777966,-5.987513214418485 A 266.687418150785 266.687418150785 0 0 1 67.09268363342005,-13.783716862098345 L 66.99440882677663,-14.77887617717272 A 267.687418150785 267.687418150785 0 0 0 24.018736134675446,-6.953439040707552 Z M 114.66623034573352,-15.220708175304367 L 114.58641750878024,-14.223898308249716 A 266.687418150785 266.687418150785 0 0 1 157.53869213843802,-7.2226041452805525 L 156.81607813777643,-4.310932974621366 L 164.4530272034197,-6.021783338846683 L 158.50217747265347,-11.104832372826134 L 157.77956347199188,-8.193161202166948 A 267.687418150785 267.687418150785 0 0 0 114.66623034573352,-15.220708175304367"/><text text-anchor="middle" pointer-events="none" font-size="8px" fill="#000000" x="90.82509788626894" y="-12.563191728143977" transform="rotate(180 90.82509788626894 -15.563191728143977)" font-family="sans-serif">FAMILY_REL</text></g><g class="relationship" transform="translate(177.53719420658362 -85.3781739732041) rotate(499.94218021871893)"><path class="outline" fill="#A5ABB6" stroke="none" d="M 24.018736134675446,6.953439040707552 L 24.277555179777966,5.987513214418485 A 169.49470413772536 169.49470413772536 0 0 0 49.96032629974175,10.78447785670312 L 49.85303276247513,11.778705243602502 A 170.49470413772536 170.49470413772536 0 0 1 24.018736134675446,6.953439040707552 Z M 82.22476023786102,12.180628529002377 L 82.14218437338226,11.18404374755849 A 169.49470413772536 169.49470413772536 0 0 0 107.93613717030532,7.026207616844006 L 107.23186517458558,4.110045591845234 L 114.85789389458907,5.868933297664432 L 108.87516649793162,10.914423650175705 L 108.17089450221188,7.998261625176932 A 170.49470413772536 170.49470413772536 0 0 1 82.22476023786102,12.180628529002377"/><text text-anchor="middle" pointer-events="none" font-size="8px" fill="#000000" x="66.03554251126955" y="15.249804045612848" transform="rotate(180 66.03554251126955 12.249804045612848)" font-family="sans-serif">KNOWS</text></g><g class="relationship" transform="translate(177.53719420658362 -85.3781739732041) rotate(336.4949342282864)"><path class="outline" fill="#A5ABB6" stroke="none" d="M 25 0.5 L 37.96120655965105 0.5 L 37.96120655965105 -0.5 L 25 -0.5 Z M 79.16115773152606 0.5 L 92.1223642911771 0.5 L 92.1223642911771 3.5 L 99.1223642911771 0 L 92.1223642911771 -3.5 L 92.1223642911771 -0.5 L 79.16115773152606 -0.5 Z"/><text text-anchor="middle" pointer-events="none" font-size="8px" fill="#000000" x="58.56118214558855" y="3" font-family="sans-serif">PARTY_TO</text></g><g class="relationship" transform="translate(177.53719420658362 -85.3781739732041) rotate(280.305722276799)"><path class="outline" fill="#A5ABB6" stroke="none" d="M 25 0.5 L 35.6312620011835 0.5 L 35.6312620011835 -0.5 L 25 -0.5 Z M 76.8312131730585 0.5 L 87.462475174242 0.5 L 87.462475174242 3.5 L 94.462475174242 0 L 87.462475174242 -3.5 L 87.462475174242 -0.5 L 76.8312131730585 -0.5 Z"/><text text-anchor="middle" pointer-events="none" font-size="8px" fill="#000000" x="56.231237587121" y="3" font-family="sans-serif">PARTY_TO</text></g><g class="relationship" transform="translate(71.02535072445815 4.1791954462530825) rotate(426.30594651293586)"><path class="outline" fill="#A5ABB6" stroke="none" d="M 24.018736134675446,-6.953439040707552 L 24.277555179777966,-5.987513214418485 A 182.9905243883144 182.9905243883144 0 0 1 53.37949205337398,-11.309483857825512 L 53.27970822045458,-12.304492996822688 A 183.9905243883144 183.9905243883144 0 0 0 24.018736134675446,-6.953439040707552 Z M 85.65158675633847,-12.688392922083437 L 85.57542740607761,-11.69129726299758 A 182.9905243883144 182.9905243883144 0 0 1 114.79538914779312,-7.060969290085054 L 114.08787052636806,-4.145593259392477 L 121.71585298964663,-5.895988511875377 L 115.73874730969318,-10.948137331008489 L 115.03122868826813,-8.032761300315913 A 183.9905243883144 183.9905243883144 0 0 0 85.65158675633847,-12.688392922083437"/><text text-anchor="middle" pointer-events="none" font-size="8px" fill="#000000" x="69.46311653179605" y="-9.70986269271981" font-family="sans-serif">KNOWS</text></g><g class="relationship" transform="translate(129.70013199349782 137.88177920656818) rotate(443.46252691541633)"><path class="outline" fill="#A5ABB6" stroke="none" d="M 25 0.5 L 44.3198241872268 0.5 L 44.3198241872268 -0.5 L 25 -0.5 Z M 85.5197753591018 0.5 L 104.8395995463286 0.5 L 104.8395995463286 3.5 L 111.8395995463286 0 L 104.8395995463286 -3.5 L 104.8395995463286 -0.5 L 85.5197753591018 -0.5 Z"/><text text-anchor="middle" pointer-events="none" font-size="8px" fill="#000000" x="64.9197997731643" y="3" font-family="sans-serif">PARTY_TO</text></g><g class="relationship" transform="translate(129.70013199349782 137.88177920656818) rotate(407.46991547669427)"><path class="outline" fill="#A5ABB6" stroke="none" d="M 25 0.5 L 44.65605910258621 0.5 L 44.65605910258621 -0.5 L 25 -0.5 Z M 85.85601027446121 0.5 L 105.51206937704742 0.5 L 105.51206937704742 3.5 L 112.51206937704742 0 L 105.51206937704742 -3.5 L 105.51206937704742 -0.5 L 85.85601027446121 -0.5 Z"/><text text-anchor="middle" pointer-events="none" font-size="8px" fill="#000000" x="65.25603468852371" y="3" font-family="sans-serif">PARTY_TO</text></g><g class="relationship" transform="translate(71.02535072445815 4.1791954462530825) rotate(390.37863548561575)"><path class="outline" fill="#A5ABB6" stroke="none" d="M 24.018736134675446,-6.953439040707552 L 24.277555179777966,-5.987513214418485 A 163.88475048011043 163.88475048011043 0 0 1 48.541444412963415,-10.563316324720063 L 48.43067995599129,-11.557163010618666 A 164.88475048011043 164.88475048011043 0 0 0 24.018736134675446,-6.953439040707552 Z M 80.80215859233823,-11.967072650422267 L 80.71659513819614,-10.970739927224201 A 163.88475048011043 163.88475048011043 0 0 1 105.08856978087734,-7.010797144677529 L 104.38573709151802,-4.094287893746213 L 112.01089681461029,-5.856939077994337 L 106.02568003335642,-10.899476145919284 L 105.32284734399711,-7.9829668949879675 A 164.88475048011043 164.88475048011043 0 0 0 80.80215859233823,-11.967072650422267"/><text text-anchor="middle" pointer-events="none" font-size="8px" fill="#000000" x="64.61266535440777" y="-9.058573247559167" font-family="sans-serif">KNOWS</text></g><g class="relationship" transform="translate(188.6247359770444 73.1154133398912) rotate(388.63011276611684)"><path class="outline" fill="#A5ABB6" stroke="none" d="M 25 0.5 L 45.55855506246621 0.5 L 45.55855506246621 -0.5 L 25 -0.5 Z M 86.75850623434121 0.5 L 107.31706129680742 0.5 L 107.31706129680742 3.5 L 114.31706129680742 0 L 107.31706129680742 -3.5 L 107.31706129680742 -0.5 L 86.75850623434121 -0.5 Z"/><text text-anchor="middle" pointer-events="none" font-size="8px" fill="#000000" x="66.15853064840371" y="3" font-family="sans-serif">PARTY_TO</text></g><g class="relationship" transform="translate(71.02535072445815 4.1791954462530825) rotate(500.97905133390225)"><path class="outline" fill="#A5ABB6" stroke="none" d="M 21.40063509461097,-12.933012701892217 L 21.90063509461097,-12.06698729810778 A 75.84830541688349 75.84830541688349 0 0 1 41.88035864549508,-20.07549495061312 L 41.64377552001943,-21.04710620247272 A 76.84830541688349 76.84830541688349 0 0 0 21.40063509461097,-12.933012701892217 Z M 73.92903111290573,-21.923345351904814 L 73.74549754982532,-20.940331907834477 A 75.84830541688349 75.84830541688349 0 0 1 94.13019869834731,-14.027336386684746 L 92.77332945624325,-11.351723212133546 L 100.59944097931746,-11.307243684200479 L 95.9393576878194,-17.594820619419682 L 94.58248844571533,-14.919207444868482 A 76.84830541688349 76.84830541688349 0 0 0 73.92903111290573,-21.923345351904814"/><text text-anchor="middle" pointer-events="none" font-size="8px" fill="#000000" x="57.753416607625695" y="-19.700629501910925" transform="rotate(180 57.753416607625695 -22.700629501910925)" font-family="sans-serif">KNOWS</text></g><g class="relationship" transform="translate(-24.454664250821782 81.55520593970898) rotate(508.5319191681241)"><path class="outline" fill="#A5ABB6" stroke="none" d="M 25 0.5 L 43.82896568501154 0.5 L 43.82896568501154 -0.5 L 25 -0.5 Z M 85.02891685688654 0.5 L 103.85788254189808 0.5 L 103.85788254189808 3.5 L 110.85788254189808 0 L 103.85788254189808 -3.5 L 103.85788254189808 -0.5 L 85.02891685688654 -0.5 Z"/><text text-anchor="middle" pointer-events="none" font-size="8px" fill="#000000" x="64.42894127094904" y="3" transform="rotate(180 64.42894127094904 0)" font-family="sans-serif">PARTY_TO</text></g><g class="relationship" transform="translate(71.02535072445815 4.1791954462530825) rotate(525.241309619123)"><path class="outline" fill="#A5ABB6" stroke="none" d="M 24.018736134675446,6.953439040707552 L 24.277555179777966,5.987513214418485 A 179.72041501322823 179.72041501322823 0 0 0 52.55030901836348,11.183108387615249 L 52.44880517774958,12.177943534933974 A 180.72041501322823 180.72041501322823 0 0 1 24.018736134675446,6.953439040707552 Z M 84.82069560243002,12.566064124153485 L 84.7430725280116,11.569081346810862 A 179.72041501322823 179.72041501322823 0 0 0 113.1322658840762,7.052830754452795 L 112.42550736971329,4.137270361942375 L 120.05303321899434,5.889654286357709 L 114.07461056989344,10.940244611133355 L 113.36785205553052,8.024684218622934 A 180.72041501322823 180.72041501322823 0 0 1 84.82069560243002,12.566064124153485"/><text text-anchor="middle" pointer-events="none" font-size="8px" fill="#000000" x="68.63203619367597" y="15.598386225479203" transform="rotate(180 68.63203619367597 12.598386225479203)" font-family="sans-serif">KNOWS</text></g><g class="relationship" transform="translate(-68.56154521070879 40.95199859686515) rotate(191.34055664095774)"><path class="outline" fill="#A5ABB6" stroke="none" d="M 25 0.5 L 38.15611304183383 0.5 L 38.15611304183383 -0.5 L 25 -0.5 Z M 79.35606421370883 0.5 L 92.51217725554265 0.5 L 92.51217725554265 3.5 L 99.51217725554265 0 L 92.51217725554265 -3.5 L 92.51217725554265 -0.5 L 79.35606421370883 -0.5 Z"/><text text-anchor="middle" pointer-events="none" font-size="8px" fill="#000000" x="58.75608862777133" y="3" transform="rotate(180 58.75608862777133 0)" font-family="sans-serif">PARTY_TO</text></g><g class="relationship" transform="translate(71.02535072445815 4.1791954462530825) rotate(355.2997587571525)"><path class="outline" fill="#A5ABB6" stroke="none" d="M 24.018736134675446,-6.953439040707552 L 24.277555179777966,-5.987513214418485 A 143.12709890958342 143.12709890958342 0 0 1 43.305973696363864,-9.726100007783401 L 43.180102350624736,-10.718146581449076 A 144.12709890958342 144.12709890958342 0 0 0 24.018736134675446,-6.953439040707552 Z M 75.54915763945324,-11.160489925923855 L 75.45044210643242,-10.165374232378412 A 143.12709890958342 143.12709890958342 0 0 1 94.57391602854568,-6.948156862643236 L 93.87693393289722,-4.030243917001183 L 101.49854325098521,-5.808184130403839 L 95.5032254894103,-10.83870745683264 L 94.80624339376183,-7.9207945111905875 A 144.12709890958342 144.12709890958342 0 0 0 75.54915763945324,-11.160489925923855"/><text text-anchor="middle" pointer-events="none" font-size="8px" fill="#000000" x="59.35900353859865" y="-8.351041594553408" font-family="sans-serif">KNOWS</text></g><g class="relationship" transform="translate(196.4167263379984 -6.130383733058924) rotate(364.43186336228024)"><path class="outline" fill="#A5ABB6" stroke="none" d="M 25 0.5 L 42.306243602888316 0.5 L 42.306243602888316 -0.5 L 25 -0.5 Z M 83.50619477476332 0.5 L 100.81243837765163 0.5 L 100.81243837765163 3.5 L 107.81243837765163 0 L 100.81243837765163 -3.5 L 100.81243837765163 -0.5 L 83.50619477476332 -0.5 Z"/><text text-anchor="middle" pointer-events="none" font-size="8px" fill="#000000" x="62.906219188825816" y="3" font-family="sans-serif">PARTY_TO</text></g><g class="relationship" transform="translate(71.02535072445815 4.1791954462530825) rotate(467.36663323117864)"><path class="outline" fill="#A5ABB6" stroke="none" d="M 24.018736134675446,-6.953439040707552 L 24.277555179777966,-5.987513214418485 A 175.43124377559732 175.43124377559732 0 0 1 51.46339137946502,-11.016565868490858 L 51.35953809539001,-12.01115849634752 A 176.43124377559732 176.43124377559732 0 0 0 24.018736134675446,-6.953439040707552 Z M 83.73140023099893,-12.404954355762186 L 83.6517720554251,-11.4081297204051 A 175.43124377559732 175.43124377559732 0 0 1 110.95189976377083,-7.041885615724063 L 110.24616348725611,-4.126077613126645 L 117.87307448258392,-5.881135637622627 L 111.89288146579044,-10.929629619187287 L 111.18714518927572,-8.013821616589869 A 176.43124377559732 176.43124377559732 0 0 0 83.73140023099893,-12.404954355762186"/><text text-anchor="middle" pointer-events="none" font-size="8px" fill="#000000" x="67.54249955560653" y="-9.452172063981436" transform="rotate(180 67.54249955560653 -12.452172063981436)" font-family="sans-serif">KNOWS</text></g><g class="relationship" transform="translate(28.589293863027613 139.86968605174863) rotate(487.0984972203155)"><path class="outline" fill="#A5ABB6" stroke="none" d="M 25 0.5 L 42.909216578892085 0.5 L 42.909216578892085 -0.5 L 25 -0.5 Z M 84.10916775076709 0.5 L 102.01838432965917 0.5 L 102.01838432965917 3.5 L 109.01838432965917 0 L 102.01838432965917 -3.5 L 102.01838432965917 -0.5 L 84.10916775076709 -0.5 Z"/><text text-anchor="middle" pointer-events="none" font-size="8px" fill="#000000" x="63.509192164829585" y="3" transform="rotate(180 63.509192164829585 0)" font-family="sans-serif">PARTY_TO</text></g><g class="relationship" transform="translate(28.589293863027613 139.86968605174863) rotate(451.55367505021127)"><path class="outline" fill="#A5ABB6" stroke="none" d="M 25 0.5 L 43.752484704973185 0.5 L 43.752484704973185 -0.5 L 25 -0.5 Z M 84.95243587684818 0.5 L 103.70492058182137 0.5 L 103.70492058182137 3.5 L 110.70492058182137 0 L 103.70492058182137 -3.5 L 103.70492058182137 -0.5 L 84.95243587684818 -0.5 Z"/><text text-anchor="middle" pointer-events="none" font-size="8px" fill="#000000" x="64.35246029091068" y="3" transform="rotate(180 64.35246029091068 0)" font-family="sans-serif">PARTY_TO</text></g><g class="relationship" transform="translate(71.02535072445815 4.1791954462530825) rotate(256.2656714276227)"><path class="outline" fill="#A5ABB6" stroke="none" d="M 24.018736134675446,6.953439040707552 L 24.277555179777966,5.987513214418485 A 266.687418150785 266.687418150785 0 0 0 74.7110473644965,14.425930044911581 L 74.64133919884388,15.423497472026838 A 267.687418150785 267.687418150785 0 0 1 24.018736134675446,6.953439040707552 Z M 107.00866566398493,15.72348434206043 L 106.95745919461757,14.724796253869272 A 266.687418150785 266.687418150785 0 0 0 157.53869213843802,7.2226041452805525 L 156.81607813777643,4.310932974621366 L 164.4530272034197,6.021783338846683 L 158.50217747265347,11.104832372826134 L 157.77956347199188,8.193161202166948 A 267.687418150785 267.687418150785 0 0 1 107.00866566398493,15.72348434206043"/><text text-anchor="middle" pointer-events="none" font-size="8px" fill="#000000" x="90.82509788626902" y="18.563191728143977" transform="rotate(180 90.82509788626902 15.563191728143977)" font-family="sans-serif">KNOWS</text></g><g class="relationship" transform="translate(71.02535072445815 4.1791954462530825) rotate(500.97905133390225)"><path class="outline" fill="#A5ABB6" stroke="none" d="M 25 0.5 L 27.956142469396802 0.5 L 27.956142469396802 -0.5 L 25 -0.5 Z M 87.940074964514 0.5 L 90.89621743391079 0.5 L 90.89621743391079 3.5 L 97.89621743391079 0 L 90.89621743391079 -3.5 L 90.89621743391079 -0.5 L 87.940074964514 -0.5 Z"/><text text-anchor="middle" pointer-events="none" font-size="8px" fill="#000000" x="57.948108716955396" y="3" transform="rotate(180 57.948108716955396 0)" font-family="sans-serif">KNOWS_PHONE</text></g><g class="relationship" transform="translate(71.02535072445815 4.1791954462530825) rotate(426.30594651293586)"><path class="outline" fill="#A5ABB6" stroke="none" d="M 24.018736134675446,6.953439040707552 L 24.277555179777966,5.987513214418485 A 182.9905243883144 182.9905243883144 0 0 0 47.41281611293593,10.61201979798696 L 47.28042580511635,11.603217460613052 A 183.9905243883144 183.9905243883144 0 0 1 24.018736134675446,6.953439040707552 Z M 91.66581255728748,12.129586254377642 L 91.55696551389165,11.135527744457846 A 182.9905243883144 182.9905243883144 0 0 0 114.79538914779312,7.060969290085054 L 114.08787052636806,4.145593259392477 L 121.71585298964663,5.895988511875377 L 115.73874730969318,10.948137331008489 L 115.03122868826813,8.032761300315913 A 183.9905243883144 183.9905243883144 0 0 1 91.66581255728748,12.129586254377642"/><text text-anchor="middle" pointer-events="none" font-size="8px" fill="#000000" x="69.46311653179608" y="15.70986269271981" font-family="sans-serif">KNOWS_SN</text></g><g class="relationship" transform="translate(71.02535072445815 4.1791954462530825) rotate(390.37863548561575)"><path class="outline" fill="#A5ABB6" stroke="none" d="M 24.018736134675446,6.953439040707552 L 24.277555179777966,5.987513214418485 A 163.88475048011043 163.88475048011043 0 0 0 42.586258211135444,9.788899699509557 L 42.43915610722313,10.778021012101988 A 164.88475048011043 164.88475048011043 0 0 1 24.018736134675446,6.953439040707552 Z M 86.81149023259287,11.339893631604525 L 86.68948113006454,10.347364650213933 A 163.88475048011043 163.88475048011043 0 0 0 105.08856978087734,7.010797144677529 L 104.38573709151802,4.094287893746213 L 112.01089681461029,5.856939077994337 L 106.02568003335642,10.899476145919284 L 105.32284734399711,7.9829668949879675 A 164.88475048011043 164.88475048011043 0 0 1 86.81149023259287,11.339893631604525"/><text text-anchor="middle" pointer-events="none" font-size="8px" fill="#000000" x="64.61266535440778" y="15.058573247559167" font-family="sans-serif">KNOWS_SN</text></g><g class="relationship" transform="translate(71.02535072445815 4.1791954462530825) rotate(500.97905133390225)"><path class="outline" fill="#A5ABB6" stroke="none" d="M 21.40063509461097,12.933012701892217 L 21.90063509461097,12.06698729810778 A 75.84830541688349 75.84830541688349 0 0 0 36.12757414335531,18.43185057791362 L 35.81514509791454,19.38179167691132 A 76.84830541688349 76.84830541688349 0 0 1 21.40063509461097,12.933012701892217 Z M 79.83940953734174,20.576633821363075 L 79.57896629626161,19.611144661312224 A 75.84830541688349 75.84830541688349 0 0 0 94.13019869834731,14.027336386684746 L 92.77332945624325,11.351723212133546 L 100.59944097931746,11.307243684200479 L 95.9393576878194,17.594820619419682 L 94.58248844571533,14.919207444868482 A 76.84830541688349 76.84830541688349 0 0 1 79.83940953734174,20.576633821363075"/><text text-anchor="middle" pointer-events="none" font-size="8px" fill="#000000" x="57.7534166076257" y="25.700629501910925" transform="rotate(180 57.7534166076257 22.700629501910925)" font-family="sans-serif">KNOWS_SN</text></g><g class="relationship" transform="translate(71.02535072445815 4.1791954462530825) rotate(525.241309619123)"><path class="outline" fill="#A5ABB6" stroke="none" d="M 24.018736134675446,-6.953439040707552 L 24.277555179777966,-5.987513214418485 A 179.72041501322823 179.72041501322823 0 0 1 46.58536439855838,-10.473589831027283 L 46.45067042415046,-11.464477076508928 A 180.72041501322823 180.72041501322823 0 0 0 24.018736134675446,-6.953439040707552 Z M 90.83421183902027,-11.99661054229054 L 90.72331351876895,-11.00277878461452 A 179.72041501322823 179.72041501322823 0 0 1 113.1322658840762,-7.052830754452795 L 112.42550736971329,-4.137270361942375 L 120.05303321899434,-5.889654286357709 L 114.07461056989344,-10.940244611133355 L 113.36785205553052,-8.024684218622934 A 180.72041501322823 180.72041501322823 0 0 0 90.83421183902027,-11.99661054229054"/><text text-anchor="middle" pointer-events="none" font-size="8px" fill="#000000" x="68.63203619367597" y="-9.598386225479203" transform="rotate(180 68.63203619367597 -12.598386225479203)" font-family="sans-serif">KNOWS_SN</text></g><g class="relationship" transform="translate(71.02535072445815 4.1791954462530825) rotate(355.2997587571525)"><path class="outline" fill="#A5ABB6" stroke="none" d="M 24.018736134675446,6.953439040707552 L 24.277555179777966,5.987513214418485 A 143.12709890958342 143.12709890958342 0 0 0 37.36829167427973,8.845844579689214 L 37.2009349489911,9.831740987280114 A 144.12709890958342 144.12709890958342 0 0 1 24.018736134675446,6.953439040707552 Z M 81.55031429557887,10.437802937822113 L 81.4099608145141,9.447701478196393 A 143.12709890958342 143.12709890958342 0 0 0 94.57391602854568,6.948156862643236 L 93.87693393289722,4.030243917001183 L 101.49854325098521,5.808184130403839 L 95.5032254894103,10.83870745683264 L 94.80624339376183,7.9207945111905875 A 144.12709890958342 144.12709890958342 0 0 1 81.55031429557887,10.437802937822113"/><text text-anchor="middle" pointer-events="none" font-size="8px" fill="#000000" x="59.35900353859866" y="14.351041594553408" font-family="sans-serif">KNOWS_SN</text></g><g class="relationship" transform="translate(71.02535072445815 4.1791954462530825) rotate(467.36663323117864)"><path class="outline" fill="#A5ABB6" stroke="none" d="M 24.018736134675446,6.953439040707552 L 24.277555179777966,5.987513214418485 A 175.43124377559732 175.43124377559732 0 0 0 45.50085270970901,10.290581747329071 L 45.36301153076742,11.281036092257693 A 176.43124377559732 176.43124377559732 0 0 1 24.018736134675446,6.953439040707552 Z M 89.74391320626235,11.820919007972748 L 89.63020652596,10.827404644284627 A 175.43124377559732 175.43124377559732 0 0 0 110.95189976377083,7.041885615724063 L 110.24616348725611,4.126077613126645 L 117.87307448258392,5.881135637622627 L 111.89288146579044,10.929629619187287 L 111.18714518927572,8.013821616589869 A 176.43124377559732 176.43124377559732 0 0 1 89.74391320626235,11.820919007972748"/><text text-anchor="middle" pointer-events="none" font-size="8px" fill="#000000" x="67.54249955560654" y="15.452172063981436" transform="rotate(180 67.54249955560654 12.452172063981436)" font-family="sans-serif">KNOWS_SN</text></g><g class="relationship" transform="translate(177.53719420658362 -85.3781739732041) rotate(499.94218021871893)"><path class="outline" fill="#A5ABB6" stroke="none" d="M 24.018736134675446,-6.953439040707552 L 24.277555179777966,-5.987513214418485 A 169.49470413772536 169.49470413772536 0 0 1 44.00139620528627,-10.034384273788817 L 43.858945639811765,-11.024186191546107 A 170.49470413772536 170.49470413772536 0 0 0 24.018736134675446,-6.953439040707552 Z M 88.23573276024253,-11.575162783342023 L 88.11790082987726,-10.582129230944929 A 169.49470413772536 169.49470413772536 0 0 1 107.93613717030532,-7.026207616844006 L 107.23186517458558,-4.110045591845234 L 114.85789389458907,-5.868933297664432 L 108.87516649793162,-10.914423650175705 L 108.17089450221188,-7.998261625176932 A 170.49470413772536 170.49470413772536 0 0 0 88.23573276024253,-11.575162783342023"/><text text-anchor="middle" pointer-events="none" font-size="8px" fill="#000000" x="66.0355425112695" y="-9.249804045612848" transform="rotate(180 66.0355425112695 -12.249804045612848)" font-family="sans-serif">KNOWS_SN</text></g></g><g class="layer nodes"><g class="node" transform="translate(71.02535072445815,4.1791954462530825)"><circle class="outline" cx="0" cy="0" r="25" fill="#DA7194" stroke="#cc3c6c" stroke-width="2px"/><text text-anchor="middle" pointer-events="none" font-family="sans-serif" dy="1.5625" font-size="25" fill="#FFFFFF"/><text text-anchor="middle" pointer-events="none" x="0" y="5" font-size="10px" fill="#FFFFFF" font-family="sans-serif"> Bonnie</text></g><g class="node" transform="translate(291.3604824378593,-134.88191497781528)"><circle class="outline" cx="0" cy="0" r="25" fill="#8DCC93" stroke="#5db665" stroke-width="2px"/><text text-anchor="middle" pointer-events="none" font-family="sans-serif" dy="1.5625" font-size="25" fill="#2A2C34"/><text text-anchor="middle" pointer-events="none" x="0" y="5" font-size="10px" fill="#2A2C34" font-family="sans-serif"> </text></g><g class="node" transform="translate(198.90908804098032,-202.91338201184954)"><circle class="outline" cx="0" cy="0" r="25" fill="#8DCC93" stroke="#5db665" stroke-width="2px"/><text text-anchor="middle" pointer-events="none" font-family="sans-serif" dy="1.5625" font-size="25" fill="#2A2C34"/><text text-anchor="middle" pointer-events="none" x="0" y="5" font-size="10px" fill="#2A2C34" font-family="sans-serif"> </text></g><g class="node" transform="translate(145.2797328399562,273.8315936288932)"><circle class="outline" cx="0" cy="0" r="25" fill="#8DCC93" stroke="#5db665" stroke-width="2px"/><text text-anchor="middle" pointer-events="none" font-family="sans-serif" dy="1.5625" font-size="25" fill="#2A2C34"/><text text-anchor="middle" pointer-events="none" x="0" y="5" font-size="10px" fill="#2A2C34" font-family="sans-serif"> </text></g><g class="node" transform="translate(222.6551610649566,239.21751720004292)"><circle class="outline" cx="0" cy="0" r="25" fill="#8DCC93" stroke="#5db665" stroke-width="2px"/><text text-anchor="middle" pointer-events="none" font-family="sans-serif" dy="1.5625" font-size="25" fill="#2A2C34"/><text text-anchor="middle" pointer-events="none" x="0" y="5" font-size="10px" fill="#2A2C34" font-family="sans-serif"> </text></g><g class="node" transform="translate(310.90767706293514,139.86963333955092)"><circle class="outline" cx="0" cy="0" r="25" fill="#8DCC93" stroke="#5db665" stroke-width="2px"/><text text-anchor="middle" pointer-events="none" font-family="sans-serif" dy="1.5625" font-size="25" fill="#2A2C34"/><text text-anchor="middle" pointer-events="none" x="0" y="5" font-size="10px" fill="#2A2C34" font-family="sans-serif"> </text></g><g class="node" transform="translate(-140.33207923698117,152.4762109022275)"><circle class="outline" cx="0" cy="0" r="25" fill="#8DCC93" stroke="#5db665" stroke-width="2px"/><text text-anchor="middle" pointer-events="none" font-family="sans-serif" dy="1.5625" font-size="25" fill="#2A2C34"/><text text-anchor="middle" pointer-events="none" x="0" y="5" font-size="10px" fill="#2A2C34" font-family="sans-serif"> </text></g><g class="node" transform="translate(-190.64271098460054,16.467896648800295)"><circle class="outline" cx="0" cy="0" r="25" fill="#8DCC93" stroke="#5db665" stroke-width="2px"/><text text-anchor="middle" pointer-events="none" font-family="sans-serif" dy="1.5625" font-size="25" fill="#2A2C34"/><text text-anchor="middle" pointer-events="none" x="0" y="5" font-size="10px" fill="#2A2C34" font-family="sans-serif"> </text></g><g class="node" transform="translate(328.83204662901824,4.13249793069121)"><circle class="outline" cx="0" cy="0" r="25" fill="#8DCC93" stroke="#5db665" stroke-width="2px"/><text text-anchor="middle" pointer-events="none" font-family="sans-serif" dy="1.5625" font-size="25" fill="#2A2C34"/><text text-anchor="middle" pointer-events="none" x="0" y="5" font-size="10px" fill="#2A2C34" font-family="sans-serif"> </text></g><g class="node" transform="translate(-52.24886245829194,246.76271585679316)"><circle class="outline" cx="0" cy="0" r="25" fill="#8DCC93" stroke="#5db665" stroke-width="2px"/><text text-anchor="middle" pointer-events="none" font-family="sans-serif" dy="1.5625" font-size="25" fill="#2A2C34"/><text text-anchor="middle" pointer-events="none" x="0" y="5" font-size="10px" fill="#2A2C34" font-family="sans-serif"> </text></g><g class="node" transform="translate(24.90986908156468,275.5247165644281)"><circle class="outline" cx="0" cy="0" r="25" fill="#8DCC93" stroke="#5db665" stroke-width="2px"/><text text-anchor="middle" pointer-events="none" font-family="sans-serif" dy="1.5625" font-size="25" fill="#2A2C34"/><text text-anchor="middle" pointer-events="none" x="0" y="5" font-size="10px" fill="#2A2C34" font-family="sans-serif"> </text></g><g class="node" transform="translate(-38.24666488533701,-154.96454441906866)"><circle class="outline" cx="0" cy="0" r="25" fill="#569480" stroke="#447666" stroke-width="2px"/><text text-anchor="middle" pointer-events="none" font-family="sans-serif" dy="1.5625" font-size="25" fill="#FFFFFF"/><text text-anchor="middle" pointer-events="none" x="0" y="5" font-size="10px" fill="#FFFFFF" font-family="sans-serif"> </text></g><g class="node" transform="translate(26.220133117524085,-179.1417827884118)"><circle class="outline" cx="0" cy="0" r="25" fill="#DA7194" stroke="#cc3c6c" stroke-width="2px"/><text text-anchor="middle" pointer-events="none" font-family="sans-serif" dy="1.5625" font-size="25" fill="#FFFFFF"/><text text-anchor="middle" pointer-events="none" x="0" y="5" font-size="10px" fill="#FFFFFF" font-family="sans-serif"> Kimberly</text></g><g class="node" transform="translate(177.53719420658362,-85.3781739732041)"><circle class="outline" cx="0" cy="0" r="25" fill="#DA7194" stroke="#cc3c6c" stroke-width="2px"/><text text-anchor="middle" pointer-events="none" font-family="sans-serif" dy="1.5625" font-size="25" fill="#FFFFFF"/><text text-anchor="middle" pointer-events="none" x="0" y="5" font-size="10px" fill="#FFFFFF" font-family="sans-serif"> Amy</text></g><g class="node" transform="translate(129.70013199349782,137.88177920656818)"><circle class="outline" cx="0" cy="0" r="25" fill="#DA7194" stroke="#cc3c6c" stroke-width="2px"/><text text-anchor="middle" pointer-events="none" font-family="sans-serif" dy="1.5625" font-size="25" fill="#FFFFFF"/><text text-anchor="middle" pointer-events="none" x="0" y="5" font-size="10px" fill="#FFFFFF" font-family="sans-serif"> Billy</text></g><g class="node" transform="translate(188.6247359770444,73.1154133398912)"><circle class="outline" cx="0" cy="0" r="25" fill="#DA7194" stroke="#cc3c6c" stroke-width="2px"/><text text-anchor="middle" pointer-events="none" font-family="sans-serif" dy="1.5625" font-size="25" fill="#FFFFFF"/><text text-anchor="middle" pointer-events="none" x="0" y="5" font-size="10px" fill="#FFFFFF" font-family="sans-serif"> Joan</text></g><g class="node" transform="translate(-24.454664250821782,81.55520593970898)"><circle class="outline" cx="0" cy="0" r="25" fill="#DA7194" stroke="#cc3c6c" stroke-width="2px"/><text text-anchor="middle" pointer-events="none" font-family="sans-serif" dy="1.5625" font-size="25" fill="#FFFFFF"/><text text-anchor="middle" pointer-events="none" x="0" y="5" font-size="10px" fill="#FFFFFF" font-family="sans-serif"> Fred</text></g><g class="node" transform="translate(-68.56154521070879,40.95199859686515)"><circle class="outline" cx="0" cy="0" r="25" fill="#DA7194" stroke="#cc3c6c" stroke-width="2px"/><text text-anchor="middle" pointer-events="none" font-family="sans-serif" dy="1.5625" font-size="25" fill="#FFFFFF"/><text text-anchor="middle" pointer-events="none" x="0" y="5" font-size="10px" fill="#FFFFFF" font-family="sans-serif"> Maria</text></g><g class="node" transform="translate(196.4167263379984,-6.130383733058924)"><circle class="outline" cx="0" cy="0" r="25" fill="#DA7194" stroke="#cc3c6c" stroke-width="2px"/><text text-anchor="middle" pointer-events="none" font-family="sans-serif" dy="1.5625" font-size="25" fill="#FFFFFF"/><text text-anchor="middle" pointer-events="none" x="0" y="5" font-size="10px" fill="#FFFFFF" font-family="sans-serif"> Kenneth</text></g><g class="node" transform="translate(28.589293863027613,139.86968605174863)"><circle class="outline" cx="0" cy="0" r="25" fill="#DA7194" stroke="#cc3c6c" stroke-width="2px"/><text text-anchor="middle" pointer-events="none" font-family="sans-serif" dy="1.5625" font-size="25" fill="#FFFFFF"/><text text-anchor="middle" pointer-events="none" x="0" y="5" font-size="10px" fill="#FFFFFF" font-family="sans-serif"> Stephanie</text></g></g></svg>