<svg xmlns="http://www.w3.org/2000/svg" width="455.810546875" height="226.29119873046875" viewBox="-173.4458465576172 -17.672801971435547 455.810546875 226.29119873046875"><title>Neo4j Graph Visualization</title><desc>Created using Neo4j (http://www.neo4j.com/)</desc><g class="layer relationships"><g class="relationship" transform="translate(-144.44585031189297 109.0423841397311) rotate(271.5341502655688)"><path class="outline" fill="#A5ABB6" stroke="none" d="M 25 0.5 L 25.953477016391105 0.5 L 25.953477016391105 -0.5 L 25 -0.5 Z M 62.30545150369579 0.5 L 63.2589285200869 0.5 L 63.2589285200869 3.5 L 70.2589285200869 0 L 63.2589285200869 -3.5 L 63.2589285200869 -0.5 L 62.30545150369579 -0.5 Z"/><text text-anchor="middle" pointer-events="none" font-size="8px" fill="#000000" x="44.12946426004345" y="3" font-family="sans-serif">CURRE…</text></g><g class="relationship" transform="translate(185.00744269326404 111.49951494911377) rotate(270.16125169484894)"><path class="outline" fill="#A5ABB6" stroke="none" d="M 25 0.5 L 25.746375599861032 0.5 L 25.746375599861032 -0.5 L 25 -0.5 Z M 67.42633775806416 0.5 L 68.17271335792519 0.5 L 68.17271335792519 3.5 L 75.17271335792519 0 L 68.17271335792519 -3.5 L 68.17271335792519 -0.5 L 67.42633775806416 -0.5 Z"/><text text-anchor="middle" pointer-events="none" font-size="8px" fill="#000000" x="46.586356678962595" y="3" font-family="sans-serif">CURREN…</text></g><g class="relationship" transform="translate(-144.44585031189297 109.0423841397311) rotate(360.42731585270735)"><path class="outline" fill="#A5ABB6" stroke="none" d="M 24.018736134675446,6.953439040707552 L 24.277555179777966,5.987513214418485 A 540.3317241688047 540.3317241688047 0 0 0 145.06907207191637,24.062717563045794 L 145.03380369298648,25.062095440251255 A 541.3317241688047 541.3317241688047 0 0 1 24.018736134675446,6.953439040707552 Z M 177.3863766375369,25.23642637829539 L 177.3618802336172,24.236726460222485 A 540.3317241688047 540.3317241688047 0 0 0 298.34117262770013,7.464297382260673 L 297.5959888606369,4.558320583780425 L 305.24598245199786,6.209864725526596 L 299.3347509837844,11.33893311356767 L 298.58956721672115,8.432956315087422 A 541.3317241688047 541.3317241688047 0 0 1 177.3863766375369,25.23642637829539"/><text text-anchor="middle" pointer-events="none" font-size="8px" fill="#000000" x="161.21148169610032" y="27.891018720787542" font-family="sans-serif">KNOWS</text></g><g class="relationship" transform="translate(-141.8955045517851 13.817601654818464) rotate(359.173466105143)"><path class="outline" fill="#A5ABB6" stroke="none" d="M 25 0.5 L 41.36828563238831 0.5 L 41.36828563238831 -0.5 L 25 -0.5 Z M 114.984176135318 0.5 L 131.3524617677063 0.5 L 131.3524617677063 3.5 L 138.3524617677063 0 L 131.3524617677063 -3.5 L 131.3524617677063 -0.5 L 114.984176135318 -0.5 Z"/><text text-anchor="middle" pointer-events="none" font-size="8px" fill="#000000" x="78.17623088385315" y="3" font-family="sans-serif">LOCATION_IN_AREA</text></g><g class="relationship" transform="translate(185.2893657008574 11.327198309700691) rotate(539.9531402900573)"><path class="outline" fill="#A5ABB6" stroke="none" d="M 25 0.5 L 41.61678473281144 0.5 L 41.61678473281144 -0.5 L 25 -0.5 Z M 115.23267523574113 0.5 L 131.84945996855257 0.5 L 131.84945996855257 3.5 L 138.84945996855257 0 L 131.84945996855257 -3.5 L 131.84945996855257 -0.5 L 115.23267523574113 -0.5 Z"/><text text-anchor="middle" pointer-events="none" font-size="8px" fill="#000000" x="78.42472998427628" y="3" transform="rotate(180 78.42472998427628 0)" font-family="sans-serif">LOCATION_IN_AREA</text></g><g class="relationship" transform="translate(185.00744269326404 111.49951494911377) rotate(361.2470749317516)"><path class="outline" fill="#A5ABB6" stroke="none" d="M 25 0.5 L 30.686719213544798 0.5 L 30.686719213544798 -0.5 L 25 -0.5 Z M 30.686719213544798 0.5 L 36.373438427089596 0.5 L 36.373438427089596 3.5 L 43.373438427089596 0 L 36.373438427089596 -3.5 L 36.373438427089596 -0.5 L 30.686719213544798 -0.5 Z"/><text text-anchor="middle" pointer-events="none" font-size="8px" fill="#000000" x="30.686719213544798" y="3" font-family="sans-serif"/></g><g class="relationship" transform="translate(185.00744269326404 111.49951494911377) rotate(449.9881312004569)"><path class="outline" fill="#A5ABB6" stroke="none" d="M 25 0.5 L 30.55944236162368 0.5 L 30.55944236162368 -0.5 L 25 -0.5 Z M 30.55944236162368 0.5 L 36.11888472324736 0.5 L 36.11888472324736 3.5 L 43.11888472324736 0 L 36.11888472324736 -3.5 L 36.11888472324736 -0.5 L 30.55944236162368 -0.5 Z"/><text text-anchor="middle" pointer-events="none" font-size="8px" fill="#000000" x="30.55944236162368" y="3" font-family="sans-serif"/></g><g class="relationship" transform="translate(-144.44585031189297 109.0423841397311) rotate(360.42731585270735)"><path class="outline" fill="#A5ABB6" stroke="none" d="M 24.018736134675446,-6.953439040707552 L 24.277555179777966,-5.987513214418485 A 540.3317241688047 540.3317241688047 0 0 1 139.0557051067289,-23.816965619234338 L 139.00930769965538,-24.815888679643308 A 541.3317241688047 541.3317241688047 0 0 0 24.018736134675446,-6.953439040707552 Z M 183.4131760704296,-25.055157687370524 L 183.37754638323128,-24.055792626249172 A 540.3317241688047 540.3317241688047 0 0 1 298.34117262770013,-7.464297382260673 L 297.5959888606369,-4.558320583780425 L 305.24598245199786,-6.209864725526596 L 299.3347509837844,-11.33893311356767 L 298.58956721672115,-8.432956315087422 A 541.3317241688047 541.3317241688047 0 0 0 183.4131760704296,-25.055157687370524"/><text text-anchor="middle" pointer-events="none" font-size="8px" fill="#000000" x="161.21148169610007" y="-21.891018720787542" font-family="sans-serif">KNOWS_SN</text></g></g><g class="layer nodes"><g class="node" transform="translate(-141.8955045517851,13.817601654818464)"><circle class="outline" cx="0" cy="0" r="25" fill="#569480" stroke="#447666" stroke-width="2px"/><text text-anchor="middle" pointer-events="none" font-family="sans-serif" dy="1.5625" font-size="25" fill="#FFFFFF"/><text text-anchor="middle" pointer-events="none" x="0" y="5" font-size="10px" fill="#FFFFFF" font-family="sans-serif"> </text></g><g class="node" transform="translate(-144.44585031189297,109.0423841397311)"><circle class="outline" cx="0" cy="0" r="25" fill="#DA7194" stroke="#cc3c6c" stroke-width="2px"/><text text-anchor="middle" pointer-events="none" font-family="sans-serif" dy="1.5625" font-size="25" fill="#FFFFFF"/><text text-anchor="middle" pointer-events="none" x="0" y="5" font-size="10px" fill="#FFFFFF" font-family="sans-serif"> Anne</text></g><g class="node" transform="translate(21.439960530836487,11.461203595564477)"><circle class="outline" cx="0" cy="0" r="25" fill="#57C7E3" stroke="#23b3d7" stroke-width="2px"/><text text-anchor="middle" pointer-events="none" font-family="sans-serif" dy="1.5625" font-size="25" fill="#2A2C34"/><text text-anchor="middle" pointer-events="none" x="0" y="5" font-size="10px" fill="#2A2C34" font-family="sans-serif"> </text></g><g class="node" transform="translate(253.36468615163608,112.98758387085942)"><circle class="outline" cx="0" cy="0" r="25" fill="#8DCC93" stroke="#5db665" stroke-width="2px"/><text text-anchor="middle" pointer-events="none" font-family="sans-serif" dy="1.5625" font-size="25" fill="#2A2C34"/><text text-anchor="middle" pointer-events="none" x="0" y="5" font-size="10px" fill="#2A2C34" font-family="sans-serif"> </text></g><g class="node" transform="translate(185.2893657008574,11.327198309700691)"><circle class="outline" cx="0" cy="0" r="25" fill="#569480" stroke="#447666" stroke-width="2px"/><text text-anchor="middle" pointer-events="none" font-family="sans-serif" dy="1.5625" font-size="25" fill="#FFFFFF"/><text text-anchor="middle" pointer-events="none" x="0" y="5" font-size="10px" fill="#FFFFFF" font-family="sans-serif"> </text></g><g class="node" transform="translate(185.00744269326404,111.49951494911377)"><circle class="outline" cx="0" cy="0" r="25" fill="#DA7194" stroke="#cc3c6c" stroke-width="2px"/><text text-anchor="middle" pointer-events="none" font-family="sans-serif" dy="1.5625" font-size="25" fill="#FFFFFF"/><text text-anchor="middle" pointer-events="none" x="0" y="5" font-size="10px" fill="#FFFFFF" font-family="sans-serif"> Craig</text></g><g class="node" transform="translate(185.02155349494902,179.61839821083746)"><circle class="outline" cx="0" cy="0" r="25" fill="#8DCC93" stroke="#5db665" stroke-width="2px"/><text text-anchor="middle" pointer-events="none" font-family="sans-serif" dy="1.5625" font-size="25" fill="#2A2C34"/><text text-anchor="middle" pointer-events="none" x="0" y="5" font-size="10px" fill="#2A2C34" font-family="sans-serif"> </text></g></g></svg>