<svg xmlns="http://www.w3.org/2000/svg" width="564.7412719726562" height="519.0740356445312" viewBox="-254.79922485351562 -132.375244140625 564.7412719726562 519.0740356445312"><title>Neo4j Graph Visualization</title><desc>Created using Neo4j (http://www.neo4j.com/)</desc><g class="layer relationships"><g class="relationship" transform="translate(219.97461360893485 16.74920559801987) rotate(212.46441692490941)"><path class="outline" fill="#A5ABB6" stroke="none" d="M 25 0.5 L 52.554189029843414 0.5 L 52.554189029843414 -0.5 L 25 -0.5 Z M 121.2900746499606 0.5 L 148.84426367980402 0.5 L 148.84426367980402 3.5 L 155.84426367980402 0 L 148.84426367980402 -3.5 L 148.84426367980402 -0.5 L 121.2900746499606 -0.5 Z"/><text text-anchor="middle" pointer-events="none" font-size="8px" fill="#000000" x="86.92213183990201" y="3" transform="rotate(180 86.92213183990201 0)" font-family="sans-serif">INVESTIGATED_BY</text></g><g class="relationship" transform="translate(280.9420387523804 195.20944669322427) rotate(251.1382784711542)"><path class="outline" fill="#A5ABB6" stroke="none" d="M 25 0.5 L 70.19356154728828 0.5 L 70.19356154728828 -0.5 L 25 -0.5 Z M 111.39351271916328 0.5 L 156.58707426645157 0.5 L 156.58707426645157 3.5 L 163.58707426645157 0 L 156.58707426645157 -3.5 L 156.58707426645157 -0.5 L 111.39351271916328 -0.5 Z"/><text text-anchor="middle" pointer-events="none" font-size="8px" fill="#000000" x="90.79353713322578" y="3" transform="rotate(180 90.79353713322578 0)" font-family="sans-serif">PARTY_TO</text></g><g class="relationship" transform="translate(142.339263350247 225.0446669885674) rotate(347.85204509280516)"><path class="outline" fill="#A5ABB6" stroke="none" d="M 24.018736134675446,6.953439040707552 L 24.277555179777966,5.987513214418485 A 174.65514854312758 174.65514854312758 0 0 0 51.26680445364138,10.986331708703545 L 51.16251420141437,11.980878612218106 A 175.65514854312758 175.65514854312758 0 0 1 24.018736134675446,6.953439040707552 Z M 83.53436538755129,12.375718719202752 L 83.45436356832678,11.378924001660181 A 174.65514854312758 174.65514854312758 0 0 0 110.55750703893031,7.039871487870737 L 109.85195887558766,4.124017961164741 L 117.47875662846808,5.879568027855526 L 111.4982379233872,10.9276761901454 L 110.79268976004454,8.011822663439403 A 175.65514854312758 175.65514854312758 0 0 1 83.53436538755129,12.375718719202752"/><text text-anchor="middle" pointer-events="none" font-size="8px" fill="#000000" x="67.3454220420811" y="15.425715860512895" font-family="sans-serif">KNOWS</text></g><g class="relationship" transform="translate(111.60876587215466 294.6830004584392) rotate(293.8112486664005)"><path class="outline" fill="#A5ABB6" stroke="none" d="M 24.018736134675446,6.953439040707552 L 24.277555179777966,5.987513214418485 A 43.119708808126475 43.119708808126475 0 0 0 25.880180962608677,6.384213390527826 L 25.65852881466592,7.359339190264642 A 44.119708808126475 44.119708808126475 0 0 1 24.018736134675446,6.953439040707552 Z M 43.327607769034756,7.745585392625969 L 43.148779509656364,6.761705088093095 A 43.119708808126475 43.119708808126475 0 0 0 44.76720981665031,6.43541722297634 L 44.11812476696444,3.5064773809389016 L 51.709583623018645,5.409042080715557 L 45.6326565495648,10.340670345692924 L 44.983571499878934,7.411730503655487 A 44.119708808126475 44.119708808126475 0 0 1 43.327607769034756,7.745585392625969"/><text text-anchor="middle" pointer-events="none" font-size="8px" fill="#000000" x="34.484457611870816" y="10.946363340773189" font-family="sans-serif">K…</text></g><g class="relationship" transform="translate(111.60876587215466 294.6830004584392) rotate(481.34622940800904)"><path class="outline" fill="#A5ABB6" stroke="none" d="M 25 0.5 L 33.12576484831006 0.5 L 33.12576484831006 -0.5 L 25 -0.5 Z M 33.12576484831006 0.5 L 41.251529696620125 0.5 L 41.251529696620125 3.5 L 48.251529696620125 0 L 41.251529696620125 -3.5 L 41.251529696620125 -0.5 L 33.12576484831006 -0.5 Z"/><text text-anchor="middle" pointer-events="none" font-size="8px" fill="#000000" x="33.12576484831006" y="3" transform="rotate(180 33.12576484831006 0)" font-family="sans-serif"/></g><g class="relationship" transform="translate(111.60876587215466 294.6830004584392) rotate(434.36818277101906)"><path class="outline" fill="#A5ABB6" stroke="none" d="M 25 0.5 L 29.2180422246901 0.5 L 29.2180422246901 -0.5 L 25 -0.5 Z M 29.2180422246901 0.5 L 33.4360844493802 0.5 L 33.4360844493802 3.5 L 40.4360844493802 0 L 33.4360844493802 -3.5 L 33.4360844493802 -0.5 L 29.2180422246901 -0.5 Z"/><text text-anchor="middle" pointer-events="none" font-size="8px" fill="#000000" x="29.2180422246901" y="3" font-family="sans-serif"/></g><g class="relationship" transform="translate(111.60876587215466 294.6830004584392) rotate(386.5710275715923)"><path class="outline" fill="#A5ABB6" stroke="none" d="M 25 0.5 L 25.936650070797683 0.5 L 25.936650070797683 -0.5 L 25 -0.5 Z M 43.28064421142268 0.5 L 44.217294282220365 0.5 L 44.217294282220365 3.5 L 51.217294282220365 0 L 44.217294282220365 -3.5 L 44.217294282220365 -0.5 L 43.28064421142268 -0.5 Z"/><text text-anchor="middle" pointer-events="none" font-size="8px" fill="#000000" x="34.60864714111018" y="3" font-family="sans-serif">P…</text></g><g class="relationship" transform="translate(94.35547073464969 148.76922677933732) rotate(417.8265869070206)"><path class="outline" fill="#A5ABB6" stroke="none" d="M 24.018736134675446,-6.953439040707552 L 24.277555179777966,-5.987513214418485 A 71.73026167434264 71.73026167434264 0 0 1 25.619238773400863,-6.333163624760104 L 25.379124296806875,-7.303908204003278 A 72.73026167434264 72.73026167434264 0 0 0 24.018736134675446,-6.953439040707552 Z M 57.65422153305131,-7.907511478757542 L 57.450571660484016,-6.928467695567377 A 71.73026167434264 71.73026167434264 0 0 1 58.804241120083184,-6.633225310882037 L 58.13667650776111,-3.708441987561269 L 65.73999630988533,-5.563038436017315 L 59.69432726984596,-10.53293640864306 L 59.02676265752388,-7.608153085322292 A 72.73026167434264 72.73026167434264 0 0 0 57.65422153305131,-7.907511478757542"/><text text-anchor="middle" pointer-events="none" font-size="8px" fill="#000000" x="41.49211134747485" y="-5.919034356034871" font-family="sans-serif">KNOWS</text></g><g class="relationship" transform="translate(-22.961104340627557 155.56073101092545) rotate(356.68682187626064)"><path class="outline" fill="#A5ABB6" stroke="none" d="M 24.018736134675446,6.953439040707552 L 24.277555179777966,5.987513214418485 A 126.65704814021942 126.65704814021942 0 0 0 39.172042162792295,9.033883452735978 L 39.03082010263233,10.023861396795425 A 127.65704814021942 127.65704814021942 0 0 1 24.018736134675446,6.953439040707552 Z M 71.3951350620081,10.495684018785624 L 71.28283163782639,9.502010057711345 A 126.65704814021942 126.65704814021942 0 0 0 86.25979289174649,6.891120225745307 L 85.56813817803915,3.9719399029480953 L 93.18648943055786,5.76378928089441 L 87.18199917668959,10.78336065614159 L 86.49034446298225,7.864180333344378 A 127.65704814021942 127.65704814021942 0 0 1 71.3951350620081,10.495684018785624"/><text text-anchor="middle" pointer-events="none" font-size="8px" fill="#000000" x="55.205251504658264" y="13.78973714611486" font-family="sans-serif">KNOWS</text></g><g class="relationship" transform="translate(-22.961104340627557 155.56073101092545) rotate(244.4597439529606)"><path class="outline" fill="#A5ABB6" stroke="none" d="M 25 0.5 L 28.38619455156197 0.5 L 28.38619455156197 -0.5 L 25 -0.5 Z M 28.38619455156197 0.5 L 31.772389103123942 0.5 L 31.772389103123942 3.5 L 38.77238910312394 0 L 31.772389103123942 -3.5 L 31.772389103123942 -0.5 L 28.38619455156197 -0.5 Z"/><text text-anchor="middle" pointer-events="none" font-size="8px" fill="#000000" x="28.38619455156197" y="3" transform="rotate(180 28.38619455156197 0)" font-family="sans-serif"/></g><g class="relationship" transform="translate(-22.961104340627557 155.56073101092545) rotate(286.78799111376543)"><path class="outline" fill="#A5ABB6" stroke="none" d="M 25 0.5 L 26.42017318647668 0.5 L 26.42017318647668 -0.5 L 25 -0.5 Z M 48.604163664992306 0.5 L 50.02433685146899 0.5 L 50.02433685146899 3.5 L 57.02433685146899 0 L 50.02433685146899 -3.5 L 50.02433685146899 -0.5 L 48.604163664992306 -0.5 Z"/><text text-anchor="middle" pointer-events="none" font-size="8px" fill="#000000" x="37.512168425734494" y="3" font-family="sans-serif">PA…</text></g><g class="relationship" transform="translate(-22.961104340627557 155.56073101092545) rotate(322.96744559801937)"><path class="outline" fill="#A5ABB6" stroke="none" d="M 25 0.5 L 27.48342834780491 0.5 L 27.48342834780491 -0.5 L 25 -0.5 Z M 68.6833795196799 0.5 L 71.16680786748482 0.5 L 71.16680786748482 3.5 L 78.16680786748482 0 L 71.16680786748482 -3.5 L 71.16680786748482 -0.5 L 68.6833795196799 -0.5 Z"/><text text-anchor="middle" pointer-events="none" font-size="8px" fill="#000000" x="48.08340393374241" y="3" font-family="sans-serif">PARTY_TO</text></g><g class="relationship" transform="translate(-46.07276816411957 246.7877405113319) rotate(353.41708789534187)"><path class="outline" fill="#A5ABB6" stroke="none" d="M 24.018736134675446,6.953439040707552 L 24.277555179777966,5.987513214418485 A 268.534389705347 268.534389705347 0 0 0 75.18353895383217,14.492952338827024 L 75.11428960901985,15.490551721466716 A 269.534389705347 269.534389705347 0 0 1 24.018736134675446,6.953439040707552 Z M 107.48148458961693,15.789093337230327 L 107.43064834900179,14.79038633483168 A 268.534389705347 268.534389705347 0 0 0 158.48485920933373,7.225385863447278 L 157.7619854301523,4.31377917651789 L 165.39908710869923,6.023948159845453 L 159.448690914909,11.107528112686461 L 158.72581713572757,8.195921425757074 A 269.534389705347 269.534389705347 0 0 1 107.48148458961693,15.789093337230327"/><text text-anchor="middle" pointer-events="none" font-size="8px" fill="#000000" x="91.298013140839" y="18.62615739772906" font-family="sans-serif">KNOWS</text></g><g class="relationship" transform="translate(-151.69338106529906 209.3655228801811) rotate(379.5096384049958)"><path class="outline" fill="#A5ABB6" stroke="none" d="M 24.018736134675446,6.953439040707552 L 24.277555179777966,5.987513214418485 A 115.79186197302936 115.79186197302936 0 0 0 36.45744908861771,8.558373736334786 L 36.30381786674647,9.546501990999317 A 116.79186197302936 116.79186197302936 0 0 1 24.018736134675446,6.953439040707552 Z M 68.66258305124384,10.0399172460926 L 68.53915074627474,9.047564251392615 A 115.79186197302936 115.79186197302936 0 0 0 80.79176621856254,6.849257279654231 L 80.1040217232249,3.929153255970695 L 87.7199663563804,5.731204127813662 L 81.70875887901273,10.74272931123228 L 81.0210143836751,7.822625287548743 A 116.79186197302936 116.79186197302936 0 0 1 68.66258305124384,10.0399172460926"/><text text-anchor="middle" pointer-events="none" font-size="8px" fill="#000000" x="52.473650489482466" y="13.41950809187118" font-family="sans-serif">KNOWS</text></g><g class="relationship" transform="translate(-151.69338106529906 209.3655228801811) rotate(200.63396909574982)"><path class="outline" fill="#A5ABB6" stroke="none" d="M 25 0.5 L 25.000771372255997 0.5 L 25.000771372255997 -0.5 L 25 -0.5 Z M 47.18476185077162 0.5 L 47.18553322302762 0.5 L 47.18553322302762 3.5 L 54.18553322302762 0 L 47.18553322302762 -3.5 L 47.18553322302762 -0.5 L 47.18476185077162 -0.5 Z"/><text text-anchor="middle" pointer-events="none" font-size="8px" fill="#000000" x="36.09276661151381" y="3" transform="rotate(180 36.09276661151381 0)" font-family="sans-serif">PA…</text></g><g class="relationship" transform="translate(-151.69338106529906 209.3655228801811) rotate(283.86058250872526)"><path class="outline" fill="#A5ABB6" stroke="none" d="M 25 0.5 L 75.36606158519838 0.5 L 75.36606158519838 -0.5 L 25 -0.5 Z M 116.56601275707338 0.5 L 166.93207434227176 0.5 L 166.93207434227176 3.5 L 173.93207434227176 0 L 166.93207434227176 -3.5 L 166.93207434227176 -0.5 L 116.56601275707338 -0.5 Z"/><text text-anchor="middle" pointer-events="none" font-size="8px" fill="#000000" x="95.96603717113588" y="3" font-family="sans-serif">PARTY_TO</text></g><g class="relationship" transform="translate(-151.69338106529906 209.3655228801811) rotate(266.3973575598419)"><path class="outline" fill="#A5ABB6" stroke="none" d="M 25 0.5 L 72.41324213105698 0.5 L 72.41324213105698 -0.5 L 25 -0.5 Z M 113.61319330293198 0.5 L 161.02643543398895 0.5 L 161.02643543398895 3.5 L 168.02643543398895 0 L 161.02643543398895 -3.5 L 161.02643543398895 -0.5 L 113.61319330293198 -0.5 Z"/><text text-anchor="middle" pointer-events="none" font-size="8px" fill="#000000" x="93.01321771699448" y="3" transform="rotate(180 93.01321771699448 0)" font-family="sans-serif">PARTY_TO</text></g><g class="relationship" transform="translate(-151.69338106529906 209.3655228801811) rotate(506.2127712318154)"><path class="outline" fill="#A5ABB6" stroke="none" d="M 25 0.5 L 26.322605303990578 0.5 L 26.322605303990578 -0.5 L 25 -0.5 Z M 43.66659944461558 0.5 L 44.989204748606156 0.5 L 44.989204748606156 3.5 L 51.989204748606156 0 L 44.989204748606156 -3.5 L 44.989204748606156 -0.5 L 43.66659944461558 -0.5 Z"/><text text-anchor="middle" pointer-events="none" font-size="8px" fill="#000000" x="34.99460237430308" y="3" transform="rotate(180 34.99460237430308 0)" font-family="sans-serif">P…</text></g><g class="relationship" transform="translate(-22.961104340627557 155.56073101092545) rotate(464.2163382569362)"><path class="outline" fill="#A5ABB6" stroke="none" d="M 24.018736134675446,-6.953439040707552 L 24.277555179777966,-5.987513214418485 A 79.81289372945045 79.81289372945045 0 0 1 27.577740972553524,-6.7969098117516324 L 27.360270958147254,-7.772976813977479 A 80.81289372945045 80.81289372945045 0 0 0 24.018736134675446,-6.953439040707552 Z M 59.66513165381976,-8.353203593348795 L 59.48285282611893,-7.369956712361102 A 79.81289372945045 79.81289372945045 0 0 1 62.80997577489255,-6.679593038377578 L 62.13807968826087,-3.7558017242155985 L 69.74413818904245,-5.599134055263992 L 63.70583722373479,-10.577981457260218 L 63.03394113710311,-7.654190143098238 A 80.81289372945045 80.81289372945045 0 0 0 59.66513165381976,-8.353203593348795"/><text text-anchor="middle" pointer-events="none" font-size="8px" fill="#000000" x="43.49238690110756" y="-6.194120419718047" transform="rotate(180 43.49238690110756 -9.194120419718047)" font-family="sans-serif">KNOWS</text></g><g class="relationship" transform="translate(94.35547073464969 148.76922677933732) rotate(373.9765698461898)"><path class="outline" fill="#A5ABB6" stroke="none" d="M 24.018736134675446,-6.953439040707552 L 24.277555179777966,-5.987513214418485 A 273.64456968369217 273.64456968369217 0 0 1 76.49111825015616,-14.678119814288323 L 76.4231071685763,-15.675804380061663 A 274.64456968369217 274.64456968369217 0 0 0 24.018736134675446,-6.953439040707552 Z M 108.78993824384652,-15.970418042802578 L 108.74009943998155,-14.971660768171091 A 273.64456968369217 273.64456968369217 0 0 1 161.10320766006905,-7.232945816096199 L 160.37962787553073,-4.321514502221955 L 168.01714402319865,-6.029831537819196 L 162.06798070612012,-11.114854234595189 L 161.3444009215818,-8.203422920720946 A 274.64456968369217 274.64456968369217 0 0 0 108.78993824384652,-15.970418042802578"/><text text-anchor="middle" pointer-events="none" font-size="8px" fill="#000000" x="92.60672970658872" y="-12.80036974661681" font-family="sans-serif">KNOWS</text></g><g class="relationship" transform="translate(-22.961104340627557 155.56073101092545) rotate(517.3170804562719)"><path class="outline" fill="#A5ABB6" stroke="none" d="M 24.018736134675446,-6.953439040707552 L 24.277555179777966,-5.987513214418485 A 170.21389645568576 170.21389645568576 0 0 1 50.14233339840456,-10.81269744315614 L 50.03546891610332,-11.806971038512302 A 171.21389645568576 171.21389645568576 0 0 0 24.018736134675446,-6.953439040707552 Z M 82.40721925515786,-12.207892350679487 L 82.32501175785238,-11.211277115301868 A 170.21389645568576 170.21389645568576 0 0 1 108.30135724415715,-7.028140694369266 L 107.59690470380399,-4.112022277982514 L 115.22304230578509,-5.8704378362763485 L 109.24062729796135,-10.916298582884934 L 108.5361747576082,-8.000180166498183 A 171.21389645568576 171.21389645568576 0 0 0 82.40721925515786,-12.207892350679487"/><text text-anchor="middle" pointer-events="none" font-size="8px" fill="#000000" x="66.21803869681919" y="-9.274320029360666" transform="rotate(180 66.21803869681919 -12.274320029360666)" font-family="sans-serif">KNOWS</text></g><g class="relationship" transform="translate(45.46563741810802 233.55505225779672) rotate(299.96892889162774)"><path class="outline" fill="#A5ABB6" stroke="none" d="M 24.018736134675446,6.953439040707552 L 24.277555179777966,5.987513214418485 A 87.39644691333835 87.39644691333835 0 0 0 29.430674174524366,7.2022675853053215 L 29.230817698001506,8.182092768076132 A 88.39644691333835 88.39644691333835 0 0 1 24.018736134675446,6.953439040707552 Z M 61.55490212545864,8.741787796995283 L 61.389086840772066,7.755630968004937 A 87.39644691333835 87.39644691333835 0 0 0 66.58117141664147,6.720004919364172 L 65.90550031112438,3.79708368245591 L 73.51393282034694,5.630592545975688 L 67.48206622399759,10.617233235241855 L 66.80639511848051,7.694311998333593 A 88.39644691333835 88.39644691333835 0 0 1 61.55490212545864,8.741787796995283"/><text text-anchor="middle" pointer-events="none" font-size="8px" fill="#000000" x="45.375711697333216" y="12.452301642390097" font-family="sans-serif">KNOWS</text></g><g class="relationship" transform="translate(45.46563741810802 233.55505225779672) rotate(228.73855861988676)"><path class="outline" fill="#A5ABB6" stroke="none" d="M 24.018736134675446,-6.953439040707552 L 24.277555179777966,-5.987513214418485 A 99.21112415143338 99.21112415143338 0 0 1 32.34000528244634,-7.791700301613119 L 32.16245182294854,-8.77581145845484 A 100.21112415143338 100.21112415143338 0 0 0 24.018736134675446,-6.953439040707552 Z M 64.5060721685249,-9.306025762188739 L 64.36087083787884,-8.316623632830499 A 99.21112415143338 99.21112415143338 0 0 1 72.47812554678077,-6.777673115618685 L 71.79706758649994,-3.8560023513575725 L 79.4088669901035,-5.675483002340263 L 73.38620282715522,-10.673234134633502 L 72.70514486687438,-7.751563370372389 A 100.21112415143338 100.21112415143338 0 0 0 64.5060721685249,-9.306025762188739"/><text text-anchor="middle" pointer-events="none" font-size="8px" fill="#000000" x="48.32092228061462" y="-6.854655015373183" transform="rotate(180 48.32092228061462 -9.854655015373183)" font-family="sans-serif">KNOWS</text></g><g class="relationship" transform="translate(45.46563741810802 233.55505225779672) rotate(402.7433987599286)"><path class="outline" fill="#A5ABB6" stroke="none" d="M 24.018736134675446,-6.953439040707552 L 24.277555179777966,-5.987513214418485 A 71.63073398810191 71.63073398810191 0 0 1 25.595247492096142,-6.327206498815343 L 25.354824074665636,-7.297874609114132 A 72.63073398810191 72.63073398810191 0 0 0 24.018736134675446,-6.953439040707552 Z M 57.62947532439473,-7.901775656946199 L 57.425532431896215,-6.922792870274563 A 71.63073398810191 71.63073398810191 0 0 1 58.755010148725766,-6.632631608455512 L 58.08750099822054,-3.707835626854096 L 65.69078563087994,-5.56257625421022 L 59.645022349399405,-10.532359583924066 L 58.97751319889418,-7.607563602322651 A 72.63073398810191 72.63073398810191 0 0 0 57.62947532439473,-7.901775656946199"/><text text-anchor="middle" pointer-events="none" font-size="8px" fill="#000000" x="41.467528934900095" y="-5.915647642016239" font-family="sans-serif">KNOWS</text></g><g class="relationship" transform="translate(-46.07276816411957 246.7877405113319) rotate(325.0850680919349)"><path class="outline" fill="#A5ABB6" stroke="none" d="M 24.018736134675446,6.953439040707552 L 24.277555179777966,5.987513214418485 A 232.5338656286091 232.5338656286091 0 0 0 65.98542543534633,13.175718526477056 L 65.90596895381199,14.172556862187605 A 233.5338656286091 233.5338656286091 0 0 1 24.018736134675446,6.953439040707552 Z M 98.27565581150095,14.50199700362191 L 98.21650418679529,13.503747993958143 A 232.5338656286091 232.5338656286091 0 0 0 140.062034855478,7.165901362810432 L 139.34471628595176,4.252921089994832 L 146.9785419203021,5.977654746051847 L 141.0184596148463,11.0498750598979 L 140.30114104532007,8.1368947870823 A 233.5338656286091 233.5338656286091 0 0 1 98.27565581150095,14.50199700362191"/><text text-anchor="middle" pointer-events="none" font-size="8px" fill="#000000" x="82.09018578162262" y="17.39884465553388" font-family="sans-serif">KNOWS</text></g><g class="relationship" transform="translate(-104.03718017174455 16.22604809961659) rotate(326.6227126053225)"><path class="outline" fill="#A5ABB6" stroke="none" d="M 25 0.5 L 49.69825313035484 0.5 L 49.69825313035484 -0.5 L 25 -0.5 Z M 118.43413875047203 0.5 L 143.13239188082687 0.5 L 143.13239188082687 3.5 L 150.13239188082687 0 L 143.13239188082687 -3.5 L 143.13239188082687 -0.5 L 118.43413875047203 -0.5 Z"/><text text-anchor="middle" pointer-events="none" font-size="8px" fill="#000000" x="84.06619594041344" y="3" font-family="sans-serif">INVESTIGATED_BY</text></g><g class="relationship" transform="translate(-46.07276816411957 246.7877405113319) rotate(409.9473797709044)"><path class="outline" fill="#A5ABB6" stroke="none" d="M 24.018736134675446,6.953439040707552 L 24.277555179777966,5.987513214418485 A 57.38809800371686 57.38809800371686 0 0 0 26.711400221674875,6.583030559067417 L 26.494991451987637,7.559333403681961 A 58.38809800371686 58.38809800371686 0 0 1 24.018736134675446,6.953439040707552 Z M 49.45756399878237,8.022472180613683 L 49.28069788314395,7.03823726092277 A 57.38809800371686 57.38809800371686 0 0 0 51.73657610805509,6.54134216117733 L 51.0775951359785,3.614612915339753 L 58.6754411770222,5.4915081006382245 L 52.61521740415721,10.4436478222941 L 51.956236432080615,7.516918576456523 A 58.38809800371686 58.38809800371686 0 0 1 49.45756399878237,8.022472180613683"/><text text-anchor="middle" pointer-events="none" font-size="8px" fill="#000000" x="37.96336349889221" y="11.431194379674174" font-family="sans-serif">KN…</text></g><g class="relationship" transform="translate(7.378705502781308 310.3700456547886) rotate(351.4409925916817)"><path class="outline" fill="#A5ABB6" stroke="none" d="M 24.018736134675446,6.953439040707552 L 24.277555179777966,5.987513214418485 A 102.51058619533951 102.51058619533951 0 0 0 33.156509177056,7.949101876060126 L 32.98430512779751,8.934163176395785 A 103.51058619533951 103.51058619533951 0 0 1 24.018736134675446,6.953439040707552 Z M 65.33182772629479,9.456651196022037 L 65.19152728893533,8.466542218546948 A 102.51058619533951 102.51058619533951 0 0 0 74.12920143908548,6.79273370231898 L 73.44673667833699,3.8713912283292395 L 81.05941133851962,5.687206339570784 L 75.0391544534168,10.687857000971968 L 74.35668969266831,7.7665145269822276 A 103.51058619533951 103.51058619533951 0 0 1 65.33182772629479,9.456651196022037"/><text text-anchor="middle" pointer-events="none" font-size="8px" fill="#000000" x="49.145602727272156" y="12.967041740410636" font-family="sans-serif">KNOWS</text></g><g class="relationship" transform="translate(-163.82249589008478 16.720540205004568) rotate(334.31900662479575)"><path class="outline" fill="#A5ABB6" stroke="none" d="M 25 0.5 L 75.88891638901413 0.5 L 75.88891638901413 -0.5 L 25 -0.5 Z M 144.62480200913132 0.5 L 195.51371839814544 0.5 L 195.51371839814544 3.5 L 202.51371839814544 0 L 195.51371839814544 -3.5 L 195.51371839814544 -0.5 L 144.62480200913132 -0.5 Z"/><text text-anchor="middle" pointer-events="none" font-size="8px" fill="#000000" x="110.25685919907272" y="3" font-family="sans-serif">INVESTIGATED_BY</text></g><g class="relationship" transform="translate(142.339263350247 225.0446669885674) rotate(347.85204509280516)"><path class="outline" fill="#A5ABB6" stroke="none" d="M 24.018736134675446,-6.953439040707552 L 24.277555179777966,-5.987513214418485 A 174.65514854312758 174.65514854312758 0 0 1 43.69017799448344,-10.02392484303752 L 43.54250724919707,-11.012961420210758 A 175.65514854312758 175.65514854312758 0 0 0 24.018736134675446,-6.953439040707552 Z M 91.17571335949573,-11.59394457401524 L 91.05220955336495,-10.60160047549337 A 174.65514854312758 174.65514854312758 0 0 1 110.55750703893031,-7.039871487870737 L 109.85195887558766,-4.124017961164741 L 117.47875662846808,-5.879568027855526 L 111.4982379233872,-10.9276761901454 L 110.79268976004454,-8.011822663439403 A 175.65514854312758 175.65514854312758 0 0 0 91.17571335949573,-11.59394457401524"/><text text-anchor="middle" pointer-events="none" font-size="8px" fill="#000000" x="67.34542204208108" y="-9.425715860512895" font-family="sans-serif">FAMILY_REL</text></g><g class="relationship" transform="translate(111.60876587215466 294.6830004584392) rotate(293.8112486664005)"><path class="outline" fill="#A5ABB6" stroke="none" d="M 24.018736134675446,-6.953439040707552 L 24.277555179777966,-5.987513214418485 A 43.119708808126475 43.119708808126475 0 0 1 25.880180962608687,-6.384213390527826 L 25.658528814665935,-7.359339190264642 A 44.119708808126475 44.119708808126475 0 0 0 24.018736134675446,-6.953439040707552 Z M 43.327607769034756,-7.745585392625969 L 43.148779509656364,-6.761705088093095 A 43.119708808126475 43.119708808126475 0 0 1 44.76720981665031,-6.43541722297634 L 44.11812476696444,-3.5064773809389016 L 51.709583623018645,-5.409042080715557 L 45.6326565495648,-10.340670345692924 L 44.983571499878934,-7.411730503655487 A 44.119708808126475 44.119708808126475 0 0 0 43.327607769034756,-7.745585392625969"/><text text-anchor="middle" pointer-events="none" font-size="8px" fill="#000000" x="34.484457611870816" y="-4.946363340773189" font-family="sans-serif">K…</text></g><g class="relationship" transform="translate(94.35547073464969 148.76922677933732) rotate(373.9765698461898)"><path class="outline" fill="#A5ABB6" stroke="none" d="M 24.018736134675446,6.953439040707552 L 24.277555179777966,5.987513214418485 A 273.64456968369217 273.64456968369217 0 0 0 68.8710690402412,14.05160824820365 L 68.77521143783059,15.04700330548502 A 274.64456968369217 274.64456968369217 0 0 1 24.018736134675446,6.953439040707552 Z M 116.44801295038079,15.480937002425264 L 116.37029056332553,14.483961962341311 A 273.64456968369217 273.64456968369217 0 0 0 161.10320766006905,7.232945816096199 L 160.37962787553073,4.321514502221955 L 168.01714402319865,6.029831537819196 L 162.06798070612012,11.114854234595189 L 161.3444009215818,8.203422920720946 A 274.64456968369217 274.64456968369217 0 0 1 116.44801295038079,15.480937002425264"/><text text-anchor="middle" pointer-events="none" font-size="8px" fill="#000000" x="92.60672970658878" y="18.80036974661681" font-family="sans-serif">FAMILY_REL</text></g><g class="relationship" transform="translate(94.35547073464969 148.76922677933732) rotate(417.8265869070206)"><path class="outline" fill="#A5ABB6" stroke="none" d="M 24.018736134675446,6.953439040707552 L 24.277555179777966,5.987513214418485 A 71.73026167434264 71.73026167434264 0 0 0 24.63768669268251,6.083008417417616 L 24.383888283285177,7.05026555354398 A 72.73026167434264 72.73026167434264 0 0 1 24.018736134675446,6.953439040707552 Z M 58.65824545055328,7.691258641026522 L 58.44079081646873,6.715188212156178 A 71.73026167434264 71.73026167434264 0 0 0 58.804241120083184,6.633225310882037 L 58.13667650776111,3.708441987561269 L 65.73999630988533,5.563038436017315 L 59.69432726984596,10.53293640864306 L 59.02676265752388,7.608153085322292 A 72.73026167434264 72.73026167434264 0 0 1 58.65824545055328,7.691258641026522"/><text text-anchor="middle" pointer-events="none" font-size="8px" fill="#000000" x="41.492111347474875" y="11.91903435603487" font-family="sans-serif">FAMIL…</text></g><g class="relationship" transform="translate(-22.961104340627557 155.56073101092545) rotate(356.68682187626064)"><path class="outline" fill="#A5ABB6" stroke="none" d="M 24.018736134675446,-6.953439040707552 L 24.277555179777966,-5.987513214418485 A 126.65704814021942 126.65704814021942 0 0 1 32.51889474228309,-7.90319242642903 L 32.32514384525063,-8.884243184493627 A 127.65704814021942 127.65704814021942 0 0 0 24.018736134675446,-6.953439040707552 Z M 78.13118233061707,-9.55202574711788 L 77.96611215860011,-8.565743922125506 A 126.65704814021942 126.65704814021942 0 0 1 86.25979289174649,-6.891120225745307 L 85.56813817803915,-3.9719399029480953 L 93.18648943055786,-5.76378928089441 L 87.18199917668959,-10.78336065614159 L 86.49034446298225,-7.864180333344378 A 127.65704814021942 127.65704814021942 0 0 0 78.13118233061707,-9.55202574711788"/><text text-anchor="middle" pointer-events="none" font-size="8px" fill="#000000" x="55.20525150465823" y="-7.7897371461148595" font-family="sans-serif">KNOWS_LW</text></g><g class="relationship" transform="translate(-22.961104340627557 155.56073101092545) rotate(464.2163382569362)"><path class="outline" fill="#A5ABB6" stroke="none" d="M 24.018736134675446,6.953439040707552 L 24.277555179777966,5.987513214418485 A 79.81289372945045 79.81289372945045 0 0 0 24.446109110686915,6.032479730247218 L 24.189401929006866,6.998968955678052 A 80.81289372945045 80.81289372945045 0 0 1 24.018736134675446,6.953439040707552 Z M 62.861750423833044,7.693562021076531 L 62.63991579479295,6.718477718383355 A 79.81289372945045 79.81289372945045 0 0 0 62.80997577489255,6.679593038377578 L 62.13807968826087,3.7558017242155985 L 69.74413818904245,5.599134055263992 L 63.70583722373479,10.577981457260218 L 63.03394113710311,7.654190143098238 A 80.81289372945045 80.81289372945045 0 0 1 62.861750423833044,7.693562021076531"/><text text-anchor="middle" pointer-events="none" font-size="8px" fill="#000000" x="43.492386901107565" y="12.194120419718047" transform="rotate(180 43.492386901107565 9.194120419718047)" font-family="sans-serif">FAMILY…</text></g><g class="relationship" transform="translate(-22.961104340627557 155.56073101092545) rotate(517.3170804562719)"><path class="outline" fill="#A5ABB6" stroke="none" d="M 24.018736134675446,6.953439040707552 L 24.277555179777966,5.987513214418485 A 170.21389645568576 170.21389645568576 0 0 0 42.569379437009054,9.826449314168315 L 42.41802414567821,10.814928740249684 A 171.21389645568576 171.21389645568576 0 0 1 24.018736134675446,6.953439040707552 Z M 90.04689651073615,11.404808181603329 L 89.92006835229435,10.412883477693669 A 170.21389645568576 170.21389645568576 0 0 0 108.30135724415715,7.028140694369266 L 107.59690470380399,4.112022277982514 L 115.22304230578509,5.8704378362763485 L 109.24062729796135,10.916298582884934 L 108.5361747576082,8.000180166498183 A 171.21389645568576 171.21389645568576 0 0 1 90.04689651073615,11.404808181603329"/><text text-anchor="middle" pointer-events="none" font-size="8px" fill="#000000" x="66.21803869681925" y="15.274320029360666" transform="rotate(180 66.21803869681925 12.274320029360666)" font-family="sans-serif">FAMILY_REL</text></g><g class="relationship" transform="translate(-46.07276816411957 246.7877405113319) rotate(409.9473797709044)"><path class="outline" fill="#A5ABB6" stroke="none" d="M 24.018736134675446,-6.953439040707552 L 24.277555179777966,-5.987513214418485 A 57.38809800371686 57.38809800371686 0 0 1 26.711400221674843,-6.58303055906741 L 26.49499145198761,-7.559333403681954 A 58.38809800371686 58.38809800371686 0 0 0 24.018736134675446,-6.953439040707552 Z M 49.45756399878236,-8.022472180613683 L 49.280697883143944,-7.03823726092277 A 57.38809800371686 57.38809800371686 0 0 1 51.73657610805509,-6.54134216117733 L 51.0775951359785,-3.614612915339753 L 58.6754411770222,-5.4915081006382245 L 52.61521740415721,-10.4436478222941 L 51.956236432080615,-7.516918576456523 A 58.38809800371686 58.38809800371686 0 0 0 49.45756399878236,-8.022472180613683"/><text text-anchor="middle" pointer-events="none" font-size="8px" fill="#000000" x="37.963363498892186" y="-5.431194379674174" font-family="sans-serif">KN…</text></g><g class="relationship" transform="translate(-46.07276816411957 246.7877405113319) rotate(353.41708789534187)"><path class="outline" fill="#A5ABB6" stroke="none" d="M 24.018736134675446,-6.953439040707552 L 24.277555179777966,-5.987513214418485 A 268.534389705347 268.534389705347 0 0 1 69.19034476956155,-14.009453057159988 L 69.09877726210777,-15.005251928207088 A 269.534389705347 269.534389705347 0 0 0 24.018736134675446,-6.953439040707552 Z M 113.50492513713749,-15.414835864794668 L 113.43174131945027,-14.417517395684229 A 268.534389705347 268.534389705347 0 0 1 158.48485920933373,-7.225385863447278 L 157.7619854301523,-4.31377917651789 L 165.39908710869923,-6.023948159845453 L 159.448690914909,-11.107528112686461 L 158.72581713572757,-8.195921425757074 A 269.534389705347 269.534389705347 0 0 0 113.50492513713749,-15.414835864794668"/><text text-anchor="middle" pointer-events="none" font-size="8px" fill="#000000" x="91.29801314083896" y="-12.62615739772906" font-family="sans-serif">KNOWS_SN</text></g><g class="relationship" transform="translate(-46.07276816411957 246.7877405113319) rotate(325.0850680919349)"><path class="outline" fill="#A5ABB6" stroke="none" d="M 24.018736134675446,-6.953439040707552 L 24.277555179777966,-5.987513214418485 A 232.5338656286091 232.5338656286091 0 0 1 60.000208968256715,-12.620710096788798 L 59.895013369321525,-13.615161647124296 A 233.5338656286091 233.5338656286091 0 0 0 24.018736134675446,-6.953439040707552 Z M 104.29671081875378,-14.067056704125434 L 104.21177683057357,-13.07067012370004 A 232.5338656286091 232.5338656286091 0 0 1 140.062034855478,-7.165901362810432 L 139.34471628595176,-4.252921089994832 L 146.9785419203021,-5.977654746051847 L 141.0184596148463,-11.0498750598979 L 140.30114104532007,-8.1368947870823 A 233.5338656286091 233.5338656286091 0 0 0 104.29671081875378,-14.067056704125434"/><text text-anchor="middle" pointer-events="none" font-size="8px" fill="#000000" x="82.09018578162252" y="-11.398844655533878" font-family="sans-serif">KNOWS_SN</text></g><g class="relationship" transform="translate(-151.69338106529906 209.3655228801811) rotate(379.5096384049958)"><path class="outline" fill="#A5ABB6" stroke="none" d="M 24.018736134675446,-6.953439040707552 L 24.277555179777966,-5.987513214418485 A 115.79186197302936 115.79186197302936 0 0 1 28.964974402266876,-7.139348807351695 L 28.746636779110748,-8.115222099492911 A 116.79186197302936 116.79186197302936 0 0 0 24.018736134675446,-6.953439040707552 Z M 76.25988966232524,-8.83971710596228 L 76.07140739169299,-7.857640513400725 A 115.79186197302936 115.79186197302936 0 0 1 80.79176621856254,-6.849257279654231 L 80.1040217232249,-3.929153255970695 L 87.7199663563804,-5.731204127813662 L 81.70875887901273,-10.74272931123228 L 81.0210143836751,-7.822625287548743 A 116.79186197302936 116.79186197302936 0 0 0 76.25988966232524,-8.83971710596228"/><text text-anchor="middle" pointer-events="none" font-size="8px" fill="#000000" x="52.47365048948248" y="-7.4195080918711795" font-family="sans-serif">FAMILY_REL</text></g><g class="relationship" transform="translate(45.46563741810802 233.55505225779672) rotate(228.73855861988676)"><path class="outline" fill="#A5ABB6" stroke="none" d="M 24.018736134675446,6.953439040707552 L 24.277555179777966,5.987513214418485 A 99.21112415143338 99.21112415143338 0 0 0 25.750884249188516,6.370200732992998 L 25.506915646332388,7.3399838638116535 A 100.21112415143338 100.21112415143338 0 0 1 24.018736134675446,6.953439040707552 Z M 71.20509501349875,8.089121656556713 L 70.99304458898511,7.111862930597411 A 99.21112415143338 99.21112415143338 0 0 0 72.47812554678077,6.777673115618685 L 71.79706758649994,3.8560023513575725 L 79.4088669901035,5.675483002340263 L 73.38620282715522,10.673234134633502 L 72.70514486687438,7.751563370372389 A 100.21112415143338 100.21112415143338 0 0 1 71.20509501349875,8.089121656556713"/><text text-anchor="middle" pointer-events="none" font-size="8px" fill="#000000" x="48.32092228061464" y="12.854655015373183" transform="rotate(180 48.32092228061464 9.854655015373183)" font-family="sans-serif">KNOWS_LW</text></g><g class="relationship" transform="translate(45.46563741810802 233.55505225779672) rotate(299.96892889162774)"><path class="outline" fill="#A5ABB6" stroke="none" d="M 24.018736134675446,-6.953439040707552 L 24.277555179777966,-5.987513214418485 A 87.39644691333835 87.39644691333835 0 0 1 24.778788391772895,-6.1202258997408165 L 24.52570451359875,-7.087670239539406 A 88.39644691333835 88.39644691333835 0 0 0 24.018736134675446,-6.953439040707552 Z M 66.2950835775539,-7.810911569873184 L 66.07564417540995,-6.835285438208643 A 87.39644691333835 87.39644691333835 0 0 1 66.58117141664147,-6.720004919364172 L 65.90550031112438,-3.79708368245591 L 73.51393282034694,-5.630592545975688 L 67.48206622399759,-10.617233235241855 L 66.80639511848051,-7.694311998333593 A 88.39644691333835 88.39644691333835 0 0 0 66.2950835775539,-7.810911569873184"/><text text-anchor="middle" pointer-events="none" font-size="8px" fill="#000000" x="45.375711697333195" y="-6.452301642390097" font-family="sans-serif">KNOWS_…</text></g><g class="relationship" transform="translate(45.46563741810802 233.55505225779672) rotate(402.7433987599286)"><path class="outline" fill="#A5ABB6" stroke="none" d="M 24.018736134675446,6.953439040707552 L 24.277555179777966,5.987513214418485 A 71.63073398810191 71.63073398810191 0 0 0 24.61378697915139,6.076731764336131 L 24.359661894038574,7.043903125117865 A 72.63073398810191 72.63073398810191 0 0 1 24.018736134675446,6.953439040707552 Z M 58.633441862740476,7.685210492813695 L 58.41567608173157,6.70920943511878 A 71.63073398810191 71.63073398810191 0 0 0 58.755010148725766,6.632631608455512 L 58.08750099822054,3.707835626854096 L 65.69078563087994,5.56257625421022 L 59.645022349399405,10.532359583924066 L 58.97751319889418,7.607563602322651 A 72.63073398810191 72.63073398810191 0 0 1 58.633441862740476,7.685210492813695"/><text text-anchor="middle" pointer-events="none" font-size="8px" fill="#000000" x="41.467528934900095" y="11.91564764201624" font-family="sans-serif">FAMIL…</text></g><g class="relationship" transform="translate(45.46563741810802 233.55505225779672) rotate(476.3734463798364)"><path class="outline" fill="#A5ABB6" stroke="none" d="M 24.018736134675446,-6.953439040707552 L 24.277555179777966,-5.987513214418485 A 62.84336131582483 62.84336131582483 0 0 1 24.448933480196782,-6.033174793988316 L 24.19284150597065,-6.99982721380475 A 63.84336131582483 63.84336131582483 0 0 0 24.018736134675446,-6.953439040707552 Z M 54.463271878856546,-7.59271074027086 L 54.24522794060867,-6.616771786753091 A 62.84336131582483 62.84336131582483 0 0 1 54.418262793294645,-6.5778559614477 L 53.75587068586158,-3.6518968544179407 L 61.35589939426959,-5.519934228608847 L 55.30145226987206,-10.47913477082071 L 54.639060162438994,-7.553175663790952 A 63.84336131582483 63.84336131582483 0 0 0 54.463271878856546,-7.59271074027086"/><text text-anchor="middle" pointer-events="none" font-size="8px" fill="#000000" x="39.30219438301697" y="-5.616702419570657" transform="rotate(180 39.30219438301697 -8.616702419570657)" font-family="sans-serif">FAMI…</text></g><g class="relationship" transform="translate(45.46563741810802 233.55505225779672) rotate(476.3734463798364)"><path class="outline" fill="#A5ABB6" stroke="none" d="M 24.018736134675446,6.953439040707552 L 24.277555179777966,5.987513214418485 A 62.84336131582483 62.84336131582483 0 0 0 25.379104854919127,6.272011048678102 L 25.13781430689373,7.242463969449432 A 63.84336131582483 63.84336131582483 0 0 1 24.018736134675446,6.953439040707552 Z M 53.50952278894439,7.798158697588278 L 53.306417742857825,6.819001743747798 A 62.84336131582483 62.84336131582483 0 0 0 54.418262793294645,6.5778559614477 L 53.75587068586158,3.6518968544179407 L 61.35589939426959,5.519934228608847 L 55.30145226987206,10.47913477082071 L 54.639060162438994,7.553175663790952 A 63.84336131582483 63.84336131582483 0 0 1 53.50952278894439,7.798158697588278"/><text text-anchor="middle" pointer-events="none" font-size="8px" fill="#000000" x="39.302194383016975" y="11.616702419570657" transform="rotate(180 39.302194383016975 8.616702419570657)" font-family="sans-serif">KNO…</text></g><g class="relationship" transform="translate(7.378705502781308 310.3700456547886) rotate(351.4409925916817)"><path class="outline" fill="#A5ABB6" stroke="none" d="M 24.018736134675446,-6.953439040707552 L 24.277555179777966,-5.987513214418485 A 102.51058619533951 102.51058619533951 0 0 1 25.703285528641242,-6.3585768686734525 L 25.458374611487052,-7.328122454326177 A 103.51058619533951 103.51058619533951 0 0 0 24.018736134675446,-6.953439040707552 Z M 72.90570135040369,-8.094507568020418 L 72.6922308740898,-7.117558052568199 A 102.51058619533951 102.51058619533951 0 0 1 74.12920143908548,-6.79273370231898 L 73.44673667833699,-3.8713912283292395 L 81.05941133851962,-5.687206339570784 L 75.0391544534168,-10.687857000971968 L 74.35668969266831,-7.7665145269822276 A 103.51058619533951 103.51058619533951 0 0 0 72.90570135040369,-8.094507568020418"/><text text-anchor="middle" pointer-events="none" font-size="8px" fill="#000000" x="49.14560272727213" y="-6.967041740410636" font-family="sans-serif">FAMILY_REL</text></g></g><g class="layer nodes"><g class="node" transform="translate(54.73591837107671,-88.3752407138387)"><circle class="outline" cx="0" cy="0" r="40" fill="#A5ABB6" stroke="#9AA1AC" stroke-width="2px"/><text text-anchor="middle" pointer-events="none" font-family="sans-serif" dy="2.5" font-size="40" fill="#FFFFFF"/><text text-anchor="middle" pointer-events="none" x="0" y="5" font-size="10px" fill="#FFFFFF" font-family="sans-serif"> Devy</text></g><g class="node" transform="translate(73.50270719896729,357.24269111696486)"><circle class="outline" cx="0" cy="0" r="25" fill="#8DCC93" stroke="#5db665" stroke-width="2px"/><text text-anchor="middle" pointer-events="none" font-family="sans-serif" dy="1.5625" font-size="25" fill="#2A2C34"/><text text-anchor="middle" pointer-events="none" x="0" y="5" font-size="10px" fill="#2A2C34" font-family="sans-serif"> </text></g><g class="node" transform="translate(129.24082232837685,357.6988058820868)"><circle class="outline" cx="0" cy="0" r="25" fill="#8DCC93" stroke="#5db665" stroke-width="2px"/><text text-anchor="middle" pointer-events="none" font-family="sans-serif" dy="1.5625" font-size="25" fill="#2A2C34"/><text text-anchor="middle" pointer-events="none" x="0" y="5" font-size="10px" fill="#2A2C34" font-family="sans-serif"> </text></g><g class="node" transform="translate(179.7760305589232,328.7755212339205)"><circle class="outline" cx="0" cy="0" r="25" fill="#8DCC93" stroke="#5db665" stroke-width="2px"/><text text-anchor="middle" pointer-events="none" font-family="sans-serif" dy="1.5625" font-size="25" fill="#2A2C34"/><text text-anchor="middle" pointer-events="none" x="0" y="5" font-size="10px" fill="#2A2C34" font-family="sans-serif"> </text></g><g class="node" transform="translate(-50.456260442215026,98.02001496680954)"><circle class="outline" cx="0" cy="0" r="25" fill="#8DCC93" stroke="#5db665" stroke-width="2px"/><text text-anchor="middle" pointer-events="none" font-family="sans-serif" dy="1.5625" font-size="25" fill="#2A2C34"/><text text-anchor="middle" pointer-events="none" x="0" y="5" font-size="10px" fill="#2A2C34" font-family="sans-serif"> </text></g><g class="node" transform="translate(0.730078510845858,77.03226680194385)"><circle class="outline" cx="0" cy="0" r="25" fill="#8DCC93" stroke="#5db665" stroke-width="2px"/><text text-anchor="middle" pointer-events="none" font-family="sans-serif" dy="1.5625" font-size="25" fill="#2A2C34"/><text text-anchor="middle" pointer-events="none" x="0" y="5" font-size="10px" fill="#2A2C34" font-family="sans-serif"> </text></g><g class="node" transform="translate(59.3962817079571,93.42659217557247)"><circle class="outline" cx="0" cy="0" r="25" fill="#8DCC93" stroke="#5db665" stroke-width="2px"/><text text-anchor="middle" pointer-events="none" font-family="sans-serif" dy="1.5625" font-size="25" fill="#2A2C34"/><text text-anchor="middle" pointer-events="none" x="0" y="5" font-size="10px" fill="#2A2C34" font-family="sans-serif"> </text></g><g class="node" transform="translate(-225.799223620029,181.4608141185977)"><circle class="outline" cx="0" cy="0" r="25" fill="#8DCC93" stroke="#5db665" stroke-width="2px"/><text text-anchor="middle" pointer-events="none" font-family="sans-serif" dy="1.5625" font-size="25" fill="#2A2C34"/><text text-anchor="middle" pointer-events="none" x="0" y="5" font-size="10px" fill="#2A2C34" font-family="sans-serif"> </text></g><g class="node" transform="translate(-104.03718017174455,16.22604809961659)"><circle class="outline" cx="0" cy="0" r="25" fill="#8DCC93" stroke="#5db665" stroke-width="2px"/><text text-anchor="middle" pointer-events="none" font-family="sans-serif" dy="1.5625" font-size="25" fill="#2A2C34"/><text text-anchor="middle" pointer-events="none" x="0" y="5" font-size="10px" fill="#2A2C34" font-family="sans-serif"> </text></g><g class="node" transform="translate(-163.82249589008478,16.720540205004568)"><circle class="outline" cx="0" cy="0" r="25" fill="#8DCC93" stroke="#5db665" stroke-width="2px"/><text text-anchor="middle" pointer-events="none" font-family="sans-serif" dy="1.5625" font-size="25" fill="#2A2C34"/><text text-anchor="middle" pointer-events="none" x="0" y="5" font-size="10px" fill="#2A2C34" font-family="sans-serif"> </text></g><g class="node" transform="translate(-215.67975945562668,252.18001841980663)"><circle class="outline" cx="0" cy="0" r="25" fill="#8DCC93" stroke="#5db665" stroke-width="2px"/><text text-anchor="middle" pointer-events="none" font-family="sans-serif" dy="1.5625" font-size="25" fill="#2A2C34"/><text text-anchor="middle" pointer-events="none" x="0" y="5" font-size="10px" fill="#2A2C34" font-family="sans-serif"> </text></g><g class="node" transform="translate(219.97461360893485,16.74920559801987)"><circle class="outline" cx="0" cy="0" r="25" fill="#8DCC93" stroke="#5db665" stroke-width="2px"/><text text-anchor="middle" pointer-events="none" font-family="sans-serif" dy="1.5625" font-size="25" fill="#2A2C34"/><text text-anchor="middle" pointer-events="none" x="0" y="5" font-size="10px" fill="#2A2C34" font-family="sans-serif"> </text></g><g class="node" transform="translate(280.9420387523804,195.20944669322427)"><circle class="outline" cx="0" cy="0" r="25" fill="#DA7194" stroke="#cc3c6c" stroke-width="2px"/><text text-anchor="middle" pointer-events="none" font-family="sans-serif" dy="1.5625" font-size="25" fill="#FFFFFF"/><text text-anchor="middle" pointer-events="none" x="0" y="5" font-size="10px" fill="#FFFFFF" font-family="sans-serif"> Raymond</text></g><g class="node" transform="translate(142.339263350247,225.0446669885674)"><circle class="outline" cx="0" cy="0" r="25" fill="#DA7194" stroke="#cc3c6c" stroke-width="2px"/><text text-anchor="middle" pointer-events="none" font-family="sans-serif" dy="1.5625" font-size="25" fill="#FFFFFF"/><text text-anchor="middle" pointer-events="none" x="0" y="5" font-size="10px" fill="#FFFFFF" font-family="sans-serif"> Kathleen</text></g><g class="node" transform="translate(111.60876587215466,294.6830004584392)"><circle class="outline" cx="0" cy="0" r="25" fill="#DA7194" stroke="#cc3c6c" stroke-width="2px"/><text text-anchor="middle" pointer-events="none" font-family="sans-serif" dy="1.5625" font-size="25" fill="#FFFFFF"/><text text-anchor="middle" pointer-events="none" x="0" y="5" font-size="10px" fill="#FFFFFF" font-family="sans-serif"> Diana</text></g><g class="node" transform="translate(94.35547073464969,148.76922677933732)"><circle class="outline" cx="0" cy="0" r="25" fill="#DA7194" stroke="#cc3c6c" stroke-width="2px"/><text text-anchor="middle" pointer-events="none" font-family="sans-serif" dy="1.5625" font-size="25" fill="#FFFFFF"/><text text-anchor="middle" pointer-events="none" x="0" y="5" font-size="10px" fill="#FFFFFF" font-family="sans-serif"> Phillip</text></g><g class="node" transform="translate(-22.961104340627557,155.56073101092545)"><circle class="outline" cx="0" cy="0" r="25" fill="#DA7194" stroke="#cc3c6c" stroke-width="2px"/><text text-anchor="middle" pointer-events="none" font-family="sans-serif" dy="1.5625" font-size="25" fill="#FFFFFF"/><text text-anchor="middle" pointer-events="none" x="0" y="5" font-size="10px" fill="#FFFFFF" font-family="sans-serif"> Brian</text></g><g class="node" transform="translate(-46.07276816411957,246.7877405113319)"><circle class="outline" cx="0" cy="0" r="25" fill="#DA7194" stroke="#cc3c6c" stroke-width="2px"/><text text-anchor="middle" pointer-events="none" font-family="sans-serif" dy="1.5625" font-size="25" fill="#FFFFFF"/><text text-anchor="middle" pointer-events="none" x="0" y="5" font-size="10px" fill="#FFFFFF" font-family="sans-serif"> Alan</text></g><g class="node" transform="translate(-151.69338106529906,209.3655228801811)"><circle class="outline" cx="0" cy="0" r="25" fill="#DA7194" stroke="#cc3c6c" stroke-width="2px"/><text text-anchor="middle" pointer-events="none" font-family="sans-serif" dy="1.5625" font-size="25" fill="#FFFFFF"/><text text-anchor="middle" pointer-events="none" x="0" y="5" font-size="10px" fill="#FFFFFF" font-family="sans-serif"> Jack</text></g><g class="node" transform="translate(45.46563741810802,233.55505225779672)"><circle class="outline" cx="0" cy="0" r="25" fill="#DA7194" stroke="#cc3c6c" stroke-width="2px"/><text text-anchor="middle" pointer-events="none" font-family="sans-serif" dy="1.5625" font-size="25" fill="#FFFFFF"/><text text-anchor="middle" pointer-events="none" x="0" y="5" font-size="10px" fill="#FFFFFF" font-family="sans-serif"> Jessica</text></g><g class="node" transform="translate(7.378705502781308,310.3700456547886)"><circle class="outline" cx="0" cy="0" r="25" fill="#DA7194" stroke="#cc3c6c" stroke-width="2px"/><text text-anchor="middle" pointer-events="none" font-family="sans-serif" dy="1.5625" font-size="25" fill="#FFFFFF"/><text text-anchor="middle" pointer-events="none" x="0" y="5" font-size="10px" fill="#FFFFFF" font-family="sans-serif"> Kathy</text></g></g></svg>