<svg xmlns="http://www.w3.org/2000/svg" width="379.77655029296875" height="429.410400390625" viewBox="-129.2083740234375 -48.88640213012695 379.77655029296875 429.410400390625"><title>Neo4j Graph Visualization</title><desc>Created using Neo4j (http://www.neo4j.com/)</desc><g class="layer relationships"><g class="relationship" transform="translate(125.13934565471723 13.935719173276159) rotate(461.34983726072477)"><path class="outline" fill="#A5ABB6" stroke="none" d="M 25 0.5 L 32.457134037254185 0.5 L 32.457134037254185 -0.5 L 25 -0.5 Z M 84.65703943276199 0.5 L 92.11417347001618 0.5 L 92.11417347001618 3.5 L 99.11417347001618 0 L 92.11417347001618 -3.5 L 92.11417347001618 -0.5 L 84.65703943276199 -0.5 Z"/><text text-anchor="middle" pointer-events="none" font-size="8px" fill="#000000" x="58.55708673500809" y="3" transform="rotate(180 58.55708673500809 0)" font-family="sans-serif">INVOLVED_IN</text></g><g class="relationship" transform="translate(199.3388913995965 56.43800469281224) rotate(501.23951250861137)"><path class="outline" fill="#A5ABB6" stroke="none" d="M 25 0.5 L 33.639917789313074 0.5 L 33.639917789313074 -0.5 L 25 -0.5 Z M 85.83982318482089 0.5 L 94.47974097413396 0.5 L 94.47974097413396 3.5 L 101.47974097413396 0 L 94.47974097413396 -3.5 L 94.47974097413396 -0.5 L 85.83982318482089 -0.5 Z"/><text text-anchor="middle" pointer-events="none" font-size="8px" fill="#000000" x="59.73987048706698" y="3" transform="rotate(180 59.73987048706698 0)" font-family="sans-serif">INVOLVED_IN</text></g><g class="relationship" transform="translate(-31.986198671674288 -19.886402430966125) rotate(480.8197192200331)"><path class="outline" fill="#A5ABB6" stroke="none" d="M 24.018736134675446,6.953439040707552 L 24.277555179777966,5.987513214418485 A 157.65241052901104 157.65241052901104 0 0 0 46.87985089742488,10.305192413824983 L 46.76439975670012,11.298505573964007 A 158.65241052901104 158.65241052901104 0 0 1 24.018736134675446,6.953439040707552 Z M 79.3110431203511,11.719931204093086 L 79.22134992538548,10.723961761400773 A 157.65241052901104 157.65241052901104 0 0 0 101.92786289051934,6.992957293277401 L 101.2266964211478,4.076047013164372 L 108.85084795567832,5.8430539114293545 L 102.86275151634803,10.882171000094774 L 102.1615850469765,7.965260719981744 A 158.65241052901104 158.65241052901104 0 0 1 79.3110431203511,11.719931204093086"/><text text-anchor="middle" pointer-events="none" font-size="8px" fill="#000000" x="63.033358952465775" y="14.846132586498811" transform="rotate(180 63.033358952465775 11.846132586498811)" font-family="sans-serif">CALLER</text></g><g class="relationship" transform="translate(-12.85641201745086 176.30362976207815) rotate(338.3855169257704)"><path class="outline" fill="#A5ABB6" stroke="none" d="M 6.953439040707552 24.018736134675446 L 17.306200844808384 62.65576918623819 A 17.916697508022974 17.916697508022974 0 1 1 -17.306200844808384 62.65576918623819 L -8.765172356425198 30.780216918698923 L -4.901469051268926 31.815493099109005 L -6.4704761275630185 24.148145657226706 L -11.662949835292403 30.00375978339136 L -7.79924653013613 31.039035963801442 L -16.340275018519314 62.91458823134071 A 16.916697508022974 16.916697508022974 0 1 0 16.340275018519314 62.91458823134071 L 5.987513214418485 24.277555179777966 Z"/><text text-anchor="middle" pointer-events="none" font-size="8px" fill="#000000" x="0" y="94.20964923467838" font-family="sans-serif">KNOWS_PH…</text></g><g class="relationship" transform="translate(-12.85641201745086 176.30362976207815) rotate(369.3349297618461)"><path class="outline" fill="#A5ABB6" stroke="none" d="M 6.953439040707552 24.018736134675446 L 17.306200844808384 62.65576918623819 A 17.916697508022974 17.916697508022974 0 1 1 -17.306200844808384 62.65576918623819 L -8.765172356425198 30.780216918698923 L -4.901469051268926 31.815493099109005 L -6.4704761275630185 24.148145657226706 L -11.662949835292403 30.00375978339136 L -7.79924653013613 31.039035963801442 L -16.340275018519314 62.91458823134071 A 16.916697508022974 16.916697508022974 0 1 0 16.340275018519314 62.91458823134071 L 5.987513214418485 24.277555179777966 Z"/><text text-anchor="middle" pointer-events="none" font-size="8px" fill="#000000" x="0" y="94.20964923467838" font-family="sans-serif">FAMILY_REL</text></g><g class="relationship" transform="translate(100.71379640148662 135.6226971118513) rotate(364.61957306043075)"><path class="outline" fill="#A5ABB6" stroke="none" d="M 25 0.5 L 25.208167659058518 0.5 L 25.208167659058518 -0.5 L 25 -0.5 Z M 89.04007683874602 0.5 L 89.24824449780454 0.5 L 89.24824449780454 3.5 L 96.24824449780454 0 L 89.24824449780454 -3.5 L 89.24824449780454 -0.5 L 89.04007683874602 -0.5 Z"/><text text-anchor="middle" pointer-events="none" font-size="8px" fill="#000000" x="57.12412224890227" y="3" font-family="sans-serif">INVESTIGATED…</text></g><g class="relationship" transform="translate(-12.85641201745086 176.30362976207815) rotate(265.97565341841585)"><path class="outline" fill="#A5ABB6" stroke="none" d="M 25 0.5 L 27.480268641721594 0.5 L 27.480268641721594 -0.5 L 25 -0.5 Z M 72.10421578527628 0.5 L 74.58448442699788 0.5 L 74.58448442699788 3.5 L 81.58448442699788 0 L 74.58448442699788 -3.5 L 74.58448442699788 -0.5 L 72.10421578527628 -0.5 Z"/><text text-anchor="middle" pointer-events="none" font-size="8px" fill="#000000" x="49.79224221349894" y="3" transform="rotate(180 49.79224221349894 0)" font-family="sans-serif">HAS_EMAIL</text></g><g class="relationship" transform="translate(-12.85641201745086 176.30362976207815) rotate(400.2843425979219)"><path class="outline" fill="#A5ABB6" stroke="none" d="M 6.953439040707552 24.018736134675446 L 17.306200844808384 62.65576918623819 A 17.916697508022974 17.916697508022974 0 1 1 -17.306200844808384 62.65576918623819 L -8.765172356425198 30.780216918698923 L -4.901469051268926 31.815493099109005 L -6.4704761275630185 24.148145657226706 L -11.662949835292403 30.00375978339136 L -7.79924653013613 31.039035963801442 L -16.340275018519314 62.91458823134071 A 16.916697508022974 16.916697508022974 0 1 0 16.340275018519314 62.91458823134071 L 5.987513214418485 24.277555179777966 Z"/><text text-anchor="middle" pointer-events="none" font-size="8px" fill="#000000" x="0" y="94.20964923467838" font-family="sans-serif">KNOWS_SN</text></g><g class="relationship" transform="translate(-12.85641201745086 176.30362976207815) rotate(431.2337554339977)"><path class="outline" fill="#A5ABB6" stroke="none" d="M 6.953439040707552 24.018736134675446 L 17.306200844808384 62.65576918623819 A 17.916697508022974 17.916697508022974 0 1 1 -17.306200844808384 62.65576918623819 L -8.765172356425198 30.780216918698923 L -4.901469051268926 31.815493099109005 L -6.4704761275630185 24.148145657226706 L -11.662949835292403 30.00375978339136 L -7.79924653013613 31.039035963801442 L -16.340275018519314 62.91458823134071 A 16.916697508022974 16.916697508022974 0 1 0 16.340275018519314 62.91458823134071 L 5.987513214418485 24.277555179777966 Z"/><text text-anchor="middle" pointer-events="none" font-size="8px" fill="#000000" x="0" y="94.20964923467838" font-family="sans-serif">KNOWS</text></g><g class="relationship" transform="translate(-31.986198671674288 -19.886402430966125) rotate(480.8197192200331)"><path class="outline" fill="#A5ABB6" stroke="none" d="M 24.018736134675446,-6.953439040707552 L 24.277555179777966,-5.987513214418485 A 157.65241052901104 157.65241052901104 0 0 1 46.594709475421325,-10.271787737053245 L 46.47744966319547,-11.264889009047579 A 158.65241052901104 158.65241052901104 0 0 0 24.018736134675446,-6.953439040707552 Z M 79.59876742266012,-11.693755729696164 L 79.50726067628769,-10.69795127330508 A 157.65241052901104 157.65241052901104 0 0 1 101.92786289051934,-6.992957293277401 L 101.2266964211478,-4.076047013164372 L 108.85084795567832,-5.8430539114293545 L 102.86275151634803,-10.882171000094774 L 102.1615850469765,-7.965260719981744 A 158.65241052901104 158.65241052901104 0 0 0 79.59876742266012,-11.693755729696164"/><text text-anchor="middle" pointer-events="none" font-size="8px" fill="#000000" x="63.03335895246578" y="-8.846132586498811" transform="rotate(180 63.03335895246578 -11.846132586498811)" font-family="sans-serif">CALLED</text></g><g class="relationship" transform="translate(173.44146895825034 302.4921731524417) rotate(512.1351808972272)"><path class="outline" fill="#A5ABB6" stroke="none" d="M 25 0.5 L 25.737156626575896 0.5 L 25.737156626575896 -0.5 L 25 -0.5 Z M 72.16913294493527 0.5 L 72.90628957151117 0.5 L 72.90628957151117 3.5 L 79.90628957151117 0 L 72.90628957151117 -3.5 L 72.90628957151117 -0.5 L 72.16913294493527 -0.5 Z"/><text text-anchor="middle" pointer-events="none" font-size="8px" fill="#000000" x="48.95314478575558" y="3" transform="rotate(180 48.95314478575558 0)" font-family="sans-serif">POSTCOD…</text></g><g class="relationship" transform="translate(-12.85641201745086 176.30362976207815) rotate(397.4361040896946)"><path class="outline" fill="#A5ABB6" stroke="none" d="M 25 0.5 L 27.02870610618428 0.5 L 27.02870610618428 -0.5 L 25 -0.5 Z M 75.74864629173115 0.5 L 77.77735239791544 0.5 L 77.77735239791544 3.5 L 84.77735239791544 0 L 77.77735239791544 -3.5 L 77.77735239791544 -0.5 L 75.74864629173115 -0.5 Z"/><text text-anchor="middle" pointer-events="none" font-size="8px" fill="#000000" x="51.38867619895772" y="3" font-family="sans-serif">CURRENT_…</text></g><g class="relationship" transform="translate(74.31028945240945 243.03468141241828) rotate(390.95473921763335)"><path class="outline" fill="#A5ABB6" stroke="none" d="M 25 0.5 L 25.229478946724385 0.5 L 25.229478946724385 -0.5 L 25 -0.5 Z M 83.36543475727126 0.5 L 83.59491370399564 0.5 L 83.59491370399564 3.5 L 90.59491370399564 0 L 83.59491370399564 -3.5 L 83.59491370399564 -0.5 L 83.36543475727126 -0.5 Z"/><text text-anchor="middle" pointer-events="none" font-size="8px" fill="#000000" x="54.29745685199782" y="3" font-family="sans-serif">HAS_POSTCO…</text></g><g class="relationship" transform="translate(100.71379640148662 135.6226971118513) rotate(463.8103593334699)"><path class="outline" fill="#A5ABB6" stroke="none" d="M 25 0.5 L 26.01280626193836 0.5 L 26.01280626193836 -0.5 L 25 -0.5 Z M 77.59677537814929 0.5 L 78.60958164008765 0.5 L 78.60958164008765 3.5 L 85.60958164008765 0 L 78.60958164008765 -3.5 L 78.60958164008765 -0.5 L 77.59677537814929 -0.5 Z"/><text text-anchor="middle" pointer-events="none" font-size="8px" fill="#000000" x="51.80479082004383" y="3" transform="rotate(180 51.80479082004383 0)" font-family="sans-serif">OCCURRED…</text></g><g class="relationship" transform="translate(-12.85641201745086 176.30362976207815) rotate(462.18316827007345)"><path class="outline" fill="#A5ABB6" stroke="none" d="M 6.953439040707552 24.018736134675446 L 17.306200844808384 62.65576918623819 A 17.916697508022974 17.916697508022974 0 1 1 -17.306200844808384 62.65576918623819 L -8.765172356425198 30.780216918698923 L -4.901469051268926 31.815493099109005 L -6.4704761275630185 24.148145657226706 L -11.662949835292403 30.00375978339136 L -7.79924653013613 31.039035963801442 L -16.340275018519314 62.91458823134071 A 16.916697508022974 16.916697508022974 0 1 0 16.340275018519314 62.91458823134071 L 5.987513214418485 24.277555179777966 Z"/><text text-anchor="middle" pointer-events="none" font-size="8px" fill="#000000" x="0" y="94.20964923467838" transform="rotate(180 0 91.20964923467838)" font-family="sans-serif">KNOWS_LW</text></g><g class="relationship" transform="translate(74.31028945240945 243.03468141241828) rotate(446.62998330780516)"><path class="outline" fill="#A5ABB6" stroke="none" d="M 25 0.5 L 26.310657098447088 0.5 L 26.310657098447088 -0.5 L 25 -0.5 Z M 75.36661107793927 0.5 L 76.67726817638636 0.5 L 76.67726817638636 3.5 L 83.67726817638636 0 L 76.67726817638636 -3.5 L 76.67726817638636 -0.5 L 75.36661107793927 -0.5 Z"/><text text-anchor="middle" pointer-events="none" font-size="8px" fill="#000000" x="50.83863408819318" y="3" font-family="sans-serif">LOCATION…</text></g><g class="relationship" transform="translate(-12.85641201745086 176.30362976207815) rotate(340.29243834845556)"><path class="outline" fill="#A5ABB6" stroke="none" d="M 25 0.5 L 36.218202688968134 0.5 L 36.218202688968134 -0.5 L 25 -0.5 Z M 77.41815386084313 0.5 L 88.63635654981127 0.5 L 88.63635654981127 3.5 L 95.63635654981127 0 L 88.63635654981127 -3.5 L 88.63635654981127 -0.5 L 77.41815386084313 -0.5 Z"/><text text-anchor="middle" pointer-events="none" font-size="8px" fill="#000000" x="56.818178274905634" y="3" font-family="sans-serif">PARTY_TO</text></g><g class="relationship" transform="translate(-12.85641201745086 176.30362976207815) rotate(223.13258110614925)"><path class="outline" fill="#A5ABB6" stroke="none" d="M 25 0.5 L 32.41270450799797 0.5 L 32.41270450799797 -0.5 L 25 -0.5 Z M 80.28465275018547 0.5 L 87.69735725818344 0.5 L 87.69735725818344 3.5 L 94.69735725818344 0 L 87.69735725818344 -3.5 L 87.69735725818344 -0.5 L 80.28465275018547 -0.5 Z"/><text text-anchor="middle" pointer-events="none" font-size="8px" fill="#000000" x="56.34867862909172" y="3" transform="rotate(180 56.34867862909172 0)" font-family="sans-serif">HAS_PHONE</text></g></g><g class="layer nodes"><g class="node" transform="translate(199.3388913995965,56.43800469281224)"><circle class="outline" cx="0" cy="0" r="25" fill="#F79767" stroke="#f36924" stroke-width="2px"/><text text-anchor="middle" pointer-events="none" font-family="sans-serif" dy="1.5625" font-size="25" fill="#FFFFFF"/><text text-anchor="middle" pointer-events="none" x="0" y="5" font-size="10px" fill="#FFFFFF" font-family="sans-serif"> Vehicle</text></g><g class="node" transform="translate(80.69877171881328,351.5240168911373)"><circle class="outline" cx="0" cy="0" r="25" fill="#57C7E3" stroke="#23b3d7" stroke-width="2px"/><text text-anchor="middle" pointer-events="none" font-family="sans-serif" dy="1.5625" font-size="25" fill="#2A2C34"/><text text-anchor="middle" pointer-events="none" x="0" y="5" font-size="10px" fill="#2A2C34" font-family="sans-serif"> Area</text></g><g class="node" transform="translate(-20.33654954125401,69.98194870316173)"><circle class="outline" cx="0" cy="0" r="25" fill="#F16667" stroke="#eb2728" stroke-width="2px"/><text text-anchor="middle" pointer-events="none" font-family="sans-serif" dy="1.5625" font-size="25" fill="#FFFFFF"/><text text-anchor="middle" pointer-events="none" x="0" y="5" font-size="10px" fill="#FFFFFF" font-family="sans-serif"> Email</text></g><g class="node" transform="translate(-100.20838532285966,94.46787905223036)"><circle class="outline" cx="0" cy="0" r="25" fill="#D9C8AE" stroke="#c0a378" stroke-width="2px"/><text text-anchor="middle" pointer-events="none" font-family="sans-serif" dy="1.5625" font-size="25" fill="#2A2C34"/><text text-anchor="middle" pointer-events="none" x="0" y="5" font-size="10px" fill="#2A2C34" font-family="sans-serif"> Phone</text></g><g class="node" transform="translate(100.71379640148662,135.6226971118513)"><circle class="outline" cx="0" cy="0" r="25" fill="#8DCC93" stroke="#5db665" stroke-width="2px"/><text text-anchor="middle" pointer-events="none" font-family="sans-serif" dy="1.5625" font-size="25" fill="#2A2C34"/><text text-anchor="middle" pointer-events="none" x="0" y="5" font-size="10px" fill="#2A2C34" font-family="sans-serif"> Crime</text></g><g class="node" transform="translate(-31.986198671674288,-19.886402430966125)"><circle class="outline" cx="0" cy="0" r="25" fill="#ECB5C9" stroke="#da7298" stroke-width="2px"/><text text-anchor="middle" pointer-events="none" font-family="sans-serif" dy="1.5625" font-size="25" fill="#2A2C34"/><text text-anchor="middle" pointer-events="none" x="0" y="5" font-size="10px" fill="#2A2C34" font-family="sans-serif"> PhoneCall</text></g><g class="node" transform="translate(125.13934565471723,13.935719173276159)"><circle class="outline" cx="0" cy="0" r="25" fill="#4C8EDA" stroke="#2870c2" stroke-width="2px"/><text text-anchor="middle" pointer-events="none" font-family="sans-serif" dy="1.5625" font-size="25" fill="#FFFFFF"/><text text-anchor="middle" pointer-events="none" x="0" y="5" font-size="10px" fill="#FFFFFF" font-family="sans-serif"> Object</text></g><g class="node" transform="translate(173.44146895825034,302.4921731524417)"><circle class="outline" cx="0" cy="0" r="25" fill="#FFC454" stroke="#d7a013" stroke-width="2px"/><text text-anchor="middle" pointer-events="none" font-family="sans-serif" dy="1.5625" font-size="25" fill="#2A2C34"/><text text-anchor="middle" pointer-events="none" x="0" y="5" font-size="10px" fill="#2A2C34" font-family="sans-serif"> PostCode</text></g><g class="node" transform="translate(-12.85641201745086,176.30362976207815)"><circle class="outline" cx="0" cy="0" r="25" fill="#DA7194" stroke="#cc3c6c" stroke-width="2px"/><text text-anchor="middle" pointer-events="none" font-family="sans-serif" dy="1.5625" font-size="25" fill="#FFFFFF"/><text text-anchor="middle" pointer-events="none" x="0" y="5" font-size="10px" fill="#FFFFFF" font-family="sans-serif"> Person</text></g><g class="node" transform="translate(74.31028945240945,243.03468141241828)"><circle class="outline" cx="0" cy="0" r="25" fill="#569480" stroke="#447666" stroke-width="2px"/><text text-anchor="middle" pointer-events="none" font-family="sans-serif" dy="1.5625" font-size="25" fill="#FFFFFF"/><text text-anchor="middle" pointer-events="none" x="0" y="5" font-size="10px" fill="#FFFFFF" font-family="sans-serif"> Location</text></g><g class="node" transform="translate(221.5681566641091,145.3879620499698)"><circle class="outline" cx="0" cy="0" r="25" fill="#A5ABB6" stroke="#9AA1AC" stroke-width="2px"/><text text-anchor="middle" pointer-events="none" font-family="sans-serif" dy="1.5625" font-size="25" fill="#FFFFFF"/><text text-anchor="middle" pointer-events="none" x="0" y="5" font-size="10px" fill="#FFFFFF" font-family="sans-serif"> Officer</text></g></g></svg>