<svg xmlns="http://www.w3.org/2000/svg" width="828.18359375" height="429.5660400390625" viewBox="-277.7328186035156 -62.47643280029297 828.18359375 429.5660400390625"><title>Neo4j Graph Visualization</title><desc>Created using Neo4j (http://www.neo4j.com/)</desc><g class="layer relationships"><g class="relationship" transform="translate(235.3844162933292 -33.476433948898716) rotate(396.97529185441545)"><path class="outline" fill="#A5ABB6" stroke="none" d="M 24.018736134675446,6.953439040707552 L 24.277555179777966,5.987513214418485 A 255.2723110684962 255.2723110684962 0 0 0 71.79216269805084,14.010478579857278 L 71.71947667818475,15.007833452766619 A 256.2723110684962 256.2723110684962 0 0 1 24.018736134675446,6.953439040707552 Z M 104.08761222120778,15.31706850024679 L 104.0339945627402,14.318506961481944 A 255.2723110684962 255.2723110684962 0 0 0 151.69321309152826,7.204802575175373 L 150.9722615492739,4.292719321949074 L 158.60823260609868,6.007929518786266 L 152.65448181453408,11.087580246143773 L 151.9335302722797,8.175496992917473 A 256.2723110684962 256.2723110684962 0 0 1 104.08761222120778,15.31706850024679"/><text text-anchor="middle" pointer-events="none" font-size="8px" fill="#000000" x="87.90343378396497" y="18.174034538652847" font-family="sans-serif">KNOWS</text></g><g class="relationship" transform="translate(55.130177495398755 -31.498212765397) rotate(359.37122602283114)"><path class="outline" fill="#A5ABB6" stroke="none" d="M 24.018736134675446,6.953439040707552 L 24.277555179777966,5.987513214418485 A 250.16817499029887 250.16817499029887 0 0 0 64.4982823585221,13.30648989081672 L 64.40023806896275,14.301671943149273 A 251.16817499029887 251.16817499029887 0 0 1 24.018736134675446,6.953439040707552 Z M 108.8045759098691,14.731818399619385 L 108.72582894057322,13.734923763849537 A 250.16817499029887 250.16817499029887 0 0 0 149.08079339592933,7.196486780627638 L 148.36061845698137,4.284211371722898 L 155.99613183986506,6.0014578245664785 L 150.04102664785998,11.079520659167294 L 149.32085170891202,8.167245250262551 A 251.16817499029887 251.16817499029887 0 0 1 108.8045759098691,14.731818399619385"/><text text-anchor="middle" pointer-events="none" font-size="8px" fill="#000000" x="86.59772542336727" y="18.000026707990457" font-family="sans-serif">KNOWS_SN</text></g><g class="relationship" transform="translate(-79.82937382773292 81.405059573075) rotate(320.0851185634054)"><path class="outline" fill="#A5ABB6" stroke="none" d="M 24.018736134675446,6.953439040707552 L 24.277555179777966,5.987513214418485 A 241.74290669566267 241.74290669566267 0 0 0 60.72463149441055,12.809380277908986 L 60.616580373847455,13.803525617054646 A 242.74290669566267 242.74290669566267 0 0 1 24.018736134675446,6.953439040707552 Z M 108.28358711925878,14.27616207697477 L 108.19526996115917,13.280069671830944 A 241.74290669566267 241.74290669566267 0 0 0 144.77044991213606,7.182245988724856 L 144.05160491370967,4.269642021784389 L 151.68633333473488,5.990374986886669 L 145.7289099100379,11.06571794464548 L 145.01006491161152,8.153113977705011 A 242.74290669566267 242.74290669566267 0 0 1 108.28358711925878,14.27616207697477"/><text text-anchor="middle" pointer-events="none" font-size="8px" fill="#000000" x="84.44341117195049" y="17.7127958631294" font-family="sans-serif">FAMILY_REL</text></g><g class="relationship" transform="translate(234.8510919917893 193.89850813188656) rotate(321.3222589668059)"><path class="outline" fill="#A5ABB6" stroke="none" d="M 24.018736134675446,-6.953439040707552 L 24.277555179777966,-5.987513214418485 A 264.94930639655604 264.94930639655604 0 0 1 74.2664572282112,-14.362809393876091 L 74.19631164192353,-15.360346158473988 A 265.94930639655604 265.94930639655604 0 0 0 24.018736134675446,-6.953439040707552 Z M 106.5637617662895,-15.661705778801092 L 106.5122020149588,-14.663035867347503 A 264.94930639655604 264.94930639655604 0 0 1 156.64838220843393,-7.219961925159322 L 155.92601495923225,-4.308229527207752 L 163.56281901185454,-6.019727076680671 L 157.61153854070284,-11.102271789094749 L 156.88917129150116,-8.19053939114318 A 265.94930639655604 265.94930639655604 0 0 0 106.5637617662895,-15.661705778801092"/><text text-anchor="middle" pointer-events="none" font-size="8px" fill="#000000" x="90.38010270487987" y="-12.503937173073723" font-family="sans-serif">KNOWS</text></g><g class="relationship" transform="translate(54.6197695014924 198.38065980359121) rotate(358.57541159883726)"><path class="outline" fill="#A5ABB6" stroke="none" d="M 24.018736134675446,6.953439040707552 L 24.277555179777966,5.987513214418485 A 250.21110628194944 250.21110628194944 0 0 0 70.49876340474722,13.825555694815904 L 70.42467320286754,14.822807238803392 A 251.21110628194944 251.21110628194944 0 0 1 24.018736134675446,6.953439040707552 Z M 102.79316351626863,15.136325195867414 L 102.73840395990128,14.137825626019492 A 250.21110628194944 250.21110628194944 0 0 0 149.10276310620796,7.196557683291464 L 148.38258154572034,4.2842839118315075 L 156.01809883302914,6.001513004063643 L 150.06300518685813,11.079589378571406 L 149.34282362637052,8.16731560711145 A 251.21110628194944 251.21110628194944 0 0 1 102.79316351626863,15.136325195867414"/><text text-anchor="middle" pointer-events="none" font-size="8px" fill="#000000" x="86.608706005071" y="18.001490302788966" font-family="sans-serif">KNOWS</text></g><g class="relationship" transform="translate(54.6197695014924 198.38065980359121) rotate(221.02444433227453)"><path class="outline" fill="#A5ABB6" stroke="none" d="M 24.018736134675446,-6.953439040707552 L 24.277555179777966,-5.987513214418485 A 246.15454161878034 246.15454161878034 0 0 1 61.84984623887932,-12.983442056722794 L 61.74366419495507,-13.97778876363546 A 247.15454161878034 247.15454161878034 0 0 0 24.018736134675446,-6.953439040707552 Z M 109.41169746604314,-14.444673584383793 L 109.3250121931911,-13.448437837449063 A 246.15454161878034 246.15454161878034 0 0 1 147.02712533151364,-7.189784571646703 L 146.30757630730247,-4.277354452011771 L 153.94272044803034,-5.996241868426447 L 147.98652403046188,-11.073024731159945 L 147.2669750062507,-8.160594611525013 A 247.15454161878034 247.15454161878034 0 0 0 109.41169746604314,-14.444673584383793"/><text text-anchor="middle" pointer-events="none" font-size="8px" fill="#000000" x="85.5712951612251" y="-11.863195602674267" transform="rotate(180 85.5712951612251 -14.863195602674267)" font-family="sans-serif">FAMILY_REL</text></g><g class="relationship" transform="translate(-79.82937382773292 81.405059573075) rotate(320.0851185634054)"><path class="outline" fill="#A5ABB6" stroke="none" d="M 24.018736134675446,-6.953439040707552 L 24.277555179777966,-5.987513214418485 A 241.74290669566267 241.74290669566267 0 0 1 68.33583913887675,-13.515062960910427 L 68.25927273796273,-14.512127445410329 A 242.74290669566267 242.74290669566267 0 0 0 24.018736134675446,-6.953439040707552 Z M 100.62834665554674,-14.833079096287207 L 100.57156591005715,-13.8346924242299 A 241.74290669566267 241.74290669566267 0 0 1 144.77044991213606,-7.182245988724856 L 144.05160491370967,-4.269642021784389 L 151.68633333473488,-5.990374986886669 L 145.7289099100379,-11.06571794464548 L 145.01006491161152,-8.153113977705011 A 242.74290669566267 242.74290669566267 0 0 0 100.62834665554674,-14.833079096287207"/><text text-anchor="middle" pointer-events="none" font-size="8px" fill="#000000" x="84.44341117195052" y="-11.7127958631294" font-family="sans-serif">KNOWS</text></g><g class="relationship" transform="translate(54.6197695014924 198.38065980359121) rotate(358.57541159883726)"><path class="outline" fill="#A5ABB6" stroke="none" d="M 24.018736134675446,-6.953439040707552 L 24.277555179777966,-5.987513214418485 A 250.21110628194944 250.21110628194944 0 0 1 63.76246888626079,-13.233455583146394 L 63.661456240295436,-14.228340724936686 A 251.21110628194944 251.21110628194944 0 0 0 24.018736134675446,-6.953439040707552 Z M 109.56662639908592,-14.67297360795078 L 109.48490361253712,-13.676318509053118 A 250.21110628194944 250.21110628194944 0 0 1 149.10276310620796,-7.196557683291464 L 148.38258154572034,-4.2842839118315075 L 156.01809883302914,-6.001513004063643 L 150.06300518685813,-11.079589378571406 L 149.34282362637052,-8.16731560711145 A 251.21110628194944 251.21110628194944 0 0 0 109.56662639908592,-14.67297360795078"/><text text-anchor="middle" pointer-events="none" font-size="8px" fill="#000000" x="86.60870600507087" y="-12.001490302788966" font-family="sans-serif">KNOWS_LW</text></g><g class="relationship" transform="translate(54.6197695014924 198.38065980359121) rotate(221.02444433227453)"><path class="outline" fill="#A5ABB6" stroke="none" d="M 24.018736134675446,6.953439040707552 L 24.277555179777966,5.987513214418485 A 246.15454161878034 246.15454161878034 0 0 0 69.46246407822814,13.676994608516083 L 69.38720820689971,14.67415886470991 A 247.15454161878034 247.15454161878034 0 0 1 24.018736134675446,6.953439040707552 Z M 101.75597994630313,14.991194982089667 L 101.7002701006862,13.992747981442477 A 246.15454161878034 246.15454161878034 0 0 0 147.02712533151364,7.189784571646703 L 146.30757630730247,4.277354452011771 L 153.94272044803034,5.996241868426447 L 147.98652403046188,11.073024731159945 L 147.2669750062507,8.160594611525013 A 247.15454161878034 247.15454161878034 0 0 1 101.75597994630313,14.991194982089667"/><text text-anchor="middle" pointer-events="none" font-size="8px" fill="#000000" x="85.57129516122512" y="17.863195602674267" transform="rotate(180 85.57129516122512 14.863195602674267)" font-family="sans-serif">KNOWS</text></g><g class="relationship" transform="translate(235.3844162933292 -33.476433948898716) rotate(396.97529185441545)"><path class="outline" fill="#A5ABB6" stroke="none" d="M 24.018736134675446,-6.953439040707552 L 24.277555179777966,-5.987513214418485 A 255.2723110684962 255.2723110684962 0 0 1 64.17683822255503,-13.340709890492207 L 64.07432004250039,-14.33544102138049 A 256.2723110684962 256.2723110684962 0 0 0 24.018736134675446,-6.953439040707552 Z M 111.74421987399285,-14.790864340965044 L 111.66072537233116,-13.794356103070214 A 255.2723110684962 255.2723110684962 0 0 1 151.69321309152826,-7.204802575175373 L 150.9722615492739,-4.292719321949074 L 158.60823260609868,-6.007929518786266 L 152.65448181453408,-11.087580246143773 L 151.9335302722797,-8.175496992917473 A 256.2723110684962 256.2723110684962 0 0 0 111.74421987399285,-14.790864340965044"/><text text-anchor="middle" pointer-events="none" font-size="8px" fill="#000000" x="87.90343378396491" y="-12.174034538652847" font-family="sans-serif">FAMILY_REL</text></g><g class="relationship" transform="translate(55.130177495398755 -31.498212765397) rotate(411.43276269856096)"><path class="outline" fill="#A5ABB6" stroke="none" d="M 24.018736134675446,6.953439040707552 L 24.277555179777966,5.987513214418485 A 460.43213677260593 460.43213677260593 0 0 0 124.47774763915903,21.28547122637309 L 124.43655065919239,22.284622270430816 A 461.43213677260593 461.43213677260593 0 0 1 24.018736134675446,6.953439040707552 Z M 156.79234832007577,22.483308874064107 L 156.76342491812193,21.483727243170733 A 460.43213677260593 460.43213677260593 0 0 0 257.14393362341326,7.417471156369403 L 256.40312235033446,4.5103766175421285 L 264.0506227595234,6.173427275656735 L 258.1316819875184,11.2935972081391 L 257.3908707144396,8.386502669311827 A 461.43213677260593 461.43213677260593 0 0 1 156.79234832007577,22.483308874064107"/><text text-anchor="middle" pointer-events="none" font-size="8px" fill="#000000" x="140.61577770588116" y="25.167667667132264" font-family="sans-serif">KNOWS</text></g><g class="relationship" transform="translate(55.130177495398755 -31.498212765397) rotate(411.43276269856096)"><path class="outline" fill="#A5ABB6" stroke="none" d="M 24.018736134675446,-6.953439040707552 L 24.277555179777966,-5.987513214418485 A 460.43213677260593 460.43213677260593 0 0 1 118.46719499967396,-20.998289900915893 L 118.41294386436184,-21.99681722368547 A 461.43213677260593 461.43213677260593 0 0 0 24.018736134675446,-6.953439040707552 Z M 162.8190353604611,-22.26950082717616 L 162.77705112775857,-21.27038255379489 A 460.43213677260593 460.43213677260593 0 0 1 257.14393362341326,-7.417471156369403 L 256.40312235033446,-4.5103766175421285 L 264.0506227595234,-6.173427275656735 L 258.1316819875184,-11.2935972081391 L 257.3908707144396,-8.386502669311827 A 461.43213677260593 461.43213677260593 0 0 0 162.8190353604611,-22.26950082717616"/><text text-anchor="middle" pointer-events="none" font-size="8px" fill="#000000" x="140.61577770588121" y="-19.167667667132264" font-family="sans-serif">KNOWS_SN</text></g><g class="relationship" transform="translate(55.130177495398755 -31.498212765397) rotate(359.37122602283114)"><path class="outline" fill="#A5ABB6" stroke="none" d="M 24.018736134675446,-6.953439040707552 L 24.277555179777966,-5.987513214418485 A 250.16817499029887 250.16817499029887 0 0 1 70.48779436360877,-13.823985087092069 L 70.41369201632611,-14.82123572866979 A 251.16817499029887 251.16817499029887 0 0 0 24.018736134675446,-6.953439040707552 Z M 102.78218532324112,-15.134790515752343 L 102.72741587652295,-14.136291488358637 A 250.16817499029887 250.16817499029887 0 0 1 149.08079339592933,-7.196486780627638 L 148.36061845698137,-4.284211371722898 L 155.99613183986506,-6.0014578245664785 L 150.04102664785998,-11.079520659167294 L 149.32085170891202,-8.167245250262551 A 251.16817499029887 251.16817499029887 0 0 0 102.78218532324112,-15.134790515752343"/><text text-anchor="middle" pointer-events="none" font-size="8px" fill="#000000" x="86.59772542336722" y="-12.000026707990457" font-family="sans-serif">KNOWS</text></g><g class="relationship" transform="translate(234.8510919917893 193.89850813188656) rotate(321.3222589668059)"><path class="outline" fill="#A5ABB6" stroke="none" d="M 24.018736134675446,6.953439040707552 L 24.277555179777966,5.987513214418485 A 264.94930639655604 264.94930639655604 0 0 0 66.6485334089733,13.71654886476199 L 66.54963544011535,14.7116464437741 A 265.94930639655604 265.94930639655604 0 0 1 24.018736134675446,6.953439040707552 Z M 114.22119084028569,15.155496106957344 L 114.14083827434776,14.158729602129256 A 264.94930639655604 264.94930639655604 0 0 0 156.64838220843393,7.219961925159322 L 155.92601495923225,4.308229527207752 L 163.56281901185454,6.019727076680671 L 157.61153854070284,11.102271789094749 L 156.88917129150116,8.19053939114318 A 265.94930639655604 265.94930639655604 0 0 1 114.22119084028569,15.155496106957344"/><text text-anchor="middle" pointer-events="none" font-size="8px" fill="#000000" x="90.38010270487985" y="18.503937173073723" font-family="sans-serif">FAMILY_REL</text></g><g class="relationship" transform="translate(234.8510919917893 193.89850813188656) rotate(270.1343911306653)"><path class="outline" fill="#A5ABB6" stroke="none" d="M 24.018736134675446,-6.953439040707552 L 24.277555179777966,-5.987513214418485 A 342.0645709637921 342.0645709637921 0 0 1 86.40068011510539,-16.622053149916837 L 86.32347334501952,-17.61906825243682 A 343.0645709637921 343.0645709637921 0 0 0 24.018736134675446,-6.953439040707552 Z M 134.0010698519762,-17.98799359175274 L 133.93930104561883,-16.98990310759757 A 342.0645709637921 342.0645709637921 0 0 1 196.21955568080745,-7.3179863406856365 L 195.48803436616998,-4.408540248002171 L 203.13018344950845,-6.09601095531214 L 197.1949174336574,-11.197247797596923 L 196.46339611901993,-8.287801704913457 A 343.0645709637921 343.0645709637921 0 0 0 134.0010698519762,-17.98799359175274"/><text text-anchor="middle" pointer-events="none" font-size="8px" fill="#000000" x="110.15972354249938" y="-15.132825694849203" font-family="sans-serif">FAMILY_REL</text></g><g class="relationship" transform="translate(234.8510919917893 193.89850813188656) rotate(270.1343911306653)"><path class="outline" fill="#A5ABB6" stroke="none" d="M 24.018736134675446,6.953439040707552 L 24.277555179777966,5.987513214418485 A 342.0645709637921 342.0645709637921 0 0 0 94.03261633292374,17.1272856909618 L 93.97772095333444,18.125777802748246 A 343.0645709637921 343.0645709637921 0 0 1 24.018736134675446,6.953439040707552 Z M 126.33989750615807,18.376193676040202 L 126.30046027523645,17.376971626234877 A 342.0645709637921 342.0645709637921 0 0 0 196.21955568080745,7.3179863406856365 L 195.48803436616998,4.408540248002171 L 203.13018344950845,6.09601095531214 L 197.1949174336574,11.197247797596923 L 196.46339611901993,8.287801704913457 A 343.0645709637921 343.0645709637921 0 0 1 126.33989750615807,18.376193676040202"/><text text-anchor="middle" pointer-events="none" font-size="8px" fill="#000000" x="110.15972354249944" y="21.132825694849203" font-family="sans-serif">KNOWS</text></g><g class="relationship" transform="translate(54.6197695014924 198.38065980359121) rotate(270.12721558748314)"><path class="outline" fill="#A5ABB6" stroke="none" d="M 24.018736134675446,-6.953439040707552 L 24.277555179777966,-5.987513214418485 A 346.9386040669221 346.9386040669221 0 0 1 95.28421812469388,-17.30008504201072 L 95.23006544451171,-18.298617709092298 A 347.9386040669221 347.9386040669221 0 0 0 24.018736134675446,-6.953439040707552 Z M 127.59193532875722,-18.546381611593006 L 127.55307772061272,-17.54713685364362 A 346.9386040669221 346.9386040669221 0 0 1 198.7246259853598,-7.3230876789719614 L 197.992628292401,-4.413761403439604 L 205.6350535770951,-6.099980774656786 L 199.70062290930488,-11.202189379681771 L 198.96862521634608,-8.292863104149413 A 347.9386040669221 347.9386040669221 0 0 0 127.59193532875722,-18.546381611593006"/><text text-anchor="middle" pointer-events="none" font-size="8px" fill="#000000" x="111.41194607877127" y="-15.298977365234634" font-family="sans-serif">KNOWS</text></g><g class="relationship" transform="translate(54.6197695014924 198.38065980359121) rotate(270.12721558748314)"><path class="outline" fill="#A5ABB6" stroke="none" d="M 24.018736134675446,6.953439040707552 L 24.277555179777966,5.987513214418485 A 346.9386040669221 346.9386040669221 0 0 0 87.65166902836413,16.801715892630398 L 87.5755166369741,17.79881208321865 A 347.9386040669221 347.9386040669221 0 0 1 24.018736134675446,6.953439040707552 Z M 135.2532394652166,18.163834831055055 L 135.1923627305742,17.165689539436983 A 346.9386040669221 346.9386040669221 0 0 0 198.7246259853598,7.3230876789719614 L 197.992628292401,4.413761403439604 L 205.6350535770951,6.099980774656786 L 199.70062290930488,11.202189379681771 L 198.96862521634608,8.292863104149413 A 347.9386040669221 347.9386040669221 0 0 1 135.2532394652166,18.163834831055055"/><text text-anchor="middle" pointer-events="none" font-size="8px" fill="#000000" x="111.41194607877124" y="21.298977365234634" font-family="sans-serif">FAMILY_REL</text></g><g class="relationship" transform="translate(-79.82937382773292 81.405059573075) rotate(538.2943597560634)"><path class="outline" fill="#A5ABB6" stroke="none" d="M 25 0.5 L 60.389178994567445 0.5 L 60.389178994567445 -0.5 L 25 -0.5 Z M 101.58913016644244 0.5 L 136.9783091610099 0.5 L 136.9783091610099 3.5 L 143.9783091610099 0 L 136.9783091610099 -3.5 L 136.9783091610099 -0.5 L 101.58913016644244 -0.5 Z"/><text text-anchor="middle" pointer-events="none" font-size="8px" fill="#000000" x="80.98915458050494" y="3" transform="rotate(180 80.98915458050494 0)" font-family="sans-serif">PARTY_TO</text></g><g class="relationship" transform="translate(381.4828061771667 76.51785229639592) rotate(359.94585171584913)"><path class="outline" fill="#A5ABB6" stroke="none" d="M 25 0.5 L 45.88405346361765 0.5 L 45.88405346361765 -0.5 L 25 -0.5 Z M 87.08400463549265 0.5 L 107.9680580991103 0.5 L 107.9680580991103 3.5 L 114.9680580991103 0 L 107.9680580991103 -3.5 L 107.9680580991103 -0.5 L 87.08400463549265 -0.5 Z"/><text text-anchor="middle" pointer-events="none" font-size="8px" fill="#000000" x="66.48402904955515" y="3" font-family="sans-serif">PARTY_TO</text></g><g class="relationship" transform="translate(234.8510919917893 193.89850813188656) rotate(479.9754810881014)"><path class="outline" fill="#A5ABB6" stroke="none" d="M 25 0.5 L 42.66424828521943 0.5 L 42.66424828521943 -0.5 L 25 -0.5 Z M 116.79216271393037 0.5 L 134.4564109991498 0.5 L 134.4564109991498 3.5 L 141.4564109991498 0 L 134.4564109991498 -3.5 L 134.4564109991498 -0.5 L 116.79216271393037 -0.5 Z"/><text text-anchor="middle" pointer-events="none" font-size="8px" fill="#000000" x="79.7282054995749" y="3" transform="rotate(180 79.7282054995749 0)" font-family="sans-serif">CURRENT_ADDRESS</text></g><g class="relationship" transform="translate(54.6197695014924 198.38065980359121) rotate(415.2097967914702)"><path class="outline" fill="#A5ABB6" stroke="none" d="M 25 0.5 L 44.495086655717614 0.5 L 44.495086655717614 -0.5 L 25 -0.5 Z M 118.62300108442855 0.5 L 138.11808774014617 0.5 L 138.11808774014617 3.5 L 145.11808774014617 0 L 138.11808774014617 -3.5 L 138.11808774014617 -0.5 L 118.62300108442855 -0.5 Z"/><text text-anchor="middle" pointer-events="none" font-size="8px" fill="#000000" x="81.55904387007308" y="3" font-family="sans-serif">CURRENT_ADDRESS</text></g></g><g class="layer nodes"><g class="node" transform="translate(381.4828061771667,76.51785229639592)"><circle class="outline" cx="0" cy="0" r="25" fill="#DA7194" stroke="#cc3c6c" stroke-width="2px"/><text text-anchor="middle" pointer-events="none" font-family="sans-serif" dy="1.5625" font-size="25" fill="#FFFFFF"/><text text-anchor="middle" pointer-events="none" x="0" y="5" font-size="10px" fill="#FFFFFF" font-family="sans-serif"> Raymond</text></g><g class="node" transform="translate(-79.82937382773292,81.405059573075)"><circle class="outline" cx="0" cy="0" r="25" fill="#DA7194" stroke="#cc3c6c" stroke-width="2px"/><text text-anchor="middle" pointer-events="none" font-family="sans-serif" dy="1.5625" font-size="25" fill="#FFFFFF"/><text text-anchor="middle" pointer-events="none" x="0" y="5" font-size="10px" fill="#FFFFFF" font-family="sans-serif"> Jack</text></g><g class="node" transform="translate(235.3844162933292,-33.476433948898716)"><circle class="outline" cx="0" cy="0" r="25" fill="#DA7194" stroke="#cc3c6c" stroke-width="2px"/><text text-anchor="middle" pointer-events="none" font-family="sans-serif" dy="1.5625" font-size="25" fill="#FFFFFF"/><text text-anchor="middle" pointer-events="none" x="0" y="5" font-size="10px" fill="#FFFFFF" font-family="sans-serif"> Kathleen</text></g><g class="node" transform="translate(55.130177495398755,-31.498212765397)"><circle class="outline" cx="0" cy="0" r="25" fill="#DA7194" stroke="#cc3c6c" stroke-width="2px"/><text text-anchor="middle" pointer-events="none" font-family="sans-serif" dy="1.5625" font-size="25" fill="#FFFFFF"/><text text-anchor="middle" pointer-events="none" x="0" y="5" font-size="10px" fill="#FFFFFF" font-family="sans-serif"> Alan</text></g><g class="node" transform="translate(234.8510919917893,193.89850813188656)"><circle class="outline" cx="0" cy="0" r="25" fill="#DA7194" stroke="#cc3c6c" stroke-width="2px"/><text text-anchor="middle" pointer-events="none" font-family="sans-serif" dy="1.5625" font-size="25" fill="#FFFFFF"/><text text-anchor="middle" pointer-events="none" x="0" y="5" font-size="10px" fill="#FFFFFF" font-family="sans-serif"> Phillip</text></g><g class="node" transform="translate(54.6197695014924,198.38065980359121)"><circle class="outline" cx="0" cy="0" r="25" fill="#DA7194" stroke="#cc3c6c" stroke-width="2px"/><text text-anchor="middle" pointer-events="none" font-family="sans-serif" dy="1.5625" font-size="25" fill="#FFFFFF"/><text text-anchor="middle" pointer-events="none" x="0" y="5" font-size="10px" fill="#FFFFFF" font-family="sans-serif"> Brian</text></g><g class="node" transform="translate(-248.73281459841388,86.43463835652267)"><circle class="outline" cx="0" cy="0" r="25" fill="#8DCC93" stroke="#5db665" stroke-width="2px"/><text text-anchor="middle" pointer-events="none" font-family="sans-serif" dy="1.5625" font-size="25" fill="#2A2C34"/><text text-anchor="middle" pointer-events="none" x="0" y="5" font-size="10px" fill="#2A2C34" font-family="sans-serif"> </text></g><g class="node" transform="translate(521.4508017700848,76.38557328530302)"><circle class="outline" cx="0" cy="0" r="25" fill="#8DCC93" stroke="#5db665" stroke-width="2px"/><text text-anchor="middle" pointer-events="none" font-family="sans-serif" dy="1.5625" font-size="25" fill="#2A2C34"/><text text-anchor="middle" pointer-events="none" x="0" y="5" font-size="10px" fill="#2A2C34" font-family="sans-serif"> </text></g><g class="node" transform="translate(151.68458339355982,338.08959180316805)"><circle class="outline" cx="0" cy="0" r="25" fill="#569480" stroke="#447666" stroke-width="2px"/><text text-anchor="middle" pointer-events="none" font-family="sans-serif" dy="1.5625" font-size="25" fill="#FFFFFF"/><text text-anchor="middle" pointer-events="none" x="0" y="5" font-size="10px" fill="#FFFFFF" font-family="sans-serif"> </text></g></g></svg>