<svg xmlns="http://www.w3.org/2000/svg" width="403.8492431640625" height="407.432861328125" viewBox="-102.72154998779297 -123.55823516845703 403.8492431640625 407.432861328125"><title>Neo4j Graph Visualization</title><desc>Created using Neo4j (http://www.neo4j.com/)</desc><g class="layer relationships"><g class="relationship" transform="translate(81.63301644878058 254.87461579558627) rotate(276.0629911386119)"><path class="outline" fill="#A5ABB6" stroke="none" d="M 25 0.5 L 67.82403397774857 0.5 L 67.82403397774857 -0.5 L 25 -0.5 Z M 107.72796464181107 0.5 L 150.55199861955964 0.5 L 150.55199861955964 3.5 L 157.55199861955964 0 L 150.55199861955964 -3.5 L 150.55199861955964 -0.5 L 107.72796464181107 -0.5 Z"/><text text-anchor="middle" pointer-events="none" font-size="8px" fill="#000000" x="87.77599930977982" y="3" font-family="sans-serif">IN_GENRE</text></g><g class="relationship" transform="translate(91.3236203498742 195.684702805019) rotate(274.4825085504442)"><path class="outline" fill="#A5ABB6" stroke="none" d="M 25 0.5 L 37.90619372544709 0.5 L 37.90619372544709 -0.5 L 25 -0.5 Z M 77.81012438950958 0.5 L 90.71631811495668 0.5 L 90.71631811495668 3.5 L 97.71631811495668 0 L 90.71631811495668 -3.5 L 90.71631811495668 -0.5 L 77.81012438950958 -0.5 Z"/><text text-anchor="middle" pointer-events="none" font-size="8px" fill="#000000" x="57.85815905747834" y="3" font-family="sans-serif">IN_GENRE</text></g><g class="relationship" transform="translate(202.70428526198745 223.62319790601242) rotate(235.8887699832951)"><path class="outline" fill="#A5ABB6" stroke="none" d="M 25 0.5 L 67.30192970556126 0.5 L 67.30192970556126 -0.5 L 25 -0.5 Z M 107.20586036962376 0.5 L 149.50779007518503 0.5 L 149.50779007518503 3.5 L 156.50779007518503 0 L 149.50779007518503 -3.5 L 149.50779007518503 -0.5 L 107.20586036962376 -0.5 Z"/><text text-anchor="middle" pointer-events="none" font-size="8px" fill="#000000" x="87.25389503759251" y="3" transform="rotate(180 87.25389503759251 0)" font-family="sans-serif">IN_GENRE</text></g><g class="relationship" transform="translate(143.20486394003962 241.37592449291256) rotate(255.87318439182667)"><path class="outline" fill="#A5ABB6" stroke="none" d="M 25 0.5 L 63.18418443818541 0.5 L 63.18418443818541 -0.5 L 25 -0.5 Z M 103.08811510224791 0.5 L 141.27229954043332 0.5 L 141.27229954043332 3.5 L 148.27229954043332 0 L 141.27229954043332 -3.5 L 141.27229954043332 -0.5 L 103.08811510224791 -0.5 Z"/><text text-anchor="middle" pointer-events="none" font-size="8px" fill="#000000" x="83.13614977021666" y="3" transform="rotate(180 83.13614977021666 0)" font-family="sans-serif">IN_GENRE</text></g><g class="relationship" transform="translate(241.1165290412274 176.12460187159382) rotate(216.24480752949881)"><path class="outline" fill="#A5ABB6" stroke="none" d="M 25 0.5 L 63.46828290947657 0.5 L 63.46828290947657 -0.5 L 25 -0.5 Z M 103.37221357353907 0.5 L 141.84049648301564 0.5 L 141.84049648301564 3.5 L 148.84049648301564 0 L 141.84049648301564 -3.5 L 141.84049648301564 -0.5 L 103.37221357353907 -0.5 Z"/><text text-anchor="middle" pointer-events="none" font-size="8px" fill="#000000" x="83.42024824150782" y="3" transform="rotate(180 83.42024824150782 0)" font-family="sans-serif">IN_GENRE</text></g><g class="relationship" transform="translate(167.02830707612387 175.39095333166756) rotate(237.06181148098221)"><path class="outline" fill="#A5ABB6" stroke="none" d="M 25 0.5 L 37.34414987604669 0.5 L 37.34414987604669 -0.5 L 25 -0.5 Z M 77.24808054010919 0.5 L 89.59223041615589 0.5 L 89.59223041615589 3.5 L 96.59223041615589 0 L 89.59223041615589 -3.5 L 89.59223041615589 -0.5 L 77.24808054010919 -0.5 Z"/><text text-anchor="middle" pointer-events="none" font-size="8px" fill="#000000" x="57.29611520807794" y="3" transform="rotate(180 57.29611520807794 0)" font-family="sans-serif">IN_GENRE</text></g><g class="relationship" transform="translate(272.1276847562677 120.61163315431823) rotate(195.43356144797133)"><path class="outline" fill="#A5ABB6" stroke="none" d="M 25 0.5 L 65.35711864305092 0.5 L 65.35711864305092 -0.5 L 25 -0.5 Z M 105.26104930711342 0.5 L 145.61816795016435 0.5 L 145.61816795016435 3.5 L 152.61816795016435 0 L 145.61816795016435 -3.5 L 145.61816795016435 -0.5 L 105.26104930711342 -0.5 Z"/><text text-anchor="middle" pointer-events="none" font-size="8px" fill="#000000" x="85.30908397508217" y="3" transform="rotate(180 85.30908397508217 0)" font-family="sans-serif">IN_GENRE</text></g><g class="relationship" transform="translate(212.67820317912881 112.54395060035432) rotate(199.32790019015522)"><path class="outline" fill="#A5ABB6" stroke="none" d="M 25 0.5 L 35.767510343305524 0.5 L 35.767510343305524 -0.5 L 25 -0.5 Z M 75.67144100736803 0.5 L 86.43895135067355 0.5 L 86.43895135067355 3.5 L 93.43895135067355 0 L 86.43895135067355 -3.5 L 86.43895135067355 -0.5 L 75.67144100736803 -0.5 Z"/><text text-anchor="middle" pointer-events="none" font-size="8px" fill="#000000" x="55.719475675336774" y="3" transform="rotate(180 55.719475675336774 0)" font-family="sans-serif">IN_GENRE</text></g><g class="relationship" transform="translate(267.7775936840836 60.77279454862684) rotate(535.6916520013222)"><path class="outline" fill="#A5ABB6" stroke="none" d="M 25 0.5 L 60.216018879435666 0.5 L 60.216018879435666 -0.5 L 25 -0.5 Z M 100.11994954349817 0.5 L 135.33596842293383 0.5 L 135.33596842293383 3.5 L 142.33596842293383 0 L 135.33596842293383 -3.5 L 135.33596842293383 -0.5 L 100.11994954349817 -0.5 Z"/><text text-anchor="middle" pointer-events="none" font-size="8px" fill="#000000" x="80.16798421146692" y="3" transform="rotate(180 80.16798421146692 0)" font-family="sans-serif">IN_GENRE</text></g><g class="relationship" transform="translate(209.81168344706074 21.80507388500009) rotate(514.6728267265804)"><path class="outline" fill="#A5ABB6" stroke="none" d="M 25 0.5 L 36.78679861907882 0.5 L 36.78679861907882 -0.5 L 25 -0.5 Z M 76.69072928314132 0.5 L 88.47752790222015 0.5 L 88.47752790222015 3.5 L 95.47752790222015 0 L 88.47752790222015 -3.5 L 88.47752790222015 -0.5 L 76.69072928314132 -0.5 Z"/><text text-anchor="middle" pointer-events="none" font-size="8px" fill="#000000" x="56.73876395111007" y="3" transform="rotate(180 56.73876395111007 0)" font-family="sans-serif">IN_GENRE</text></g><g class="relationship" transform="translate(263.80039189508955 -4.30740061005835) rotate(514.511878460116)"><path class="outline" fill="#A5ABB6" stroke="none" d="M 25 0.5 L 66.77208841353335 0.5 L 66.77208841353335 -0.5 L 25 -0.5 Z M 106.67601907759585 0.5 L 148.4481074911292 0.5 L 148.4481074911292 3.5 L 155.4481074911292 0 L 148.4481074911292 -3.5 L 148.4481074911292 -0.5 L 106.67601907759585 -0.5 Z"/><text text-anchor="middle" pointer-events="none" font-size="8px" fill="#000000" x="86.7240537455646" y="3" transform="rotate(180 86.7240537455646 0)" font-family="sans-serif">IN_GENRE</text></g><g class="relationship" transform="translate(215.85399784909285 -51.679179106321556) rotate(492.5938021275648)"><path class="outline" fill="#A5ABB6" stroke="none" d="M 25 0.5 L 61.46243773394511 0.5 L 61.46243773394511 -0.5 L 25 -0.5 Z M 101.36636839800761 0.5 L 137.82880613195272 0.5 L 137.82880613195272 3.5 L 144.82880613195272 0 L 137.82880613195272 -3.5 L 137.82880613195272 -0.5 L 101.36636839800761 -0.5 Z"/><text text-anchor="middle" pointer-events="none" font-size="8px" fill="#000000" x="81.41440306597636" y="3" transform="rotate(180 81.41440306597636 0)" font-family="sans-serif">IN_GENRE</text></g><g class="relationship" transform="translate(150.82291027148094 -35.19247393814344) rotate(474.69448527683153)"><path class="outline" fill="#A5ABB6" stroke="none" d="M 25 0.5 L 36.278600084114906 0.5 L 36.278600084114906 -0.5 L 25 -0.5 Z M 76.18253074817741 0.5 L 87.46113083229231 0.5 L 87.46113083229231 3.5 L 94.46113083229231 0 L 87.46113083229231 -3.5 L 87.46113083229231 -0.5 L 76.18253074817741 -0.5 Z"/><text text-anchor="middle" pointer-events="none" font-size="8px" fill="#000000" x="56.230565416146156" y="3" transform="rotate(180 56.230565416146156 0)" font-family="sans-serif">IN_GENRE</text></g><g class="relationship" transform="translate(159.329256753864 -94.55823254348998) rotate(469.1832957983648)"><path class="outline" fill="#A5ABB6" stroke="none" d="M 25 0.5 L 65.43470357166271 0.5 L 65.43470357166271 -0.5 L 25 -0.5 Z M 105.33863423572521 0.5 L 145.77333780738792 0.5 L 145.77333780738792 3.5 L 152.77333780738792 0 L 145.77333780738792 -3.5 L 145.77333780738792 -0.5 L 105.33863423572521 -0.5 Z"/><text text-anchor="middle" pointer-events="none" font-size="8px" fill="#000000" x="85.38666890369396" y="3" transform="rotate(180 85.38666890369396 0)" font-family="sans-serif">IN_GENRE</text></g><g class="relationship" transform="translate(-14.07628627237072 116.90627058344366) rotate(339.25155963702787)"><path class="outline" fill="#A5ABB6" stroke="none" d="M 25 0.5 L 38.03089977540338 0.5 L 38.03089977540338 -0.5 L 25 -0.5 Z M 77.93483043946588 0.5 L 90.96573021486925 0.5 L 90.96573021486925 3.5 L 97.96573021486925 0 L 90.96573021486925 -3.5 L 90.96573021486925 -0.5 L 77.93483043946588 -0.5 Z"/><text text-anchor="middle" pointer-events="none" font-size="8px" fill="#000000" x="57.98286510743463" y="3" font-family="sans-serif">IN_GENRE</text></g><g class="relationship" transform="translate(96.90353249896538 -91.18458122025761) rotate(448.60349242411377)"><path class="outline" fill="#A5ABB6" stroke="none" d="M 25 0.5 L 58.83663912835517 0.5 L 58.83663912835517 -0.5 L 25 -0.5 Z M 98.74056979241767 0.5 L 132.57720892077285 0.5 L 132.57720892077285 3.5 L 139.57720892077285 0 L 132.57720892077285 -3.5 L 132.57720892077285 -0.5 L 98.74056979241767 -0.5 Z"/><text text-anchor="middle" pointer-events="none" font-size="8px" fill="#000000" x="78.78860446038642" y="3" font-family="sans-serif">IN_GENRE</text></g><g class="relationship" transform="translate(29.02650466172989 -90.91523603277086) rotate(426.3633984987619)"><path class="outline" fill="#A5ABB6" stroke="none" d="M 25 0.5 L 66.19859823157178 0.5 L 66.19859823157178 -0.5 L 25 -0.5 Z M 106.10252889563428 0.5 L 147.30112712720606 0.5 L 147.30112712720606 3.5 L 154.30112712720606 0 L 147.30112712720606 -3.5 L 147.30112712720606 -0.5 L 106.10252889563428 -0.5 Z"/><text text-anchor="middle" pointer-events="none" font-size="8px" fill="#000000" x="86.15056356360303" y="3" font-family="sans-serif">IN_GENRE</text></g><g class="relationship" transform="translate(-20.538411603320448 -48.188683626799715) rotate(405.01875384023)"><path class="outline" fill="#A5ABB6" stroke="none" d="M 25 0.5 L 62.4563241616037 0.5 L 62.4563241616037 -0.5 L 25 -0.5 Z M 102.3602548256662 0.5 L 139.8165789872699 0.5 L 139.8165789872699 3.5 L 146.8165789872699 0 L 139.8165789872699 -3.5 L 139.8165789872699 -0.5 L 102.3602548256662 -0.5 Z"/><text text-anchor="middle" pointer-events="none" font-size="8px" fill="#000000" x="82.40828949363495" y="3" font-family="sans-serif">IN_GENRE</text></g><g class="relationship" transform="translate(56.68749488580563 -37.71090667540637) rotate(428.2853145707227)"><path class="outline" fill="#A5ABB6" stroke="none" d="M 25 0.5 L 36.31667626000162 0.5 L 36.31667626000162 -0.5 L 25 -0.5 Z M 76.22060692406413 0.5 L 87.53728318406574 0.5 L 87.53728318406574 3.5 L 94.53728318406574 0 L 87.53728318406574 -3.5 L 87.53728318406574 -0.5 L 76.22060692406413 -0.5 Z"/><text text-anchor="middle" pointer-events="none" font-size="8px" fill="#000000" x="56.26864159203287" y="3" font-family="sans-serif">IN_GENRE</text></g><g class="relationship" transform="translate(-64.10720453721086 4.2903799178951125) rotate(382.7068838506368)"><path class="outline" fill="#A5ABB6" stroke="none" d="M 25 0.5 L 65.99148702719938 0.5 L 65.99148702719938 -0.5 L 25 -0.5 Z M 105.89541769126188 0.5 L 146.88690471846127 0.5 L 146.88690471846127 3.5 L 153.88690471846127 0 L 146.88690471846127 -3.5 L 146.88690471846127 -0.5 L 105.89541769126188 -0.5 Z"/><text text-anchor="middle" pointer-events="none" font-size="8px" fill="#000000" x="85.94345235923063" y="3" font-family="sans-serif">IN_GENRE</text></g><g class="relationship" transform="translate(-4.764188419637725 13.101811573882925) rotate(389.6852230238495)"><path class="outline" fill="#A5ABB6" stroke="none" d="M 25 0.5 L 37.36964303999117 0.5 L 37.36964303999117 -0.5 L 25 -0.5 Z M 77.27357370405366 0.5 L 89.64321674404484 0.5 L 89.64321674404484 3.5 L 96.64321674404484 0 L 89.64321674404484 -3.5 L 89.64321674404484 -0.5 L 77.27357370405366 -0.5 Z"/><text text-anchor="middle" pointer-events="none" font-size="8px" fill="#000000" x="57.32160837202242" y="3" font-family="sans-serif">IN_GENRE</text></g><g class="relationship" transform="translate(-60.53850761958708 64.17974157579829) rotate(363.2485983932006)"><path class="outline" fill="#A5ABB6" stroke="none" d="M 25 0.5 L 57.404461881094434 0.5 L 57.404461881094434 -0.5 L 25 -0.5 Z M 97.30839254515693 0.5 L 129.71285442625137 0.5 L 129.71285442625137 3.5 L 136.71285442625137 0 L 129.71285442625137 -3.5 L 129.71285442625137 -0.5 L 97.30839254515693 -0.5 Z"/><text text-anchor="middle" pointer-events="none" font-size="8px" fill="#000000" x="77.35642721312568" y="3" font-family="sans-serif">IN_GENRE</text></g><g class="relationship" transform="translate(-40.001685269532985 185.24897674644842) rotate(321.54598760821284)"><path class="outline" fill="#A5ABB6" stroke="none" d="M 25 0.5 L 66.52045769034488 0.5 L 66.52045769034488 -0.5 L 25 -0.5 Z M 106.42438835440738 0.5 L 147.94484604475227 0.5 L 147.94484604475227 3.5 L 154.94484604475227 0 L 147.94484604475227 -3.5 L 147.94484604475227 -0.5 L 106.42438835440738 -0.5 Z"/><text text-anchor="middle" pointer-events="none" font-size="8px" fill="#000000" x="86.47242302237613" y="3" font-family="sans-serif">IN_GENRE</text></g><g class="relationship" transform="translate(-73.72155312091135 123.15066543144485) rotate(344.081630871656)"><path class="outline" fill="#A5ABB6" stroke="none" d="M 25 0.5 L 67.34791717497494 0.5 L 67.34791717497494 -0.5 L 25 -0.5 Z M 107.25184783903744 0.5 L 149.59976501401238 0.5 L 149.59976501401238 3.5 L 156.59976501401238 0 L 149.59976501401238 -3.5 L 149.59976501401238 -0.5 L 107.25184783903744 -0.5 Z"/><text text-anchor="middle" pointer-events="none" font-size="8px" fill="#000000" x="87.29988250700619" y="3" font-family="sans-serif">IN_GENRE</text></g><g class="relationship" transform="translate(19.14055216448676 175.1780415735349) rotate(308.7648032484367)"><path class="outline" fill="#A5ABB6" stroke="none" d="M 25 0.5 L 41.849642423271874 0.5 L 41.849642423271874 -0.5 L 25 -0.5 Z M 81.75357308733437 0.5 L 98.60321551060625 0.5 L 98.60321551060625 3.5 L 105.60321551060625 0 L 98.60321551060625 -3.5 L 98.60321551060625 -0.5 L 81.75357308733437 -0.5 Z"/><text text-anchor="middle" pointer-events="none" font-size="8px" fill="#000000" x="61.801607755303124" y="3" font-family="sans-serif">IN_GENRE</text></g><g class="relationship" transform="translate(19.485778044730317 235.1640809918584) rotate(296.7117417432899)"><path class="outline" fill="#A5ABB6" stroke="none" d="M 25 0.5 L 67.12459809387168 0.5 L 67.12459809387168 -0.5 L 25 -0.5 Z M 107.02852875793418 0.5 L 149.15312685180587 0.5 L 149.15312685180587 3.5 L 156.15312685180587 0 L 149.15312685180587 -3.5 L 149.15312685180587 -0.5 L 107.02852875793418 -0.5 Z"/><text text-anchor="middle" pointer-events="none" font-size="8px" fill="#000000" x="87.07656342590293" y="3" font-family="sans-serif">IN_GENRE</text></g></g><g class="layer nodes"><g class="node" transform="translate(81.63301644878058,254.87461579558627)"><circle class="outline" cx="0" cy="0" r="25" fill="#F79767" stroke="#f36924" stroke-width="2px"/><text text-anchor="middle" pointer-events="none" font-family="sans-serif" dy="1.5625" font-size="25" fill="#FFFFFF"/><text text-anchor="middle" pointer-events="none" x="0" y="5" font-size="10px" fill="#FFFFFF" font-family="sans-serif"> Net, The</text></g><g class="node" transform="translate(91.3236203498742,195.684702805019)"><circle class="outline" cx="0" cy="0" r="25" fill="#F79767" stroke="#f36924" stroke-width="2px"/><text text-anchor="middle" pointer-events="none" font-family="sans-serif" dy="1.5625" font-size="25" fill="#FFFFFF"/><text text-anchor="middle" pointer-events="none" font-family="sans-serif" dy="1.5625" font-size="25" fill="#FFFFFF"/><text text-anchor="middle" pointer-events="none" x="0" y="0" font-size="10px" fill="#FFFFFF" font-family="sans-serif"> Dracula</text><text text-anchor="middle" pointer-events="none" x="0" y="10" font-size="10px" fill="#FFFFFF" font-family="sans-serif"> Untold</text></g><g class="node" transform="translate(202.70428526198745,223.62319790601242)"><circle class="outline" cx="0" cy="0" r="25" fill="#F79767" stroke="#f36924" stroke-width="2px"/><text text-anchor="middle" pointer-events="none" font-family="sans-serif" dy="1.5625" font-size="25" fill="#FFFFFF"/><text text-anchor="middle" pointer-events="none" x="0" y="5" font-size="10px" fill="#FFFFFF" font-family="sans-serif"> Stretch</text></g><g class="node" transform="translate(143.20486394003962,241.37592449291256)"><circle class="outline" cx="0" cy="0" r="25" fill="#F79767" stroke="#f36924" stroke-width="2px"/><text text-anchor="middle" pointer-events="none" font-family="sans-serif" dy="1.5625" font-size="25" fill="#FFFFFF"/><text text-anchor="middle" pointer-events="none" x="0" y="5" font-size="10px" fill="#FFFFFF" font-family="sans-serif"> Predestin…</text></g><g class="node" transform="translate(241.1165290412274,176.12460187159382)"><circle class="outline" cx="0" cy="0" r="25" fill="#F79767" stroke="#f36924" stroke-width="2px"/><text text-anchor="middle" pointer-events="none" font-family="sans-serif" dy="1.5625" font-size="25" fill="#FFFFFF"/><text text-anchor="middle" pointer-events="none" font-family="sans-serif" dy="1.5625" font-size="25" fill="#FFFFFF"/><text text-anchor="middle" pointer-events="none" x="0" y="0" font-size="10px" fill="#FFFFFF" font-family="sans-serif"> American</text><text text-anchor="middle" pointer-events="none" x="0" y="10" font-size="10px" fill="#FFFFFF" font-family="sans-serif"> Sniper</text></g><g class="node" transform="translate(167.02830707612387,175.39095333166756)"><circle class="outline" cx="0" cy="0" r="25" fill="#F79767" stroke="#f36924" stroke-width="2px"/><text text-anchor="middle" pointer-events="none" font-family="sans-serif" dy="1.5625" font-size="25" fill="#FFFFFF"/><text text-anchor="middle" pointer-events="none" x="0" y="5" font-size="10px" fill="#FFFFFF" font-family="sans-serif"> Big Hero 6</text></g><g class="node" transform="translate(272.1276847562677,120.61163315431823)"><circle class="outline" cx="0" cy="0" r="25" fill="#F79767" stroke="#f36924" stroke-width="2px"/><text text-anchor="middle" pointer-events="none" font-family="sans-serif" dy="1.5625" font-size="25" fill="#FFFFFF"/><text text-anchor="middle" pointer-events="none" x="0" y="5" font-size="10px" fill="#FFFFFF" font-family="sans-serif"> Plastic</text></g><g class="node" transform="translate(212.67820317912881,112.54395060035432)"><circle class="outline" cx="0" cy="0" r="25" fill="#F79767" stroke="#f36924" stroke-width="2px"/><text text-anchor="middle" pointer-events="none" font-family="sans-serif" dy="1.5625" font-size="25" fill="#FFFFFF"/><text text-anchor="middle" pointer-events="none" x="0" y="5" font-size="10px" fill="#FFFFFF" font-family="sans-serif"> John Wick</text></g><g class="node" transform="translate(267.7775936840836,60.77279454862684)"><circle class="outline" cx="0" cy="0" r="25" fill="#F79767" stroke="#f36924" stroke-width="2px"/><text text-anchor="middle" pointer-events="none" font-family="sans-serif" dy="1.5625" font-size="25" fill="#FFFFFF"/><text text-anchor="middle" pointer-events="none" x="0" y="5" font-size="10px" fill="#FFFFFF" font-family="sans-serif"> Fury</text></g><g class="node" transform="translate(209.81168344706074,21.80507388500009)"><circle class="outline" cx="0" cy="0" r="25" fill="#F79767" stroke="#f36924" stroke-width="2px"/><text text-anchor="middle" pointer-events="none" font-family="sans-serif" dy="1.5625" font-size="25" fill="#FFFFFF"/><text text-anchor="middle" pointer-events="none" font-family="sans-serif" dy="1.5625" font-size="25" fill="#FFFFFF"/><text text-anchor="middle" pointer-events="none" font-family="sans-serif" dy="1.5625" font-size="25" fill="#FFFFFF"/><text text-anchor="middle" pointer-events="none" x="0" y="-5" font-size="10px" fill="#FFFFFF" font-family="sans-serif"> Revenge</text><text text-anchor="middle" pointer-events="none" x="0" y="5" font-size="10px" fill="#FFFFFF" font-family="sans-serif"> of the</text><text text-anchor="middle" pointer-events="none" x="0" y="15" font-size="10px" fill="#FFFFFF" font-family="sans-serif"> Green</text></g><g class="node" transform="translate(263.80039189508955,-4.30740061005835)"><circle class="outline" cx="0" cy="0" r="25" fill="#F79767" stroke="#f36924" stroke-width="2px"/><text text-anchor="middle" pointer-events="none" font-family="sans-serif" dy="1.5625" font-size="25" fill="#FFFFFF"/><text text-anchor="middle" pointer-events="none" font-family="sans-serif" dy="1.5625" font-size="25" fill="#FFFFFF"/><text text-anchor="middle" pointer-events="none" font-family="sans-serif" dy="1.5625" font-size="25" fill="#FFFFFF"/><text text-anchor="middle" pointer-events="none" x="0" y="-5" font-size="10px" fill="#FFFFFF" font-family="sans-serif"> Sin City:</text><text text-anchor="middle" pointer-events="none" x="0" y="5" font-size="10px" fill="#FFFFFF" font-family="sans-serif"> A Dame to</text><text text-anchor="middle" pointer-events="none" x="0" y="15" font-size="10px" fill="#FFFFFF" font-family="sans-serif"> Kill For</text></g><g class="node" transform="translate(215.85399784909285,-51.679179106321556)"><circle class="outline" cx="0" cy="0" r="25" fill="#F79767" stroke="#f36924" stroke-width="2px"/><text text-anchor="middle" pointer-events="none" font-family="sans-serif" dy="1.5625" font-size="25" fill="#FFFFFF"/><text text-anchor="middle" pointer-events="none" font-family="sans-serif" dy="1.5625" font-size="25" fill="#FFFFFF"/><text text-anchor="middle" pointer-events="none" font-family="sans-serif" dy="1.5625" font-size="25" fill="#FFFFFF"/><text text-anchor="middle" pointer-events="none" x="0" y="-5" font-size="10px" fill="#FFFFFF" font-family="sans-serif"> Teenage</text><text text-anchor="middle" pointer-events="none" x="0" y="5" font-size="10px" fill="#FFFFFF" font-family="sans-serif"> Mutant</text><text text-anchor="middle" pointer-events="none" x="0" y="15" font-size="10px" fill="#FFFFFF" font-family="sans-serif"> Ninja T…</text></g><g class="node" transform="translate(150.82291027148094,-35.19247393814344)"><circle class="outline" cx="0" cy="0" r="25" fill="#F79767" stroke="#f36924" stroke-width="2px"/><text text-anchor="middle" pointer-events="none" font-family="sans-serif" dy="1.5625" font-size="25" fill="#FFFFFF"/><text text-anchor="middle" pointer-events="none" font-family="sans-serif" dy="1.5625" font-size="25" fill="#FFFFFF"/><text text-anchor="middle" pointer-events="none" x="0" y="0" font-size="10px" fill="#FFFFFF" font-family="sans-serif"> Jupiter</text><text text-anchor="middle" pointer-events="none" x="0" y="10" font-size="10px" fill="#FFFFFF" font-family="sans-serif"> Ascendi…</text></g><g class="node" transform="translate(159.329256753864,-94.55823254348998)"><circle class="outline" cx="0" cy="0" r="25" fill="#F79767" stroke="#f36924" stroke-width="2px"/><text text-anchor="middle" pointer-events="none" font-family="sans-serif" dy="1.5625" font-size="25" fill="#FFFFFF"/><text text-anchor="middle" pointer-events="none" font-family="sans-serif" dy="1.5625" font-size="25" fill="#FFFFFF"/><text text-anchor="middle" pointer-events="none" font-family="sans-serif" dy="1.5625" font-size="25" fill="#FFFFFF"/><text text-anchor="middle" pointer-events="none" x="0" y="-5" font-size="10px" fill="#FFFFFF" font-family="sans-serif"> Maze</text><text text-anchor="middle" pointer-events="none" x="0" y="5" font-size="10px" fill="#FFFFFF" font-family="sans-serif"> Runner,</text><text text-anchor="middle" pointer-events="none" x="0" y="15" font-size="10px" fill="#FFFFFF" font-family="sans-serif"> The</text></g><g class="node" transform="translate(-14.07628627237072,116.90627058344366)"><circle class="outline" cx="0" cy="0" r="25" fill="#F79767" stroke="#f36924" stroke-width="2px"/><text text-anchor="middle" pointer-events="none" font-family="sans-serif" dy="1.5625" font-size="25" fill="#FFFFFF"/><text text-anchor="middle" pointer-events="none" x="0" y="5" font-size="10px" fill="#FFFFFF" font-family="sans-serif"> Transfor…</text></g><g class="node" transform="translate(96.90353249896538,-91.18458122025761)"><circle class="outline" cx="0" cy="0" r="25" fill="#F79767" stroke="#f36924" stroke-width="2px"/><text text-anchor="middle" pointer-events="none" font-family="sans-serif" dy="1.5625" font-size="25" fill="#FFFFFF"/><text text-anchor="middle" pointer-events="none" x="0" y="5" font-size="10px" fill="#FFFFFF" font-family="sans-serif"> Hercules</text></g><g class="node" transform="translate(29.02650466172989,-90.91523603277086)"><circle class="outline" cx="0" cy="0" r="25" fill="#F79767" stroke="#f36924" stroke-width="2px"/><text text-anchor="middle" pointer-events="none" font-family="sans-serif" dy="1.5625" font-size="25" fill="#FFFFFF"/><text text-anchor="middle" pointer-events="none" font-family="sans-serif" dy="1.5625" font-size="25" fill="#FFFFFF"/><text text-anchor="middle" pointer-events="none" x="0" y="0" font-size="10px" fill="#FFFFFF" font-family="sans-serif"> Guardians</text><text text-anchor="middle" pointer-events="none" x="0" y="10" font-size="10px" fill="#FFFFFF" font-family="sans-serif"> of the G…</text></g><g class="node" transform="translate(-20.538411603320448,-48.188683626799715)"><circle class="outline" cx="0" cy="0" r="25" fill="#F79767" stroke="#f36924" stroke-width="2px"/><text text-anchor="middle" pointer-events="none" font-family="sans-serif" dy="1.5625" font-size="25" fill="#FFFFFF"/><text text-anchor="middle" pointer-events="none" font-family="sans-serif" dy="1.5625" font-size="25" fill="#FFFFFF"/><text text-anchor="middle" pointer-events="none" x="0" y="0" font-size="10px" fill="#FFFFFF" font-family="sans-serif"> The</text><text text-anchor="middle" pointer-events="none" x="0" y="10" font-size="10px" fill="#FFFFFF" font-family="sans-serif"> Expenda…</text></g><g class="node" transform="translate(56.68749488580563,-37.71090667540637)"><circle class="outline" cx="0" cy="0" r="25" fill="#F79767" stroke="#f36924" stroke-width="2px"/><text text-anchor="middle" pointer-events="none" font-family="sans-serif" dy="1.5625" font-size="25" fill="#FFFFFF"/><text text-anchor="middle" pointer-events="none" font-family="sans-serif" dy="1.5625" font-size="25" fill="#FFFFFF"/><text text-anchor="middle" pointer-events="none" font-family="sans-serif" dy="1.5625" font-size="25" fill="#FFFFFF"/><text text-anchor="middle" pointer-events="none" x="0" y="-5" font-size="10px" fill="#FFFFFF" font-family="sans-serif"> Purge:</text><text text-anchor="middle" pointer-events="none" x="0" y="5" font-size="10px" fill="#FFFFFF" font-family="sans-serif"> Anarchy,</text><text text-anchor="middle" pointer-events="none" x="0" y="15" font-size="10px" fill="#FFFFFF" font-family="sans-serif"> The</text></g><g class="node" transform="translate(-64.10720453721086,4.2903799178951125)"><circle class="outline" cx="0" cy="0" r="25" fill="#F79767" stroke="#f36924" stroke-width="2px"/><text text-anchor="middle" pointer-events="none" font-family="sans-serif" dy="1.5625" font-size="25" fill="#FFFFFF"/><text text-anchor="middle" pointer-events="none" x="0" y="5" font-size="10px" fill="#FFFFFF" font-family="sans-serif"> Zombeav…</text></g><g class="node" transform="translate(-4.764188419637725,13.101811573882925)"><circle class="outline" cx="0" cy="0" r="25" fill="#F79767" stroke="#f36924" stroke-width="2px"/><text text-anchor="middle" pointer-events="none" font-family="sans-serif" dy="1.5625" font-size="25" fill="#FFFFFF"/><text text-anchor="middle" pointer-events="none" x="0" y="5" font-size="10px" fill="#FFFFFF" font-family="sans-serif"> Maleficent</text></g><g class="node" transform="translate(-60.53850761958708,64.17974157579829)"><circle class="outline" cx="0" cy="0" r="25" fill="#F79767" stroke="#f36924" stroke-width="2px"/><text text-anchor="middle" pointer-events="none" font-family="sans-serif" dy="1.5625" font-size="25" fill="#FFFFFF"/><text text-anchor="middle" pointer-events="none" x="0" y="5" font-size="10px" fill="#FFFFFF" font-family="sans-serif"> Godzilla</text></g><g class="node" transform="translate(-40.001685269532985,185.24897674644842)"><circle class="outline" cx="0" cy="0" r="25" fill="#F79767" stroke="#f36924" stroke-width="2px"/><text text-anchor="middle" pointer-events="none" font-family="sans-serif" dy="1.5625" font-size="25" fill="#FFFFFF"/><text text-anchor="middle" pointer-events="none" x="0" y="5" font-size="10px" fill="#FFFFFF" font-family="sans-serif"> Lucy</text></g><g class="node" transform="translate(-73.72155312091135,123.15066543144485)"><circle class="outline" cx="0" cy="0" r="25" fill="#F79767" stroke="#f36924" stroke-width="2px"/><text text-anchor="middle" pointer-events="none" font-family="sans-serif" dy="1.5625" font-size="25" fill="#FFFFFF"/><text text-anchor="middle" pointer-events="none" font-family="sans-serif" dy="1.5625" font-size="25" fill="#FFFFFF"/><text text-anchor="middle" pointer-events="none" font-family="sans-serif" dy="1.5625" font-size="25" fill="#FFFFFF"/><text text-anchor="middle" pointer-events="none" x="0" y="-5" font-size="10px" fill="#FFFFFF" font-family="sans-serif"> X-Men:</text><text text-anchor="middle" pointer-events="none" x="0" y="5" font-size="10px" fill="#FFFFFF" font-family="sans-serif"> Days of</text><text text-anchor="middle" pointer-events="none" x="0" y="15" font-size="10px" fill="#FFFFFF" font-family="sans-serif"> Future</text></g><g class="node" transform="translate(19.14055216448676,175.1780415735349)"><circle class="outline" cx="0" cy="0" r="25" fill="#F79767" stroke="#f36924" stroke-width="2px"/><text text-anchor="middle" pointer-events="none" font-family="sans-serif" dy="1.5625" font-size="25" fill="#FFFFFF"/><text text-anchor="middle" pointer-events="none" font-family="sans-serif" dy="1.5625" font-size="25" fill="#FFFFFF"/><text text-anchor="middle" pointer-events="none" font-family="sans-serif" dy="1.5625" font-size="25" fill="#FFFFFF"/><text text-anchor="middle" pointer-events="none" font-family="sans-serif" dy="1.5625" font-size="25" fill="#FFFFFF"/><text text-anchor="middle" pointer-events="none" x="0" y="-10" font-size="10px" fill="#FFFFFF" font-family="sans-serif"> How</text><text text-anchor="middle" pointer-events="none" x="0" y="0" font-size="10px" fill="#FFFFFF" font-family="sans-serif"> to Train</text><text text-anchor="middle" pointer-events="none" x="0" y="10" font-size="10px" fill="#FFFFFF" font-family="sans-serif"> Your</text><text text-anchor="middle" pointer-events="none" x="0" y="20" font-size="10px" fill="#FFFFFF" font-family="sans-serif"> Drag…</text></g><g class="node" transform="translate(19.485778044730317,235.1640809918584)"><circle class="outline" cx="0" cy="0" r="25" fill="#F79767" stroke="#f36924" stroke-width="2px"/><text text-anchor="middle" pointer-events="none" font-family="sans-serif" dy="1.5625" font-size="25" fill="#FFFFFF"/><text text-anchor="middle" pointer-events="none" font-family="sans-serif" dy="1.5625" font-size="25" fill="#FFFFFF"/><text text-anchor="middle" pointer-events="none" x="0" y="0" font-size="10px" fill="#FFFFFF" font-family="sans-serif"> Equalizer,</text><text text-anchor="middle" pointer-events="none" x="0" y="10" font-size="10px" fill="#FFFFFF" font-family="sans-serif"> The</text></g><g class="node" transform="translate(100.91448348577205,73.3437445122227)"><circle class="outline" cx="0" cy="0" r="25" fill="#57C7E3" stroke="#23b3d7" stroke-width="2px"/><text text-anchor="middle" pointer-events="none" font-family="sans-serif" dy="1.5625" font-size="25" fill="#2A2C34"/><text text-anchor="middle" pointer-events="none" x="0" y="5" font-size="10px" fill="#2A2C34" font-family="sans-serif"> Action</text></g></g></svg>